G75*
%MOIN*%
%OFA0B0*%
%FSLAX25Y25*%
%IPPOS*%
%LPD*%
%AMOC8*
5,1,8,0,0,1.08239X$1,22.5*
%
%ADD10C,0.00409*%
D10*
X0394708Y0196698D02*
X0394708Y0201408D01*
X0400206Y0201408D01*
X0400206Y0196698D01*
X0394708Y0196698D01*
X0394708Y0197106D02*
X0400206Y0197106D01*
X0400206Y0197514D02*
X0394708Y0197514D01*
X0394708Y0197922D02*
X0400206Y0197922D01*
X0400206Y0198330D02*
X0394708Y0198330D01*
X0394708Y0198738D02*
X0400206Y0198738D01*
X0400206Y0199146D02*
X0394708Y0199146D01*
X0394708Y0199554D02*
X0400206Y0199554D01*
X0400206Y0199962D02*
X0394708Y0199962D01*
X0394708Y0200370D02*
X0400206Y0200370D01*
X0400206Y0200778D02*
X0394708Y0200778D01*
X0394708Y0201186D02*
X0400206Y0201186D01*
X0394708Y0204178D02*
X0394708Y0208888D01*
X0400206Y0208888D01*
X0400206Y0204178D01*
X0394708Y0204178D01*
X0394708Y0204586D02*
X0400206Y0204586D01*
X0400206Y0204994D02*
X0394708Y0204994D01*
X0394708Y0205402D02*
X0400206Y0205402D01*
X0400206Y0205810D02*
X0394708Y0205810D01*
X0394708Y0206218D02*
X0400206Y0206218D01*
X0400206Y0206626D02*
X0394708Y0206626D01*
X0394708Y0207034D02*
X0400206Y0207034D01*
X0400206Y0207442D02*
X0394708Y0207442D01*
X0394708Y0207850D02*
X0400206Y0207850D01*
X0400206Y0208258D02*
X0394708Y0208258D01*
X0394708Y0208666D02*
X0400206Y0208666D01*
X0394708Y0211659D02*
X0394708Y0216369D01*
X0400206Y0216369D01*
X0400206Y0211659D01*
X0394708Y0211659D01*
X0394708Y0212067D02*
X0400206Y0212067D01*
X0400206Y0212475D02*
X0394708Y0212475D01*
X0394708Y0212883D02*
X0400206Y0212883D01*
X0400206Y0213291D02*
X0394708Y0213291D01*
X0394708Y0213699D02*
X0400206Y0213699D01*
X0400206Y0214107D02*
X0394708Y0214107D01*
X0394708Y0214515D02*
X0400206Y0214515D01*
X0400206Y0214923D02*
X0394708Y0214923D01*
X0394708Y0215331D02*
X0400206Y0215331D01*
X0400206Y0215739D02*
X0394708Y0215739D01*
X0394708Y0216147D02*
X0400206Y0216147D01*
X0394708Y0348198D02*
X0394708Y0352908D01*
X0400206Y0352908D01*
X0400206Y0348198D01*
X0394708Y0348198D01*
X0394708Y0348606D02*
X0400206Y0348606D01*
X0400206Y0349014D02*
X0394708Y0349014D01*
X0394708Y0349422D02*
X0400206Y0349422D01*
X0400206Y0349830D02*
X0394708Y0349830D01*
X0394708Y0350238D02*
X0400206Y0350238D01*
X0400206Y0350646D02*
X0394708Y0350646D01*
X0394708Y0351054D02*
X0400206Y0351054D01*
X0400206Y0351462D02*
X0394708Y0351462D01*
X0394708Y0351870D02*
X0400206Y0351870D01*
X0400206Y0352278D02*
X0394708Y0352278D01*
X0394708Y0352686D02*
X0400206Y0352686D01*
X0394708Y0355678D02*
X0394708Y0360388D01*
X0400206Y0360388D01*
X0400206Y0355678D01*
X0394708Y0355678D01*
X0394708Y0356086D02*
X0400206Y0356086D01*
X0400206Y0356494D02*
X0394708Y0356494D01*
X0394708Y0356902D02*
X0400206Y0356902D01*
X0400206Y0357310D02*
X0394708Y0357310D01*
X0394708Y0357718D02*
X0400206Y0357718D01*
X0400206Y0358126D02*
X0394708Y0358126D01*
X0394708Y0358534D02*
X0400206Y0358534D01*
X0400206Y0358942D02*
X0394708Y0358942D01*
X0394708Y0359350D02*
X0400206Y0359350D01*
X0400206Y0359758D02*
X0394708Y0359758D01*
X0394708Y0360166D02*
X0400206Y0360166D01*
X0394708Y0363159D02*
X0394708Y0367869D01*
X0400206Y0367869D01*
X0400206Y0363159D01*
X0394708Y0363159D01*
X0394708Y0363567D02*
X0400206Y0363567D01*
X0400206Y0363975D02*
X0394708Y0363975D01*
X0394708Y0364383D02*
X0400206Y0364383D01*
X0400206Y0364791D02*
X0394708Y0364791D01*
X0394708Y0365199D02*
X0400206Y0365199D01*
X0400206Y0365607D02*
X0394708Y0365607D01*
X0394708Y0366015D02*
X0400206Y0366015D01*
X0400206Y0366423D02*
X0394708Y0366423D01*
X0394708Y0366831D02*
X0400206Y0366831D01*
X0400206Y0367239D02*
X0394708Y0367239D01*
X0394708Y0367647D02*
X0400206Y0367647D01*
M02*
