G75*
%MOIN*%
%OFA0B0*%
%FSLAX25Y25*%
%IPPOS*%
%LPD*%
%AMOC8*
5,1,8,0,0,1.08239X$1,22.5*
%
%ADD10C,0.00500*%
%ADD11C,0.00300*%
%ADD12R,0.32700X0.00300*%
%ADD13R,0.01500X0.00300*%
%ADD14R,0.02700X0.00300*%
%ADD15R,0.03000X0.00300*%
%ADD16R,0.03600X0.00300*%
%ADD17R,0.04200X0.00300*%
%ADD18R,0.04800X0.00300*%
%ADD19R,0.04500X0.00300*%
%ADD20R,0.02100X0.00300*%
%ADD21R,0.01800X0.00300*%
%ADD22R,0.01200X0.00300*%
%ADD23R,0.00600X0.00300*%
%ADD24R,0.00900X0.00300*%
%ADD25R,0.02400X0.00300*%
%ADD26R,0.03300X0.00300*%
%ADD27R,0.05400X0.00300*%
%ADD28R,0.03900X0.00300*%
%ADD29R,0.27000X0.00300*%
%ADD30C,0.00600*%
D10*
X0316824Y0060285D02*
X0319826Y0060285D01*
X0321394Y0061036D02*
X0322896Y0061036D01*
X0322145Y0061787D02*
X0322145Y0058784D01*
X0321394Y0058033D01*
X0324497Y0058033D02*
X0324497Y0061036D01*
X0327499Y0061036D02*
X0327499Y0058784D01*
X0326749Y0058033D01*
X0324497Y0058033D01*
X0329101Y0058784D02*
X0329101Y0060285D01*
X0329852Y0061036D01*
X0331353Y0061036D01*
X0332103Y0060285D01*
X0332103Y0058784D01*
X0331353Y0058033D01*
X0329852Y0058033D01*
X0329101Y0058784D01*
X0333705Y0059535D02*
X0333705Y0062537D01*
X0333705Y0059535D02*
X0335206Y0058033D01*
X0336707Y0059535D01*
X0336707Y0062537D01*
X0453866Y0061787D02*
X0453866Y0061036D01*
X0454617Y0060285D01*
X0456868Y0060285D01*
X0454617Y0060285D02*
X0453866Y0059535D01*
X0453866Y0058784D01*
X0454617Y0058033D01*
X0456868Y0058033D01*
X0456868Y0062537D01*
X0454617Y0062537D01*
X0453866Y0061787D01*
X0458436Y0062537D02*
X0459938Y0062537D01*
X0459187Y0062537D02*
X0459187Y0058033D01*
X0459938Y0058033D02*
X0458436Y0058033D01*
X0461539Y0058784D02*
X0461539Y0061787D01*
X0462290Y0062537D01*
X0464542Y0062537D01*
X0464542Y0058033D01*
X0462290Y0058033D01*
X0461539Y0058784D01*
X0470747Y0058033D02*
X0473749Y0058033D01*
X0473749Y0058784D01*
X0470747Y0061787D01*
X0470747Y0062537D01*
X0473749Y0062537D01*
X0475351Y0062537D02*
X0478353Y0062537D01*
X0478353Y0058033D01*
X0475351Y0058033D01*
X0476852Y0060285D02*
X0478353Y0060285D01*
X0479955Y0058033D02*
X0482957Y0058033D01*
X0482957Y0062537D01*
X0479955Y0062537D01*
X0481456Y0060285D02*
X0482957Y0060285D01*
X0615207Y0070283D02*
X0615207Y0080783D01*
X0683457Y0080783D01*
X0683457Y0070283D01*
X0615207Y0070283D01*
X0616957Y0073033D02*
X0616959Y0073103D01*
X0616965Y0073173D01*
X0616975Y0073242D01*
X0616988Y0073311D01*
X0617006Y0073379D01*
X0617027Y0073446D01*
X0617052Y0073511D01*
X0617081Y0073575D01*
X0617113Y0073638D01*
X0617149Y0073698D01*
X0617188Y0073756D01*
X0617230Y0073812D01*
X0617275Y0073866D01*
X0617323Y0073917D01*
X0617374Y0073965D01*
X0617428Y0074010D01*
X0617484Y0074052D01*
X0617542Y0074091D01*
X0617602Y0074127D01*
X0617665Y0074159D01*
X0617729Y0074188D01*
X0617794Y0074213D01*
X0617861Y0074234D01*
X0617929Y0074252D01*
X0617998Y0074265D01*
X0618067Y0074275D01*
X0618137Y0074281D01*
X0618207Y0074283D01*
X0618277Y0074281D01*
X0618347Y0074275D01*
X0618416Y0074265D01*
X0618485Y0074252D01*
X0618553Y0074234D01*
X0618620Y0074213D01*
X0618685Y0074188D01*
X0618749Y0074159D01*
X0618812Y0074127D01*
X0618872Y0074091D01*
X0618930Y0074052D01*
X0618986Y0074010D01*
X0619040Y0073965D01*
X0619091Y0073917D01*
X0619139Y0073866D01*
X0619184Y0073812D01*
X0619226Y0073756D01*
X0619265Y0073698D01*
X0619301Y0073638D01*
X0619333Y0073575D01*
X0619362Y0073511D01*
X0619387Y0073446D01*
X0619408Y0073379D01*
X0619426Y0073311D01*
X0619439Y0073242D01*
X0619449Y0073173D01*
X0619455Y0073103D01*
X0619457Y0073033D01*
X0619455Y0072963D01*
X0619449Y0072893D01*
X0619439Y0072824D01*
X0619426Y0072755D01*
X0619408Y0072687D01*
X0619387Y0072620D01*
X0619362Y0072555D01*
X0619333Y0072491D01*
X0619301Y0072428D01*
X0619265Y0072368D01*
X0619226Y0072310D01*
X0619184Y0072254D01*
X0619139Y0072200D01*
X0619091Y0072149D01*
X0619040Y0072101D01*
X0618986Y0072056D01*
X0618930Y0072014D01*
X0618872Y0071975D01*
X0618812Y0071939D01*
X0618749Y0071907D01*
X0618685Y0071878D01*
X0618620Y0071853D01*
X0618553Y0071832D01*
X0618485Y0071814D01*
X0618416Y0071801D01*
X0618347Y0071791D01*
X0618277Y0071785D01*
X0618207Y0071783D01*
X0618137Y0071785D01*
X0618067Y0071791D01*
X0617998Y0071801D01*
X0617929Y0071814D01*
X0617861Y0071832D01*
X0617794Y0071853D01*
X0617729Y0071878D01*
X0617665Y0071907D01*
X0617602Y0071939D01*
X0617542Y0071975D01*
X0617484Y0072014D01*
X0617428Y0072056D01*
X0617374Y0072101D01*
X0617323Y0072149D01*
X0617275Y0072200D01*
X0617230Y0072254D01*
X0617188Y0072310D01*
X0617149Y0072368D01*
X0617113Y0072428D01*
X0617081Y0072491D01*
X0617052Y0072555D01*
X0617027Y0072620D01*
X0617006Y0072687D01*
X0616988Y0072755D01*
X0616975Y0072824D01*
X0616965Y0072893D01*
X0616959Y0072963D01*
X0616957Y0073033D01*
X0616957Y0077808D02*
X0616959Y0077878D01*
X0616965Y0077948D01*
X0616975Y0078017D01*
X0616988Y0078086D01*
X0617006Y0078154D01*
X0617027Y0078221D01*
X0617052Y0078286D01*
X0617081Y0078350D01*
X0617113Y0078413D01*
X0617149Y0078473D01*
X0617188Y0078531D01*
X0617230Y0078587D01*
X0617275Y0078641D01*
X0617323Y0078692D01*
X0617374Y0078740D01*
X0617428Y0078785D01*
X0617484Y0078827D01*
X0617542Y0078866D01*
X0617602Y0078902D01*
X0617665Y0078934D01*
X0617729Y0078963D01*
X0617794Y0078988D01*
X0617861Y0079009D01*
X0617929Y0079027D01*
X0617998Y0079040D01*
X0618067Y0079050D01*
X0618137Y0079056D01*
X0618207Y0079058D01*
X0618277Y0079056D01*
X0618347Y0079050D01*
X0618416Y0079040D01*
X0618485Y0079027D01*
X0618553Y0079009D01*
X0618620Y0078988D01*
X0618685Y0078963D01*
X0618749Y0078934D01*
X0618812Y0078902D01*
X0618872Y0078866D01*
X0618930Y0078827D01*
X0618986Y0078785D01*
X0619040Y0078740D01*
X0619091Y0078692D01*
X0619139Y0078641D01*
X0619184Y0078587D01*
X0619226Y0078531D01*
X0619265Y0078473D01*
X0619301Y0078413D01*
X0619333Y0078350D01*
X0619362Y0078286D01*
X0619387Y0078221D01*
X0619408Y0078154D01*
X0619426Y0078086D01*
X0619439Y0078017D01*
X0619449Y0077948D01*
X0619455Y0077878D01*
X0619457Y0077808D01*
X0619455Y0077738D01*
X0619449Y0077668D01*
X0619439Y0077599D01*
X0619426Y0077530D01*
X0619408Y0077462D01*
X0619387Y0077395D01*
X0619362Y0077330D01*
X0619333Y0077266D01*
X0619301Y0077203D01*
X0619265Y0077143D01*
X0619226Y0077085D01*
X0619184Y0077029D01*
X0619139Y0076975D01*
X0619091Y0076924D01*
X0619040Y0076876D01*
X0618986Y0076831D01*
X0618930Y0076789D01*
X0618872Y0076750D01*
X0618812Y0076714D01*
X0618749Y0076682D01*
X0618685Y0076653D01*
X0618620Y0076628D01*
X0618553Y0076607D01*
X0618485Y0076589D01*
X0618416Y0076576D01*
X0618347Y0076566D01*
X0618277Y0076560D01*
X0618207Y0076558D01*
X0618137Y0076560D01*
X0618067Y0076566D01*
X0617998Y0076576D01*
X0617929Y0076589D01*
X0617861Y0076607D01*
X0617794Y0076628D01*
X0617729Y0076653D01*
X0617665Y0076682D01*
X0617602Y0076714D01*
X0617542Y0076750D01*
X0617484Y0076789D01*
X0617428Y0076831D01*
X0617374Y0076876D01*
X0617323Y0076924D01*
X0617275Y0076975D01*
X0617230Y0077029D01*
X0617188Y0077085D01*
X0617149Y0077143D01*
X0617113Y0077203D01*
X0617081Y0077266D01*
X0617052Y0077330D01*
X0617027Y0077395D01*
X0617006Y0077462D01*
X0616988Y0077530D01*
X0616975Y0077599D01*
X0616965Y0077668D01*
X0616959Y0077738D01*
X0616957Y0077808D01*
X0621732Y0077808D02*
X0621734Y0077878D01*
X0621740Y0077948D01*
X0621750Y0078017D01*
X0621763Y0078086D01*
X0621781Y0078154D01*
X0621802Y0078221D01*
X0621827Y0078286D01*
X0621856Y0078350D01*
X0621888Y0078413D01*
X0621924Y0078473D01*
X0621963Y0078531D01*
X0622005Y0078587D01*
X0622050Y0078641D01*
X0622098Y0078692D01*
X0622149Y0078740D01*
X0622203Y0078785D01*
X0622259Y0078827D01*
X0622317Y0078866D01*
X0622377Y0078902D01*
X0622440Y0078934D01*
X0622504Y0078963D01*
X0622569Y0078988D01*
X0622636Y0079009D01*
X0622704Y0079027D01*
X0622773Y0079040D01*
X0622842Y0079050D01*
X0622912Y0079056D01*
X0622982Y0079058D01*
X0623052Y0079056D01*
X0623122Y0079050D01*
X0623191Y0079040D01*
X0623260Y0079027D01*
X0623328Y0079009D01*
X0623395Y0078988D01*
X0623460Y0078963D01*
X0623524Y0078934D01*
X0623587Y0078902D01*
X0623647Y0078866D01*
X0623705Y0078827D01*
X0623761Y0078785D01*
X0623815Y0078740D01*
X0623866Y0078692D01*
X0623914Y0078641D01*
X0623959Y0078587D01*
X0624001Y0078531D01*
X0624040Y0078473D01*
X0624076Y0078413D01*
X0624108Y0078350D01*
X0624137Y0078286D01*
X0624162Y0078221D01*
X0624183Y0078154D01*
X0624201Y0078086D01*
X0624214Y0078017D01*
X0624224Y0077948D01*
X0624230Y0077878D01*
X0624232Y0077808D01*
X0624230Y0077738D01*
X0624224Y0077668D01*
X0624214Y0077599D01*
X0624201Y0077530D01*
X0624183Y0077462D01*
X0624162Y0077395D01*
X0624137Y0077330D01*
X0624108Y0077266D01*
X0624076Y0077203D01*
X0624040Y0077143D01*
X0624001Y0077085D01*
X0623959Y0077029D01*
X0623914Y0076975D01*
X0623866Y0076924D01*
X0623815Y0076876D01*
X0623761Y0076831D01*
X0623705Y0076789D01*
X0623647Y0076750D01*
X0623587Y0076714D01*
X0623524Y0076682D01*
X0623460Y0076653D01*
X0623395Y0076628D01*
X0623328Y0076607D01*
X0623260Y0076589D01*
X0623191Y0076576D01*
X0623122Y0076566D01*
X0623052Y0076560D01*
X0622982Y0076558D01*
X0622912Y0076560D01*
X0622842Y0076566D01*
X0622773Y0076576D01*
X0622704Y0076589D01*
X0622636Y0076607D01*
X0622569Y0076628D01*
X0622504Y0076653D01*
X0622440Y0076682D01*
X0622377Y0076714D01*
X0622317Y0076750D01*
X0622259Y0076789D01*
X0622203Y0076831D01*
X0622149Y0076876D01*
X0622098Y0076924D01*
X0622050Y0076975D01*
X0622005Y0077029D01*
X0621963Y0077085D01*
X0621924Y0077143D01*
X0621888Y0077203D01*
X0621856Y0077266D01*
X0621827Y0077330D01*
X0621802Y0077395D01*
X0621781Y0077462D01*
X0621763Y0077530D01*
X0621750Y0077599D01*
X0621740Y0077668D01*
X0621734Y0077738D01*
X0621732Y0077808D01*
X0621732Y0073033D02*
X0621734Y0073103D01*
X0621740Y0073173D01*
X0621750Y0073242D01*
X0621763Y0073311D01*
X0621781Y0073379D01*
X0621802Y0073446D01*
X0621827Y0073511D01*
X0621856Y0073575D01*
X0621888Y0073638D01*
X0621924Y0073698D01*
X0621963Y0073756D01*
X0622005Y0073812D01*
X0622050Y0073866D01*
X0622098Y0073917D01*
X0622149Y0073965D01*
X0622203Y0074010D01*
X0622259Y0074052D01*
X0622317Y0074091D01*
X0622377Y0074127D01*
X0622440Y0074159D01*
X0622504Y0074188D01*
X0622569Y0074213D01*
X0622636Y0074234D01*
X0622704Y0074252D01*
X0622773Y0074265D01*
X0622842Y0074275D01*
X0622912Y0074281D01*
X0622982Y0074283D01*
X0623052Y0074281D01*
X0623122Y0074275D01*
X0623191Y0074265D01*
X0623260Y0074252D01*
X0623328Y0074234D01*
X0623395Y0074213D01*
X0623460Y0074188D01*
X0623524Y0074159D01*
X0623587Y0074127D01*
X0623647Y0074091D01*
X0623705Y0074052D01*
X0623761Y0074010D01*
X0623815Y0073965D01*
X0623866Y0073917D01*
X0623914Y0073866D01*
X0623959Y0073812D01*
X0624001Y0073756D01*
X0624040Y0073698D01*
X0624076Y0073638D01*
X0624108Y0073575D01*
X0624137Y0073511D01*
X0624162Y0073446D01*
X0624183Y0073379D01*
X0624201Y0073311D01*
X0624214Y0073242D01*
X0624224Y0073173D01*
X0624230Y0073103D01*
X0624232Y0073033D01*
X0624230Y0072963D01*
X0624224Y0072893D01*
X0624214Y0072824D01*
X0624201Y0072755D01*
X0624183Y0072687D01*
X0624162Y0072620D01*
X0624137Y0072555D01*
X0624108Y0072491D01*
X0624076Y0072428D01*
X0624040Y0072368D01*
X0624001Y0072310D01*
X0623959Y0072254D01*
X0623914Y0072200D01*
X0623866Y0072149D01*
X0623815Y0072101D01*
X0623761Y0072056D01*
X0623705Y0072014D01*
X0623647Y0071975D01*
X0623587Y0071939D01*
X0623524Y0071907D01*
X0623460Y0071878D01*
X0623395Y0071853D01*
X0623328Y0071832D01*
X0623260Y0071814D01*
X0623191Y0071801D01*
X0623122Y0071791D01*
X0623052Y0071785D01*
X0622982Y0071783D01*
X0622912Y0071785D01*
X0622842Y0071791D01*
X0622773Y0071801D01*
X0622704Y0071814D01*
X0622636Y0071832D01*
X0622569Y0071853D01*
X0622504Y0071878D01*
X0622440Y0071907D01*
X0622377Y0071939D01*
X0622317Y0071975D01*
X0622259Y0072014D01*
X0622203Y0072056D01*
X0622149Y0072101D01*
X0622098Y0072149D01*
X0622050Y0072200D01*
X0622005Y0072254D01*
X0621963Y0072310D01*
X0621924Y0072368D01*
X0621888Y0072428D01*
X0621856Y0072491D01*
X0621827Y0072555D01*
X0621802Y0072620D01*
X0621781Y0072687D01*
X0621763Y0072755D01*
X0621750Y0072824D01*
X0621740Y0072893D01*
X0621734Y0072963D01*
X0621732Y0073033D01*
X0626507Y0073033D02*
X0626509Y0073103D01*
X0626515Y0073173D01*
X0626525Y0073242D01*
X0626538Y0073311D01*
X0626556Y0073379D01*
X0626577Y0073446D01*
X0626602Y0073511D01*
X0626631Y0073575D01*
X0626663Y0073638D01*
X0626699Y0073698D01*
X0626738Y0073756D01*
X0626780Y0073812D01*
X0626825Y0073866D01*
X0626873Y0073917D01*
X0626924Y0073965D01*
X0626978Y0074010D01*
X0627034Y0074052D01*
X0627092Y0074091D01*
X0627152Y0074127D01*
X0627215Y0074159D01*
X0627279Y0074188D01*
X0627344Y0074213D01*
X0627411Y0074234D01*
X0627479Y0074252D01*
X0627548Y0074265D01*
X0627617Y0074275D01*
X0627687Y0074281D01*
X0627757Y0074283D01*
X0627827Y0074281D01*
X0627897Y0074275D01*
X0627966Y0074265D01*
X0628035Y0074252D01*
X0628103Y0074234D01*
X0628170Y0074213D01*
X0628235Y0074188D01*
X0628299Y0074159D01*
X0628362Y0074127D01*
X0628422Y0074091D01*
X0628480Y0074052D01*
X0628536Y0074010D01*
X0628590Y0073965D01*
X0628641Y0073917D01*
X0628689Y0073866D01*
X0628734Y0073812D01*
X0628776Y0073756D01*
X0628815Y0073698D01*
X0628851Y0073638D01*
X0628883Y0073575D01*
X0628912Y0073511D01*
X0628937Y0073446D01*
X0628958Y0073379D01*
X0628976Y0073311D01*
X0628989Y0073242D01*
X0628999Y0073173D01*
X0629005Y0073103D01*
X0629007Y0073033D01*
X0629005Y0072963D01*
X0628999Y0072893D01*
X0628989Y0072824D01*
X0628976Y0072755D01*
X0628958Y0072687D01*
X0628937Y0072620D01*
X0628912Y0072555D01*
X0628883Y0072491D01*
X0628851Y0072428D01*
X0628815Y0072368D01*
X0628776Y0072310D01*
X0628734Y0072254D01*
X0628689Y0072200D01*
X0628641Y0072149D01*
X0628590Y0072101D01*
X0628536Y0072056D01*
X0628480Y0072014D01*
X0628422Y0071975D01*
X0628362Y0071939D01*
X0628299Y0071907D01*
X0628235Y0071878D01*
X0628170Y0071853D01*
X0628103Y0071832D01*
X0628035Y0071814D01*
X0627966Y0071801D01*
X0627897Y0071791D01*
X0627827Y0071785D01*
X0627757Y0071783D01*
X0627687Y0071785D01*
X0627617Y0071791D01*
X0627548Y0071801D01*
X0627479Y0071814D01*
X0627411Y0071832D01*
X0627344Y0071853D01*
X0627279Y0071878D01*
X0627215Y0071907D01*
X0627152Y0071939D01*
X0627092Y0071975D01*
X0627034Y0072014D01*
X0626978Y0072056D01*
X0626924Y0072101D01*
X0626873Y0072149D01*
X0626825Y0072200D01*
X0626780Y0072254D01*
X0626738Y0072310D01*
X0626699Y0072368D01*
X0626663Y0072428D01*
X0626631Y0072491D01*
X0626602Y0072555D01*
X0626577Y0072620D01*
X0626556Y0072687D01*
X0626538Y0072755D01*
X0626525Y0072824D01*
X0626515Y0072893D01*
X0626509Y0072963D01*
X0626507Y0073033D01*
X0626507Y0077808D02*
X0626509Y0077878D01*
X0626515Y0077948D01*
X0626525Y0078017D01*
X0626538Y0078086D01*
X0626556Y0078154D01*
X0626577Y0078221D01*
X0626602Y0078286D01*
X0626631Y0078350D01*
X0626663Y0078413D01*
X0626699Y0078473D01*
X0626738Y0078531D01*
X0626780Y0078587D01*
X0626825Y0078641D01*
X0626873Y0078692D01*
X0626924Y0078740D01*
X0626978Y0078785D01*
X0627034Y0078827D01*
X0627092Y0078866D01*
X0627152Y0078902D01*
X0627215Y0078934D01*
X0627279Y0078963D01*
X0627344Y0078988D01*
X0627411Y0079009D01*
X0627479Y0079027D01*
X0627548Y0079040D01*
X0627617Y0079050D01*
X0627687Y0079056D01*
X0627757Y0079058D01*
X0627827Y0079056D01*
X0627897Y0079050D01*
X0627966Y0079040D01*
X0628035Y0079027D01*
X0628103Y0079009D01*
X0628170Y0078988D01*
X0628235Y0078963D01*
X0628299Y0078934D01*
X0628362Y0078902D01*
X0628422Y0078866D01*
X0628480Y0078827D01*
X0628536Y0078785D01*
X0628590Y0078740D01*
X0628641Y0078692D01*
X0628689Y0078641D01*
X0628734Y0078587D01*
X0628776Y0078531D01*
X0628815Y0078473D01*
X0628851Y0078413D01*
X0628883Y0078350D01*
X0628912Y0078286D01*
X0628937Y0078221D01*
X0628958Y0078154D01*
X0628976Y0078086D01*
X0628989Y0078017D01*
X0628999Y0077948D01*
X0629005Y0077878D01*
X0629007Y0077808D01*
X0629005Y0077738D01*
X0628999Y0077668D01*
X0628989Y0077599D01*
X0628976Y0077530D01*
X0628958Y0077462D01*
X0628937Y0077395D01*
X0628912Y0077330D01*
X0628883Y0077266D01*
X0628851Y0077203D01*
X0628815Y0077143D01*
X0628776Y0077085D01*
X0628734Y0077029D01*
X0628689Y0076975D01*
X0628641Y0076924D01*
X0628590Y0076876D01*
X0628536Y0076831D01*
X0628480Y0076789D01*
X0628422Y0076750D01*
X0628362Y0076714D01*
X0628299Y0076682D01*
X0628235Y0076653D01*
X0628170Y0076628D01*
X0628103Y0076607D01*
X0628035Y0076589D01*
X0627966Y0076576D01*
X0627897Y0076566D01*
X0627827Y0076560D01*
X0627757Y0076558D01*
X0627687Y0076560D01*
X0627617Y0076566D01*
X0627548Y0076576D01*
X0627479Y0076589D01*
X0627411Y0076607D01*
X0627344Y0076628D01*
X0627279Y0076653D01*
X0627215Y0076682D01*
X0627152Y0076714D01*
X0627092Y0076750D01*
X0627034Y0076789D01*
X0626978Y0076831D01*
X0626924Y0076876D01*
X0626873Y0076924D01*
X0626825Y0076975D01*
X0626780Y0077029D01*
X0626738Y0077085D01*
X0626699Y0077143D01*
X0626663Y0077203D01*
X0626631Y0077266D01*
X0626602Y0077330D01*
X0626577Y0077395D01*
X0626556Y0077462D01*
X0626538Y0077530D01*
X0626525Y0077599D01*
X0626515Y0077668D01*
X0626509Y0077738D01*
X0626507Y0077808D01*
X0631282Y0077808D02*
X0631284Y0077878D01*
X0631290Y0077948D01*
X0631300Y0078017D01*
X0631313Y0078086D01*
X0631331Y0078154D01*
X0631352Y0078221D01*
X0631377Y0078286D01*
X0631406Y0078350D01*
X0631438Y0078413D01*
X0631474Y0078473D01*
X0631513Y0078531D01*
X0631555Y0078587D01*
X0631600Y0078641D01*
X0631648Y0078692D01*
X0631699Y0078740D01*
X0631753Y0078785D01*
X0631809Y0078827D01*
X0631867Y0078866D01*
X0631927Y0078902D01*
X0631990Y0078934D01*
X0632054Y0078963D01*
X0632119Y0078988D01*
X0632186Y0079009D01*
X0632254Y0079027D01*
X0632323Y0079040D01*
X0632392Y0079050D01*
X0632462Y0079056D01*
X0632532Y0079058D01*
X0632602Y0079056D01*
X0632672Y0079050D01*
X0632741Y0079040D01*
X0632810Y0079027D01*
X0632878Y0079009D01*
X0632945Y0078988D01*
X0633010Y0078963D01*
X0633074Y0078934D01*
X0633137Y0078902D01*
X0633197Y0078866D01*
X0633255Y0078827D01*
X0633311Y0078785D01*
X0633365Y0078740D01*
X0633416Y0078692D01*
X0633464Y0078641D01*
X0633509Y0078587D01*
X0633551Y0078531D01*
X0633590Y0078473D01*
X0633626Y0078413D01*
X0633658Y0078350D01*
X0633687Y0078286D01*
X0633712Y0078221D01*
X0633733Y0078154D01*
X0633751Y0078086D01*
X0633764Y0078017D01*
X0633774Y0077948D01*
X0633780Y0077878D01*
X0633782Y0077808D01*
X0633780Y0077738D01*
X0633774Y0077668D01*
X0633764Y0077599D01*
X0633751Y0077530D01*
X0633733Y0077462D01*
X0633712Y0077395D01*
X0633687Y0077330D01*
X0633658Y0077266D01*
X0633626Y0077203D01*
X0633590Y0077143D01*
X0633551Y0077085D01*
X0633509Y0077029D01*
X0633464Y0076975D01*
X0633416Y0076924D01*
X0633365Y0076876D01*
X0633311Y0076831D01*
X0633255Y0076789D01*
X0633197Y0076750D01*
X0633137Y0076714D01*
X0633074Y0076682D01*
X0633010Y0076653D01*
X0632945Y0076628D01*
X0632878Y0076607D01*
X0632810Y0076589D01*
X0632741Y0076576D01*
X0632672Y0076566D01*
X0632602Y0076560D01*
X0632532Y0076558D01*
X0632462Y0076560D01*
X0632392Y0076566D01*
X0632323Y0076576D01*
X0632254Y0076589D01*
X0632186Y0076607D01*
X0632119Y0076628D01*
X0632054Y0076653D01*
X0631990Y0076682D01*
X0631927Y0076714D01*
X0631867Y0076750D01*
X0631809Y0076789D01*
X0631753Y0076831D01*
X0631699Y0076876D01*
X0631648Y0076924D01*
X0631600Y0076975D01*
X0631555Y0077029D01*
X0631513Y0077085D01*
X0631474Y0077143D01*
X0631438Y0077203D01*
X0631406Y0077266D01*
X0631377Y0077330D01*
X0631352Y0077395D01*
X0631331Y0077462D01*
X0631313Y0077530D01*
X0631300Y0077599D01*
X0631290Y0077668D01*
X0631284Y0077738D01*
X0631282Y0077808D01*
X0631282Y0073033D02*
X0631284Y0073103D01*
X0631290Y0073173D01*
X0631300Y0073242D01*
X0631313Y0073311D01*
X0631331Y0073379D01*
X0631352Y0073446D01*
X0631377Y0073511D01*
X0631406Y0073575D01*
X0631438Y0073638D01*
X0631474Y0073698D01*
X0631513Y0073756D01*
X0631555Y0073812D01*
X0631600Y0073866D01*
X0631648Y0073917D01*
X0631699Y0073965D01*
X0631753Y0074010D01*
X0631809Y0074052D01*
X0631867Y0074091D01*
X0631927Y0074127D01*
X0631990Y0074159D01*
X0632054Y0074188D01*
X0632119Y0074213D01*
X0632186Y0074234D01*
X0632254Y0074252D01*
X0632323Y0074265D01*
X0632392Y0074275D01*
X0632462Y0074281D01*
X0632532Y0074283D01*
X0632602Y0074281D01*
X0632672Y0074275D01*
X0632741Y0074265D01*
X0632810Y0074252D01*
X0632878Y0074234D01*
X0632945Y0074213D01*
X0633010Y0074188D01*
X0633074Y0074159D01*
X0633137Y0074127D01*
X0633197Y0074091D01*
X0633255Y0074052D01*
X0633311Y0074010D01*
X0633365Y0073965D01*
X0633416Y0073917D01*
X0633464Y0073866D01*
X0633509Y0073812D01*
X0633551Y0073756D01*
X0633590Y0073698D01*
X0633626Y0073638D01*
X0633658Y0073575D01*
X0633687Y0073511D01*
X0633712Y0073446D01*
X0633733Y0073379D01*
X0633751Y0073311D01*
X0633764Y0073242D01*
X0633774Y0073173D01*
X0633780Y0073103D01*
X0633782Y0073033D01*
X0633780Y0072963D01*
X0633774Y0072893D01*
X0633764Y0072824D01*
X0633751Y0072755D01*
X0633733Y0072687D01*
X0633712Y0072620D01*
X0633687Y0072555D01*
X0633658Y0072491D01*
X0633626Y0072428D01*
X0633590Y0072368D01*
X0633551Y0072310D01*
X0633509Y0072254D01*
X0633464Y0072200D01*
X0633416Y0072149D01*
X0633365Y0072101D01*
X0633311Y0072056D01*
X0633255Y0072014D01*
X0633197Y0071975D01*
X0633137Y0071939D01*
X0633074Y0071907D01*
X0633010Y0071878D01*
X0632945Y0071853D01*
X0632878Y0071832D01*
X0632810Y0071814D01*
X0632741Y0071801D01*
X0632672Y0071791D01*
X0632602Y0071785D01*
X0632532Y0071783D01*
X0632462Y0071785D01*
X0632392Y0071791D01*
X0632323Y0071801D01*
X0632254Y0071814D01*
X0632186Y0071832D01*
X0632119Y0071853D01*
X0632054Y0071878D01*
X0631990Y0071907D01*
X0631927Y0071939D01*
X0631867Y0071975D01*
X0631809Y0072014D01*
X0631753Y0072056D01*
X0631699Y0072101D01*
X0631648Y0072149D01*
X0631600Y0072200D01*
X0631555Y0072254D01*
X0631513Y0072310D01*
X0631474Y0072368D01*
X0631438Y0072428D01*
X0631406Y0072491D01*
X0631377Y0072555D01*
X0631352Y0072620D01*
X0631331Y0072687D01*
X0631313Y0072755D01*
X0631300Y0072824D01*
X0631290Y0072893D01*
X0631284Y0072963D01*
X0631282Y0073033D01*
X0636057Y0073033D02*
X0636059Y0073103D01*
X0636065Y0073173D01*
X0636075Y0073242D01*
X0636088Y0073311D01*
X0636106Y0073379D01*
X0636127Y0073446D01*
X0636152Y0073511D01*
X0636181Y0073575D01*
X0636213Y0073638D01*
X0636249Y0073698D01*
X0636288Y0073756D01*
X0636330Y0073812D01*
X0636375Y0073866D01*
X0636423Y0073917D01*
X0636474Y0073965D01*
X0636528Y0074010D01*
X0636584Y0074052D01*
X0636642Y0074091D01*
X0636702Y0074127D01*
X0636765Y0074159D01*
X0636829Y0074188D01*
X0636894Y0074213D01*
X0636961Y0074234D01*
X0637029Y0074252D01*
X0637098Y0074265D01*
X0637167Y0074275D01*
X0637237Y0074281D01*
X0637307Y0074283D01*
X0637377Y0074281D01*
X0637447Y0074275D01*
X0637516Y0074265D01*
X0637585Y0074252D01*
X0637653Y0074234D01*
X0637720Y0074213D01*
X0637785Y0074188D01*
X0637849Y0074159D01*
X0637912Y0074127D01*
X0637972Y0074091D01*
X0638030Y0074052D01*
X0638086Y0074010D01*
X0638140Y0073965D01*
X0638191Y0073917D01*
X0638239Y0073866D01*
X0638284Y0073812D01*
X0638326Y0073756D01*
X0638365Y0073698D01*
X0638401Y0073638D01*
X0638433Y0073575D01*
X0638462Y0073511D01*
X0638487Y0073446D01*
X0638508Y0073379D01*
X0638526Y0073311D01*
X0638539Y0073242D01*
X0638549Y0073173D01*
X0638555Y0073103D01*
X0638557Y0073033D01*
X0638555Y0072963D01*
X0638549Y0072893D01*
X0638539Y0072824D01*
X0638526Y0072755D01*
X0638508Y0072687D01*
X0638487Y0072620D01*
X0638462Y0072555D01*
X0638433Y0072491D01*
X0638401Y0072428D01*
X0638365Y0072368D01*
X0638326Y0072310D01*
X0638284Y0072254D01*
X0638239Y0072200D01*
X0638191Y0072149D01*
X0638140Y0072101D01*
X0638086Y0072056D01*
X0638030Y0072014D01*
X0637972Y0071975D01*
X0637912Y0071939D01*
X0637849Y0071907D01*
X0637785Y0071878D01*
X0637720Y0071853D01*
X0637653Y0071832D01*
X0637585Y0071814D01*
X0637516Y0071801D01*
X0637447Y0071791D01*
X0637377Y0071785D01*
X0637307Y0071783D01*
X0637237Y0071785D01*
X0637167Y0071791D01*
X0637098Y0071801D01*
X0637029Y0071814D01*
X0636961Y0071832D01*
X0636894Y0071853D01*
X0636829Y0071878D01*
X0636765Y0071907D01*
X0636702Y0071939D01*
X0636642Y0071975D01*
X0636584Y0072014D01*
X0636528Y0072056D01*
X0636474Y0072101D01*
X0636423Y0072149D01*
X0636375Y0072200D01*
X0636330Y0072254D01*
X0636288Y0072310D01*
X0636249Y0072368D01*
X0636213Y0072428D01*
X0636181Y0072491D01*
X0636152Y0072555D01*
X0636127Y0072620D01*
X0636106Y0072687D01*
X0636088Y0072755D01*
X0636075Y0072824D01*
X0636065Y0072893D01*
X0636059Y0072963D01*
X0636057Y0073033D01*
X0636057Y0077808D02*
X0636059Y0077878D01*
X0636065Y0077948D01*
X0636075Y0078017D01*
X0636088Y0078086D01*
X0636106Y0078154D01*
X0636127Y0078221D01*
X0636152Y0078286D01*
X0636181Y0078350D01*
X0636213Y0078413D01*
X0636249Y0078473D01*
X0636288Y0078531D01*
X0636330Y0078587D01*
X0636375Y0078641D01*
X0636423Y0078692D01*
X0636474Y0078740D01*
X0636528Y0078785D01*
X0636584Y0078827D01*
X0636642Y0078866D01*
X0636702Y0078902D01*
X0636765Y0078934D01*
X0636829Y0078963D01*
X0636894Y0078988D01*
X0636961Y0079009D01*
X0637029Y0079027D01*
X0637098Y0079040D01*
X0637167Y0079050D01*
X0637237Y0079056D01*
X0637307Y0079058D01*
X0637377Y0079056D01*
X0637447Y0079050D01*
X0637516Y0079040D01*
X0637585Y0079027D01*
X0637653Y0079009D01*
X0637720Y0078988D01*
X0637785Y0078963D01*
X0637849Y0078934D01*
X0637912Y0078902D01*
X0637972Y0078866D01*
X0638030Y0078827D01*
X0638086Y0078785D01*
X0638140Y0078740D01*
X0638191Y0078692D01*
X0638239Y0078641D01*
X0638284Y0078587D01*
X0638326Y0078531D01*
X0638365Y0078473D01*
X0638401Y0078413D01*
X0638433Y0078350D01*
X0638462Y0078286D01*
X0638487Y0078221D01*
X0638508Y0078154D01*
X0638526Y0078086D01*
X0638539Y0078017D01*
X0638549Y0077948D01*
X0638555Y0077878D01*
X0638557Y0077808D01*
X0638555Y0077738D01*
X0638549Y0077668D01*
X0638539Y0077599D01*
X0638526Y0077530D01*
X0638508Y0077462D01*
X0638487Y0077395D01*
X0638462Y0077330D01*
X0638433Y0077266D01*
X0638401Y0077203D01*
X0638365Y0077143D01*
X0638326Y0077085D01*
X0638284Y0077029D01*
X0638239Y0076975D01*
X0638191Y0076924D01*
X0638140Y0076876D01*
X0638086Y0076831D01*
X0638030Y0076789D01*
X0637972Y0076750D01*
X0637912Y0076714D01*
X0637849Y0076682D01*
X0637785Y0076653D01*
X0637720Y0076628D01*
X0637653Y0076607D01*
X0637585Y0076589D01*
X0637516Y0076576D01*
X0637447Y0076566D01*
X0637377Y0076560D01*
X0637307Y0076558D01*
X0637237Y0076560D01*
X0637167Y0076566D01*
X0637098Y0076576D01*
X0637029Y0076589D01*
X0636961Y0076607D01*
X0636894Y0076628D01*
X0636829Y0076653D01*
X0636765Y0076682D01*
X0636702Y0076714D01*
X0636642Y0076750D01*
X0636584Y0076789D01*
X0636528Y0076831D01*
X0636474Y0076876D01*
X0636423Y0076924D01*
X0636375Y0076975D01*
X0636330Y0077029D01*
X0636288Y0077085D01*
X0636249Y0077143D01*
X0636213Y0077203D01*
X0636181Y0077266D01*
X0636152Y0077330D01*
X0636127Y0077395D01*
X0636106Y0077462D01*
X0636088Y0077530D01*
X0636075Y0077599D01*
X0636065Y0077668D01*
X0636059Y0077738D01*
X0636057Y0077808D01*
X0640832Y0077808D02*
X0640834Y0077878D01*
X0640840Y0077948D01*
X0640850Y0078017D01*
X0640863Y0078086D01*
X0640881Y0078154D01*
X0640902Y0078221D01*
X0640927Y0078286D01*
X0640956Y0078350D01*
X0640988Y0078413D01*
X0641024Y0078473D01*
X0641063Y0078531D01*
X0641105Y0078587D01*
X0641150Y0078641D01*
X0641198Y0078692D01*
X0641249Y0078740D01*
X0641303Y0078785D01*
X0641359Y0078827D01*
X0641417Y0078866D01*
X0641477Y0078902D01*
X0641540Y0078934D01*
X0641604Y0078963D01*
X0641669Y0078988D01*
X0641736Y0079009D01*
X0641804Y0079027D01*
X0641873Y0079040D01*
X0641942Y0079050D01*
X0642012Y0079056D01*
X0642082Y0079058D01*
X0642152Y0079056D01*
X0642222Y0079050D01*
X0642291Y0079040D01*
X0642360Y0079027D01*
X0642428Y0079009D01*
X0642495Y0078988D01*
X0642560Y0078963D01*
X0642624Y0078934D01*
X0642687Y0078902D01*
X0642747Y0078866D01*
X0642805Y0078827D01*
X0642861Y0078785D01*
X0642915Y0078740D01*
X0642966Y0078692D01*
X0643014Y0078641D01*
X0643059Y0078587D01*
X0643101Y0078531D01*
X0643140Y0078473D01*
X0643176Y0078413D01*
X0643208Y0078350D01*
X0643237Y0078286D01*
X0643262Y0078221D01*
X0643283Y0078154D01*
X0643301Y0078086D01*
X0643314Y0078017D01*
X0643324Y0077948D01*
X0643330Y0077878D01*
X0643332Y0077808D01*
X0643330Y0077738D01*
X0643324Y0077668D01*
X0643314Y0077599D01*
X0643301Y0077530D01*
X0643283Y0077462D01*
X0643262Y0077395D01*
X0643237Y0077330D01*
X0643208Y0077266D01*
X0643176Y0077203D01*
X0643140Y0077143D01*
X0643101Y0077085D01*
X0643059Y0077029D01*
X0643014Y0076975D01*
X0642966Y0076924D01*
X0642915Y0076876D01*
X0642861Y0076831D01*
X0642805Y0076789D01*
X0642747Y0076750D01*
X0642687Y0076714D01*
X0642624Y0076682D01*
X0642560Y0076653D01*
X0642495Y0076628D01*
X0642428Y0076607D01*
X0642360Y0076589D01*
X0642291Y0076576D01*
X0642222Y0076566D01*
X0642152Y0076560D01*
X0642082Y0076558D01*
X0642012Y0076560D01*
X0641942Y0076566D01*
X0641873Y0076576D01*
X0641804Y0076589D01*
X0641736Y0076607D01*
X0641669Y0076628D01*
X0641604Y0076653D01*
X0641540Y0076682D01*
X0641477Y0076714D01*
X0641417Y0076750D01*
X0641359Y0076789D01*
X0641303Y0076831D01*
X0641249Y0076876D01*
X0641198Y0076924D01*
X0641150Y0076975D01*
X0641105Y0077029D01*
X0641063Y0077085D01*
X0641024Y0077143D01*
X0640988Y0077203D01*
X0640956Y0077266D01*
X0640927Y0077330D01*
X0640902Y0077395D01*
X0640881Y0077462D01*
X0640863Y0077530D01*
X0640850Y0077599D01*
X0640840Y0077668D01*
X0640834Y0077738D01*
X0640832Y0077808D01*
X0640832Y0073033D02*
X0640834Y0073103D01*
X0640840Y0073173D01*
X0640850Y0073242D01*
X0640863Y0073311D01*
X0640881Y0073379D01*
X0640902Y0073446D01*
X0640927Y0073511D01*
X0640956Y0073575D01*
X0640988Y0073638D01*
X0641024Y0073698D01*
X0641063Y0073756D01*
X0641105Y0073812D01*
X0641150Y0073866D01*
X0641198Y0073917D01*
X0641249Y0073965D01*
X0641303Y0074010D01*
X0641359Y0074052D01*
X0641417Y0074091D01*
X0641477Y0074127D01*
X0641540Y0074159D01*
X0641604Y0074188D01*
X0641669Y0074213D01*
X0641736Y0074234D01*
X0641804Y0074252D01*
X0641873Y0074265D01*
X0641942Y0074275D01*
X0642012Y0074281D01*
X0642082Y0074283D01*
X0642152Y0074281D01*
X0642222Y0074275D01*
X0642291Y0074265D01*
X0642360Y0074252D01*
X0642428Y0074234D01*
X0642495Y0074213D01*
X0642560Y0074188D01*
X0642624Y0074159D01*
X0642687Y0074127D01*
X0642747Y0074091D01*
X0642805Y0074052D01*
X0642861Y0074010D01*
X0642915Y0073965D01*
X0642966Y0073917D01*
X0643014Y0073866D01*
X0643059Y0073812D01*
X0643101Y0073756D01*
X0643140Y0073698D01*
X0643176Y0073638D01*
X0643208Y0073575D01*
X0643237Y0073511D01*
X0643262Y0073446D01*
X0643283Y0073379D01*
X0643301Y0073311D01*
X0643314Y0073242D01*
X0643324Y0073173D01*
X0643330Y0073103D01*
X0643332Y0073033D01*
X0643330Y0072963D01*
X0643324Y0072893D01*
X0643314Y0072824D01*
X0643301Y0072755D01*
X0643283Y0072687D01*
X0643262Y0072620D01*
X0643237Y0072555D01*
X0643208Y0072491D01*
X0643176Y0072428D01*
X0643140Y0072368D01*
X0643101Y0072310D01*
X0643059Y0072254D01*
X0643014Y0072200D01*
X0642966Y0072149D01*
X0642915Y0072101D01*
X0642861Y0072056D01*
X0642805Y0072014D01*
X0642747Y0071975D01*
X0642687Y0071939D01*
X0642624Y0071907D01*
X0642560Y0071878D01*
X0642495Y0071853D01*
X0642428Y0071832D01*
X0642360Y0071814D01*
X0642291Y0071801D01*
X0642222Y0071791D01*
X0642152Y0071785D01*
X0642082Y0071783D01*
X0642012Y0071785D01*
X0641942Y0071791D01*
X0641873Y0071801D01*
X0641804Y0071814D01*
X0641736Y0071832D01*
X0641669Y0071853D01*
X0641604Y0071878D01*
X0641540Y0071907D01*
X0641477Y0071939D01*
X0641417Y0071975D01*
X0641359Y0072014D01*
X0641303Y0072056D01*
X0641249Y0072101D01*
X0641198Y0072149D01*
X0641150Y0072200D01*
X0641105Y0072254D01*
X0641063Y0072310D01*
X0641024Y0072368D01*
X0640988Y0072428D01*
X0640956Y0072491D01*
X0640927Y0072555D01*
X0640902Y0072620D01*
X0640881Y0072687D01*
X0640863Y0072755D01*
X0640850Y0072824D01*
X0640840Y0072893D01*
X0640834Y0072963D01*
X0640832Y0073033D01*
X0645607Y0073033D02*
X0645609Y0073103D01*
X0645615Y0073173D01*
X0645625Y0073242D01*
X0645638Y0073311D01*
X0645656Y0073379D01*
X0645677Y0073446D01*
X0645702Y0073511D01*
X0645731Y0073575D01*
X0645763Y0073638D01*
X0645799Y0073698D01*
X0645838Y0073756D01*
X0645880Y0073812D01*
X0645925Y0073866D01*
X0645973Y0073917D01*
X0646024Y0073965D01*
X0646078Y0074010D01*
X0646134Y0074052D01*
X0646192Y0074091D01*
X0646252Y0074127D01*
X0646315Y0074159D01*
X0646379Y0074188D01*
X0646444Y0074213D01*
X0646511Y0074234D01*
X0646579Y0074252D01*
X0646648Y0074265D01*
X0646717Y0074275D01*
X0646787Y0074281D01*
X0646857Y0074283D01*
X0646927Y0074281D01*
X0646997Y0074275D01*
X0647066Y0074265D01*
X0647135Y0074252D01*
X0647203Y0074234D01*
X0647270Y0074213D01*
X0647335Y0074188D01*
X0647399Y0074159D01*
X0647462Y0074127D01*
X0647522Y0074091D01*
X0647580Y0074052D01*
X0647636Y0074010D01*
X0647690Y0073965D01*
X0647741Y0073917D01*
X0647789Y0073866D01*
X0647834Y0073812D01*
X0647876Y0073756D01*
X0647915Y0073698D01*
X0647951Y0073638D01*
X0647983Y0073575D01*
X0648012Y0073511D01*
X0648037Y0073446D01*
X0648058Y0073379D01*
X0648076Y0073311D01*
X0648089Y0073242D01*
X0648099Y0073173D01*
X0648105Y0073103D01*
X0648107Y0073033D01*
X0648105Y0072963D01*
X0648099Y0072893D01*
X0648089Y0072824D01*
X0648076Y0072755D01*
X0648058Y0072687D01*
X0648037Y0072620D01*
X0648012Y0072555D01*
X0647983Y0072491D01*
X0647951Y0072428D01*
X0647915Y0072368D01*
X0647876Y0072310D01*
X0647834Y0072254D01*
X0647789Y0072200D01*
X0647741Y0072149D01*
X0647690Y0072101D01*
X0647636Y0072056D01*
X0647580Y0072014D01*
X0647522Y0071975D01*
X0647462Y0071939D01*
X0647399Y0071907D01*
X0647335Y0071878D01*
X0647270Y0071853D01*
X0647203Y0071832D01*
X0647135Y0071814D01*
X0647066Y0071801D01*
X0646997Y0071791D01*
X0646927Y0071785D01*
X0646857Y0071783D01*
X0646787Y0071785D01*
X0646717Y0071791D01*
X0646648Y0071801D01*
X0646579Y0071814D01*
X0646511Y0071832D01*
X0646444Y0071853D01*
X0646379Y0071878D01*
X0646315Y0071907D01*
X0646252Y0071939D01*
X0646192Y0071975D01*
X0646134Y0072014D01*
X0646078Y0072056D01*
X0646024Y0072101D01*
X0645973Y0072149D01*
X0645925Y0072200D01*
X0645880Y0072254D01*
X0645838Y0072310D01*
X0645799Y0072368D01*
X0645763Y0072428D01*
X0645731Y0072491D01*
X0645702Y0072555D01*
X0645677Y0072620D01*
X0645656Y0072687D01*
X0645638Y0072755D01*
X0645625Y0072824D01*
X0645615Y0072893D01*
X0645609Y0072963D01*
X0645607Y0073033D01*
X0645607Y0077808D02*
X0645609Y0077878D01*
X0645615Y0077948D01*
X0645625Y0078017D01*
X0645638Y0078086D01*
X0645656Y0078154D01*
X0645677Y0078221D01*
X0645702Y0078286D01*
X0645731Y0078350D01*
X0645763Y0078413D01*
X0645799Y0078473D01*
X0645838Y0078531D01*
X0645880Y0078587D01*
X0645925Y0078641D01*
X0645973Y0078692D01*
X0646024Y0078740D01*
X0646078Y0078785D01*
X0646134Y0078827D01*
X0646192Y0078866D01*
X0646252Y0078902D01*
X0646315Y0078934D01*
X0646379Y0078963D01*
X0646444Y0078988D01*
X0646511Y0079009D01*
X0646579Y0079027D01*
X0646648Y0079040D01*
X0646717Y0079050D01*
X0646787Y0079056D01*
X0646857Y0079058D01*
X0646927Y0079056D01*
X0646997Y0079050D01*
X0647066Y0079040D01*
X0647135Y0079027D01*
X0647203Y0079009D01*
X0647270Y0078988D01*
X0647335Y0078963D01*
X0647399Y0078934D01*
X0647462Y0078902D01*
X0647522Y0078866D01*
X0647580Y0078827D01*
X0647636Y0078785D01*
X0647690Y0078740D01*
X0647741Y0078692D01*
X0647789Y0078641D01*
X0647834Y0078587D01*
X0647876Y0078531D01*
X0647915Y0078473D01*
X0647951Y0078413D01*
X0647983Y0078350D01*
X0648012Y0078286D01*
X0648037Y0078221D01*
X0648058Y0078154D01*
X0648076Y0078086D01*
X0648089Y0078017D01*
X0648099Y0077948D01*
X0648105Y0077878D01*
X0648107Y0077808D01*
X0648105Y0077738D01*
X0648099Y0077668D01*
X0648089Y0077599D01*
X0648076Y0077530D01*
X0648058Y0077462D01*
X0648037Y0077395D01*
X0648012Y0077330D01*
X0647983Y0077266D01*
X0647951Y0077203D01*
X0647915Y0077143D01*
X0647876Y0077085D01*
X0647834Y0077029D01*
X0647789Y0076975D01*
X0647741Y0076924D01*
X0647690Y0076876D01*
X0647636Y0076831D01*
X0647580Y0076789D01*
X0647522Y0076750D01*
X0647462Y0076714D01*
X0647399Y0076682D01*
X0647335Y0076653D01*
X0647270Y0076628D01*
X0647203Y0076607D01*
X0647135Y0076589D01*
X0647066Y0076576D01*
X0646997Y0076566D01*
X0646927Y0076560D01*
X0646857Y0076558D01*
X0646787Y0076560D01*
X0646717Y0076566D01*
X0646648Y0076576D01*
X0646579Y0076589D01*
X0646511Y0076607D01*
X0646444Y0076628D01*
X0646379Y0076653D01*
X0646315Y0076682D01*
X0646252Y0076714D01*
X0646192Y0076750D01*
X0646134Y0076789D01*
X0646078Y0076831D01*
X0646024Y0076876D01*
X0645973Y0076924D01*
X0645925Y0076975D01*
X0645880Y0077029D01*
X0645838Y0077085D01*
X0645799Y0077143D01*
X0645763Y0077203D01*
X0645731Y0077266D01*
X0645702Y0077330D01*
X0645677Y0077395D01*
X0645656Y0077462D01*
X0645638Y0077530D01*
X0645625Y0077599D01*
X0645615Y0077668D01*
X0645609Y0077738D01*
X0645607Y0077808D01*
X0650382Y0077808D02*
X0650384Y0077878D01*
X0650390Y0077948D01*
X0650400Y0078017D01*
X0650413Y0078086D01*
X0650431Y0078154D01*
X0650452Y0078221D01*
X0650477Y0078286D01*
X0650506Y0078350D01*
X0650538Y0078413D01*
X0650574Y0078473D01*
X0650613Y0078531D01*
X0650655Y0078587D01*
X0650700Y0078641D01*
X0650748Y0078692D01*
X0650799Y0078740D01*
X0650853Y0078785D01*
X0650909Y0078827D01*
X0650967Y0078866D01*
X0651027Y0078902D01*
X0651090Y0078934D01*
X0651154Y0078963D01*
X0651219Y0078988D01*
X0651286Y0079009D01*
X0651354Y0079027D01*
X0651423Y0079040D01*
X0651492Y0079050D01*
X0651562Y0079056D01*
X0651632Y0079058D01*
X0651702Y0079056D01*
X0651772Y0079050D01*
X0651841Y0079040D01*
X0651910Y0079027D01*
X0651978Y0079009D01*
X0652045Y0078988D01*
X0652110Y0078963D01*
X0652174Y0078934D01*
X0652237Y0078902D01*
X0652297Y0078866D01*
X0652355Y0078827D01*
X0652411Y0078785D01*
X0652465Y0078740D01*
X0652516Y0078692D01*
X0652564Y0078641D01*
X0652609Y0078587D01*
X0652651Y0078531D01*
X0652690Y0078473D01*
X0652726Y0078413D01*
X0652758Y0078350D01*
X0652787Y0078286D01*
X0652812Y0078221D01*
X0652833Y0078154D01*
X0652851Y0078086D01*
X0652864Y0078017D01*
X0652874Y0077948D01*
X0652880Y0077878D01*
X0652882Y0077808D01*
X0652880Y0077738D01*
X0652874Y0077668D01*
X0652864Y0077599D01*
X0652851Y0077530D01*
X0652833Y0077462D01*
X0652812Y0077395D01*
X0652787Y0077330D01*
X0652758Y0077266D01*
X0652726Y0077203D01*
X0652690Y0077143D01*
X0652651Y0077085D01*
X0652609Y0077029D01*
X0652564Y0076975D01*
X0652516Y0076924D01*
X0652465Y0076876D01*
X0652411Y0076831D01*
X0652355Y0076789D01*
X0652297Y0076750D01*
X0652237Y0076714D01*
X0652174Y0076682D01*
X0652110Y0076653D01*
X0652045Y0076628D01*
X0651978Y0076607D01*
X0651910Y0076589D01*
X0651841Y0076576D01*
X0651772Y0076566D01*
X0651702Y0076560D01*
X0651632Y0076558D01*
X0651562Y0076560D01*
X0651492Y0076566D01*
X0651423Y0076576D01*
X0651354Y0076589D01*
X0651286Y0076607D01*
X0651219Y0076628D01*
X0651154Y0076653D01*
X0651090Y0076682D01*
X0651027Y0076714D01*
X0650967Y0076750D01*
X0650909Y0076789D01*
X0650853Y0076831D01*
X0650799Y0076876D01*
X0650748Y0076924D01*
X0650700Y0076975D01*
X0650655Y0077029D01*
X0650613Y0077085D01*
X0650574Y0077143D01*
X0650538Y0077203D01*
X0650506Y0077266D01*
X0650477Y0077330D01*
X0650452Y0077395D01*
X0650431Y0077462D01*
X0650413Y0077530D01*
X0650400Y0077599D01*
X0650390Y0077668D01*
X0650384Y0077738D01*
X0650382Y0077808D01*
X0650382Y0073033D02*
X0650384Y0073103D01*
X0650390Y0073173D01*
X0650400Y0073242D01*
X0650413Y0073311D01*
X0650431Y0073379D01*
X0650452Y0073446D01*
X0650477Y0073511D01*
X0650506Y0073575D01*
X0650538Y0073638D01*
X0650574Y0073698D01*
X0650613Y0073756D01*
X0650655Y0073812D01*
X0650700Y0073866D01*
X0650748Y0073917D01*
X0650799Y0073965D01*
X0650853Y0074010D01*
X0650909Y0074052D01*
X0650967Y0074091D01*
X0651027Y0074127D01*
X0651090Y0074159D01*
X0651154Y0074188D01*
X0651219Y0074213D01*
X0651286Y0074234D01*
X0651354Y0074252D01*
X0651423Y0074265D01*
X0651492Y0074275D01*
X0651562Y0074281D01*
X0651632Y0074283D01*
X0651702Y0074281D01*
X0651772Y0074275D01*
X0651841Y0074265D01*
X0651910Y0074252D01*
X0651978Y0074234D01*
X0652045Y0074213D01*
X0652110Y0074188D01*
X0652174Y0074159D01*
X0652237Y0074127D01*
X0652297Y0074091D01*
X0652355Y0074052D01*
X0652411Y0074010D01*
X0652465Y0073965D01*
X0652516Y0073917D01*
X0652564Y0073866D01*
X0652609Y0073812D01*
X0652651Y0073756D01*
X0652690Y0073698D01*
X0652726Y0073638D01*
X0652758Y0073575D01*
X0652787Y0073511D01*
X0652812Y0073446D01*
X0652833Y0073379D01*
X0652851Y0073311D01*
X0652864Y0073242D01*
X0652874Y0073173D01*
X0652880Y0073103D01*
X0652882Y0073033D01*
X0652880Y0072963D01*
X0652874Y0072893D01*
X0652864Y0072824D01*
X0652851Y0072755D01*
X0652833Y0072687D01*
X0652812Y0072620D01*
X0652787Y0072555D01*
X0652758Y0072491D01*
X0652726Y0072428D01*
X0652690Y0072368D01*
X0652651Y0072310D01*
X0652609Y0072254D01*
X0652564Y0072200D01*
X0652516Y0072149D01*
X0652465Y0072101D01*
X0652411Y0072056D01*
X0652355Y0072014D01*
X0652297Y0071975D01*
X0652237Y0071939D01*
X0652174Y0071907D01*
X0652110Y0071878D01*
X0652045Y0071853D01*
X0651978Y0071832D01*
X0651910Y0071814D01*
X0651841Y0071801D01*
X0651772Y0071791D01*
X0651702Y0071785D01*
X0651632Y0071783D01*
X0651562Y0071785D01*
X0651492Y0071791D01*
X0651423Y0071801D01*
X0651354Y0071814D01*
X0651286Y0071832D01*
X0651219Y0071853D01*
X0651154Y0071878D01*
X0651090Y0071907D01*
X0651027Y0071939D01*
X0650967Y0071975D01*
X0650909Y0072014D01*
X0650853Y0072056D01*
X0650799Y0072101D01*
X0650748Y0072149D01*
X0650700Y0072200D01*
X0650655Y0072254D01*
X0650613Y0072310D01*
X0650574Y0072368D01*
X0650538Y0072428D01*
X0650506Y0072491D01*
X0650477Y0072555D01*
X0650452Y0072620D01*
X0650431Y0072687D01*
X0650413Y0072755D01*
X0650400Y0072824D01*
X0650390Y0072893D01*
X0650384Y0072963D01*
X0650382Y0073033D01*
X0655157Y0073033D02*
X0655159Y0073103D01*
X0655165Y0073173D01*
X0655175Y0073242D01*
X0655188Y0073311D01*
X0655206Y0073379D01*
X0655227Y0073446D01*
X0655252Y0073511D01*
X0655281Y0073575D01*
X0655313Y0073638D01*
X0655349Y0073698D01*
X0655388Y0073756D01*
X0655430Y0073812D01*
X0655475Y0073866D01*
X0655523Y0073917D01*
X0655574Y0073965D01*
X0655628Y0074010D01*
X0655684Y0074052D01*
X0655742Y0074091D01*
X0655802Y0074127D01*
X0655865Y0074159D01*
X0655929Y0074188D01*
X0655994Y0074213D01*
X0656061Y0074234D01*
X0656129Y0074252D01*
X0656198Y0074265D01*
X0656267Y0074275D01*
X0656337Y0074281D01*
X0656407Y0074283D01*
X0656477Y0074281D01*
X0656547Y0074275D01*
X0656616Y0074265D01*
X0656685Y0074252D01*
X0656753Y0074234D01*
X0656820Y0074213D01*
X0656885Y0074188D01*
X0656949Y0074159D01*
X0657012Y0074127D01*
X0657072Y0074091D01*
X0657130Y0074052D01*
X0657186Y0074010D01*
X0657240Y0073965D01*
X0657291Y0073917D01*
X0657339Y0073866D01*
X0657384Y0073812D01*
X0657426Y0073756D01*
X0657465Y0073698D01*
X0657501Y0073638D01*
X0657533Y0073575D01*
X0657562Y0073511D01*
X0657587Y0073446D01*
X0657608Y0073379D01*
X0657626Y0073311D01*
X0657639Y0073242D01*
X0657649Y0073173D01*
X0657655Y0073103D01*
X0657657Y0073033D01*
X0657655Y0072963D01*
X0657649Y0072893D01*
X0657639Y0072824D01*
X0657626Y0072755D01*
X0657608Y0072687D01*
X0657587Y0072620D01*
X0657562Y0072555D01*
X0657533Y0072491D01*
X0657501Y0072428D01*
X0657465Y0072368D01*
X0657426Y0072310D01*
X0657384Y0072254D01*
X0657339Y0072200D01*
X0657291Y0072149D01*
X0657240Y0072101D01*
X0657186Y0072056D01*
X0657130Y0072014D01*
X0657072Y0071975D01*
X0657012Y0071939D01*
X0656949Y0071907D01*
X0656885Y0071878D01*
X0656820Y0071853D01*
X0656753Y0071832D01*
X0656685Y0071814D01*
X0656616Y0071801D01*
X0656547Y0071791D01*
X0656477Y0071785D01*
X0656407Y0071783D01*
X0656337Y0071785D01*
X0656267Y0071791D01*
X0656198Y0071801D01*
X0656129Y0071814D01*
X0656061Y0071832D01*
X0655994Y0071853D01*
X0655929Y0071878D01*
X0655865Y0071907D01*
X0655802Y0071939D01*
X0655742Y0071975D01*
X0655684Y0072014D01*
X0655628Y0072056D01*
X0655574Y0072101D01*
X0655523Y0072149D01*
X0655475Y0072200D01*
X0655430Y0072254D01*
X0655388Y0072310D01*
X0655349Y0072368D01*
X0655313Y0072428D01*
X0655281Y0072491D01*
X0655252Y0072555D01*
X0655227Y0072620D01*
X0655206Y0072687D01*
X0655188Y0072755D01*
X0655175Y0072824D01*
X0655165Y0072893D01*
X0655159Y0072963D01*
X0655157Y0073033D01*
X0655157Y0077808D02*
X0655159Y0077878D01*
X0655165Y0077948D01*
X0655175Y0078017D01*
X0655188Y0078086D01*
X0655206Y0078154D01*
X0655227Y0078221D01*
X0655252Y0078286D01*
X0655281Y0078350D01*
X0655313Y0078413D01*
X0655349Y0078473D01*
X0655388Y0078531D01*
X0655430Y0078587D01*
X0655475Y0078641D01*
X0655523Y0078692D01*
X0655574Y0078740D01*
X0655628Y0078785D01*
X0655684Y0078827D01*
X0655742Y0078866D01*
X0655802Y0078902D01*
X0655865Y0078934D01*
X0655929Y0078963D01*
X0655994Y0078988D01*
X0656061Y0079009D01*
X0656129Y0079027D01*
X0656198Y0079040D01*
X0656267Y0079050D01*
X0656337Y0079056D01*
X0656407Y0079058D01*
X0656477Y0079056D01*
X0656547Y0079050D01*
X0656616Y0079040D01*
X0656685Y0079027D01*
X0656753Y0079009D01*
X0656820Y0078988D01*
X0656885Y0078963D01*
X0656949Y0078934D01*
X0657012Y0078902D01*
X0657072Y0078866D01*
X0657130Y0078827D01*
X0657186Y0078785D01*
X0657240Y0078740D01*
X0657291Y0078692D01*
X0657339Y0078641D01*
X0657384Y0078587D01*
X0657426Y0078531D01*
X0657465Y0078473D01*
X0657501Y0078413D01*
X0657533Y0078350D01*
X0657562Y0078286D01*
X0657587Y0078221D01*
X0657608Y0078154D01*
X0657626Y0078086D01*
X0657639Y0078017D01*
X0657649Y0077948D01*
X0657655Y0077878D01*
X0657657Y0077808D01*
X0657655Y0077738D01*
X0657649Y0077668D01*
X0657639Y0077599D01*
X0657626Y0077530D01*
X0657608Y0077462D01*
X0657587Y0077395D01*
X0657562Y0077330D01*
X0657533Y0077266D01*
X0657501Y0077203D01*
X0657465Y0077143D01*
X0657426Y0077085D01*
X0657384Y0077029D01*
X0657339Y0076975D01*
X0657291Y0076924D01*
X0657240Y0076876D01*
X0657186Y0076831D01*
X0657130Y0076789D01*
X0657072Y0076750D01*
X0657012Y0076714D01*
X0656949Y0076682D01*
X0656885Y0076653D01*
X0656820Y0076628D01*
X0656753Y0076607D01*
X0656685Y0076589D01*
X0656616Y0076576D01*
X0656547Y0076566D01*
X0656477Y0076560D01*
X0656407Y0076558D01*
X0656337Y0076560D01*
X0656267Y0076566D01*
X0656198Y0076576D01*
X0656129Y0076589D01*
X0656061Y0076607D01*
X0655994Y0076628D01*
X0655929Y0076653D01*
X0655865Y0076682D01*
X0655802Y0076714D01*
X0655742Y0076750D01*
X0655684Y0076789D01*
X0655628Y0076831D01*
X0655574Y0076876D01*
X0655523Y0076924D01*
X0655475Y0076975D01*
X0655430Y0077029D01*
X0655388Y0077085D01*
X0655349Y0077143D01*
X0655313Y0077203D01*
X0655281Y0077266D01*
X0655252Y0077330D01*
X0655227Y0077395D01*
X0655206Y0077462D01*
X0655188Y0077530D01*
X0655175Y0077599D01*
X0655165Y0077668D01*
X0655159Y0077738D01*
X0655157Y0077808D01*
X0659932Y0077808D02*
X0659934Y0077878D01*
X0659940Y0077948D01*
X0659950Y0078017D01*
X0659963Y0078086D01*
X0659981Y0078154D01*
X0660002Y0078221D01*
X0660027Y0078286D01*
X0660056Y0078350D01*
X0660088Y0078413D01*
X0660124Y0078473D01*
X0660163Y0078531D01*
X0660205Y0078587D01*
X0660250Y0078641D01*
X0660298Y0078692D01*
X0660349Y0078740D01*
X0660403Y0078785D01*
X0660459Y0078827D01*
X0660517Y0078866D01*
X0660577Y0078902D01*
X0660640Y0078934D01*
X0660704Y0078963D01*
X0660769Y0078988D01*
X0660836Y0079009D01*
X0660904Y0079027D01*
X0660973Y0079040D01*
X0661042Y0079050D01*
X0661112Y0079056D01*
X0661182Y0079058D01*
X0661252Y0079056D01*
X0661322Y0079050D01*
X0661391Y0079040D01*
X0661460Y0079027D01*
X0661528Y0079009D01*
X0661595Y0078988D01*
X0661660Y0078963D01*
X0661724Y0078934D01*
X0661787Y0078902D01*
X0661847Y0078866D01*
X0661905Y0078827D01*
X0661961Y0078785D01*
X0662015Y0078740D01*
X0662066Y0078692D01*
X0662114Y0078641D01*
X0662159Y0078587D01*
X0662201Y0078531D01*
X0662240Y0078473D01*
X0662276Y0078413D01*
X0662308Y0078350D01*
X0662337Y0078286D01*
X0662362Y0078221D01*
X0662383Y0078154D01*
X0662401Y0078086D01*
X0662414Y0078017D01*
X0662424Y0077948D01*
X0662430Y0077878D01*
X0662432Y0077808D01*
X0662430Y0077738D01*
X0662424Y0077668D01*
X0662414Y0077599D01*
X0662401Y0077530D01*
X0662383Y0077462D01*
X0662362Y0077395D01*
X0662337Y0077330D01*
X0662308Y0077266D01*
X0662276Y0077203D01*
X0662240Y0077143D01*
X0662201Y0077085D01*
X0662159Y0077029D01*
X0662114Y0076975D01*
X0662066Y0076924D01*
X0662015Y0076876D01*
X0661961Y0076831D01*
X0661905Y0076789D01*
X0661847Y0076750D01*
X0661787Y0076714D01*
X0661724Y0076682D01*
X0661660Y0076653D01*
X0661595Y0076628D01*
X0661528Y0076607D01*
X0661460Y0076589D01*
X0661391Y0076576D01*
X0661322Y0076566D01*
X0661252Y0076560D01*
X0661182Y0076558D01*
X0661112Y0076560D01*
X0661042Y0076566D01*
X0660973Y0076576D01*
X0660904Y0076589D01*
X0660836Y0076607D01*
X0660769Y0076628D01*
X0660704Y0076653D01*
X0660640Y0076682D01*
X0660577Y0076714D01*
X0660517Y0076750D01*
X0660459Y0076789D01*
X0660403Y0076831D01*
X0660349Y0076876D01*
X0660298Y0076924D01*
X0660250Y0076975D01*
X0660205Y0077029D01*
X0660163Y0077085D01*
X0660124Y0077143D01*
X0660088Y0077203D01*
X0660056Y0077266D01*
X0660027Y0077330D01*
X0660002Y0077395D01*
X0659981Y0077462D01*
X0659963Y0077530D01*
X0659950Y0077599D01*
X0659940Y0077668D01*
X0659934Y0077738D01*
X0659932Y0077808D01*
X0659932Y0073033D02*
X0659934Y0073103D01*
X0659940Y0073173D01*
X0659950Y0073242D01*
X0659963Y0073311D01*
X0659981Y0073379D01*
X0660002Y0073446D01*
X0660027Y0073511D01*
X0660056Y0073575D01*
X0660088Y0073638D01*
X0660124Y0073698D01*
X0660163Y0073756D01*
X0660205Y0073812D01*
X0660250Y0073866D01*
X0660298Y0073917D01*
X0660349Y0073965D01*
X0660403Y0074010D01*
X0660459Y0074052D01*
X0660517Y0074091D01*
X0660577Y0074127D01*
X0660640Y0074159D01*
X0660704Y0074188D01*
X0660769Y0074213D01*
X0660836Y0074234D01*
X0660904Y0074252D01*
X0660973Y0074265D01*
X0661042Y0074275D01*
X0661112Y0074281D01*
X0661182Y0074283D01*
X0661252Y0074281D01*
X0661322Y0074275D01*
X0661391Y0074265D01*
X0661460Y0074252D01*
X0661528Y0074234D01*
X0661595Y0074213D01*
X0661660Y0074188D01*
X0661724Y0074159D01*
X0661787Y0074127D01*
X0661847Y0074091D01*
X0661905Y0074052D01*
X0661961Y0074010D01*
X0662015Y0073965D01*
X0662066Y0073917D01*
X0662114Y0073866D01*
X0662159Y0073812D01*
X0662201Y0073756D01*
X0662240Y0073698D01*
X0662276Y0073638D01*
X0662308Y0073575D01*
X0662337Y0073511D01*
X0662362Y0073446D01*
X0662383Y0073379D01*
X0662401Y0073311D01*
X0662414Y0073242D01*
X0662424Y0073173D01*
X0662430Y0073103D01*
X0662432Y0073033D01*
X0662430Y0072963D01*
X0662424Y0072893D01*
X0662414Y0072824D01*
X0662401Y0072755D01*
X0662383Y0072687D01*
X0662362Y0072620D01*
X0662337Y0072555D01*
X0662308Y0072491D01*
X0662276Y0072428D01*
X0662240Y0072368D01*
X0662201Y0072310D01*
X0662159Y0072254D01*
X0662114Y0072200D01*
X0662066Y0072149D01*
X0662015Y0072101D01*
X0661961Y0072056D01*
X0661905Y0072014D01*
X0661847Y0071975D01*
X0661787Y0071939D01*
X0661724Y0071907D01*
X0661660Y0071878D01*
X0661595Y0071853D01*
X0661528Y0071832D01*
X0661460Y0071814D01*
X0661391Y0071801D01*
X0661322Y0071791D01*
X0661252Y0071785D01*
X0661182Y0071783D01*
X0661112Y0071785D01*
X0661042Y0071791D01*
X0660973Y0071801D01*
X0660904Y0071814D01*
X0660836Y0071832D01*
X0660769Y0071853D01*
X0660704Y0071878D01*
X0660640Y0071907D01*
X0660577Y0071939D01*
X0660517Y0071975D01*
X0660459Y0072014D01*
X0660403Y0072056D01*
X0660349Y0072101D01*
X0660298Y0072149D01*
X0660250Y0072200D01*
X0660205Y0072254D01*
X0660163Y0072310D01*
X0660124Y0072368D01*
X0660088Y0072428D01*
X0660056Y0072491D01*
X0660027Y0072555D01*
X0660002Y0072620D01*
X0659981Y0072687D01*
X0659963Y0072755D01*
X0659950Y0072824D01*
X0659940Y0072893D01*
X0659934Y0072963D01*
X0659932Y0073033D01*
X0664707Y0073033D02*
X0664709Y0073103D01*
X0664715Y0073173D01*
X0664725Y0073242D01*
X0664738Y0073311D01*
X0664756Y0073379D01*
X0664777Y0073446D01*
X0664802Y0073511D01*
X0664831Y0073575D01*
X0664863Y0073638D01*
X0664899Y0073698D01*
X0664938Y0073756D01*
X0664980Y0073812D01*
X0665025Y0073866D01*
X0665073Y0073917D01*
X0665124Y0073965D01*
X0665178Y0074010D01*
X0665234Y0074052D01*
X0665292Y0074091D01*
X0665352Y0074127D01*
X0665415Y0074159D01*
X0665479Y0074188D01*
X0665544Y0074213D01*
X0665611Y0074234D01*
X0665679Y0074252D01*
X0665748Y0074265D01*
X0665817Y0074275D01*
X0665887Y0074281D01*
X0665957Y0074283D01*
X0666027Y0074281D01*
X0666097Y0074275D01*
X0666166Y0074265D01*
X0666235Y0074252D01*
X0666303Y0074234D01*
X0666370Y0074213D01*
X0666435Y0074188D01*
X0666499Y0074159D01*
X0666562Y0074127D01*
X0666622Y0074091D01*
X0666680Y0074052D01*
X0666736Y0074010D01*
X0666790Y0073965D01*
X0666841Y0073917D01*
X0666889Y0073866D01*
X0666934Y0073812D01*
X0666976Y0073756D01*
X0667015Y0073698D01*
X0667051Y0073638D01*
X0667083Y0073575D01*
X0667112Y0073511D01*
X0667137Y0073446D01*
X0667158Y0073379D01*
X0667176Y0073311D01*
X0667189Y0073242D01*
X0667199Y0073173D01*
X0667205Y0073103D01*
X0667207Y0073033D01*
X0667205Y0072963D01*
X0667199Y0072893D01*
X0667189Y0072824D01*
X0667176Y0072755D01*
X0667158Y0072687D01*
X0667137Y0072620D01*
X0667112Y0072555D01*
X0667083Y0072491D01*
X0667051Y0072428D01*
X0667015Y0072368D01*
X0666976Y0072310D01*
X0666934Y0072254D01*
X0666889Y0072200D01*
X0666841Y0072149D01*
X0666790Y0072101D01*
X0666736Y0072056D01*
X0666680Y0072014D01*
X0666622Y0071975D01*
X0666562Y0071939D01*
X0666499Y0071907D01*
X0666435Y0071878D01*
X0666370Y0071853D01*
X0666303Y0071832D01*
X0666235Y0071814D01*
X0666166Y0071801D01*
X0666097Y0071791D01*
X0666027Y0071785D01*
X0665957Y0071783D01*
X0665887Y0071785D01*
X0665817Y0071791D01*
X0665748Y0071801D01*
X0665679Y0071814D01*
X0665611Y0071832D01*
X0665544Y0071853D01*
X0665479Y0071878D01*
X0665415Y0071907D01*
X0665352Y0071939D01*
X0665292Y0071975D01*
X0665234Y0072014D01*
X0665178Y0072056D01*
X0665124Y0072101D01*
X0665073Y0072149D01*
X0665025Y0072200D01*
X0664980Y0072254D01*
X0664938Y0072310D01*
X0664899Y0072368D01*
X0664863Y0072428D01*
X0664831Y0072491D01*
X0664802Y0072555D01*
X0664777Y0072620D01*
X0664756Y0072687D01*
X0664738Y0072755D01*
X0664725Y0072824D01*
X0664715Y0072893D01*
X0664709Y0072963D01*
X0664707Y0073033D01*
X0664707Y0077808D02*
X0664709Y0077878D01*
X0664715Y0077948D01*
X0664725Y0078017D01*
X0664738Y0078086D01*
X0664756Y0078154D01*
X0664777Y0078221D01*
X0664802Y0078286D01*
X0664831Y0078350D01*
X0664863Y0078413D01*
X0664899Y0078473D01*
X0664938Y0078531D01*
X0664980Y0078587D01*
X0665025Y0078641D01*
X0665073Y0078692D01*
X0665124Y0078740D01*
X0665178Y0078785D01*
X0665234Y0078827D01*
X0665292Y0078866D01*
X0665352Y0078902D01*
X0665415Y0078934D01*
X0665479Y0078963D01*
X0665544Y0078988D01*
X0665611Y0079009D01*
X0665679Y0079027D01*
X0665748Y0079040D01*
X0665817Y0079050D01*
X0665887Y0079056D01*
X0665957Y0079058D01*
X0666027Y0079056D01*
X0666097Y0079050D01*
X0666166Y0079040D01*
X0666235Y0079027D01*
X0666303Y0079009D01*
X0666370Y0078988D01*
X0666435Y0078963D01*
X0666499Y0078934D01*
X0666562Y0078902D01*
X0666622Y0078866D01*
X0666680Y0078827D01*
X0666736Y0078785D01*
X0666790Y0078740D01*
X0666841Y0078692D01*
X0666889Y0078641D01*
X0666934Y0078587D01*
X0666976Y0078531D01*
X0667015Y0078473D01*
X0667051Y0078413D01*
X0667083Y0078350D01*
X0667112Y0078286D01*
X0667137Y0078221D01*
X0667158Y0078154D01*
X0667176Y0078086D01*
X0667189Y0078017D01*
X0667199Y0077948D01*
X0667205Y0077878D01*
X0667207Y0077808D01*
X0667205Y0077738D01*
X0667199Y0077668D01*
X0667189Y0077599D01*
X0667176Y0077530D01*
X0667158Y0077462D01*
X0667137Y0077395D01*
X0667112Y0077330D01*
X0667083Y0077266D01*
X0667051Y0077203D01*
X0667015Y0077143D01*
X0666976Y0077085D01*
X0666934Y0077029D01*
X0666889Y0076975D01*
X0666841Y0076924D01*
X0666790Y0076876D01*
X0666736Y0076831D01*
X0666680Y0076789D01*
X0666622Y0076750D01*
X0666562Y0076714D01*
X0666499Y0076682D01*
X0666435Y0076653D01*
X0666370Y0076628D01*
X0666303Y0076607D01*
X0666235Y0076589D01*
X0666166Y0076576D01*
X0666097Y0076566D01*
X0666027Y0076560D01*
X0665957Y0076558D01*
X0665887Y0076560D01*
X0665817Y0076566D01*
X0665748Y0076576D01*
X0665679Y0076589D01*
X0665611Y0076607D01*
X0665544Y0076628D01*
X0665479Y0076653D01*
X0665415Y0076682D01*
X0665352Y0076714D01*
X0665292Y0076750D01*
X0665234Y0076789D01*
X0665178Y0076831D01*
X0665124Y0076876D01*
X0665073Y0076924D01*
X0665025Y0076975D01*
X0664980Y0077029D01*
X0664938Y0077085D01*
X0664899Y0077143D01*
X0664863Y0077203D01*
X0664831Y0077266D01*
X0664802Y0077330D01*
X0664777Y0077395D01*
X0664756Y0077462D01*
X0664738Y0077530D01*
X0664725Y0077599D01*
X0664715Y0077668D01*
X0664709Y0077738D01*
X0664707Y0077808D01*
X0669482Y0077808D02*
X0669484Y0077878D01*
X0669490Y0077948D01*
X0669500Y0078017D01*
X0669513Y0078086D01*
X0669531Y0078154D01*
X0669552Y0078221D01*
X0669577Y0078286D01*
X0669606Y0078350D01*
X0669638Y0078413D01*
X0669674Y0078473D01*
X0669713Y0078531D01*
X0669755Y0078587D01*
X0669800Y0078641D01*
X0669848Y0078692D01*
X0669899Y0078740D01*
X0669953Y0078785D01*
X0670009Y0078827D01*
X0670067Y0078866D01*
X0670127Y0078902D01*
X0670190Y0078934D01*
X0670254Y0078963D01*
X0670319Y0078988D01*
X0670386Y0079009D01*
X0670454Y0079027D01*
X0670523Y0079040D01*
X0670592Y0079050D01*
X0670662Y0079056D01*
X0670732Y0079058D01*
X0670802Y0079056D01*
X0670872Y0079050D01*
X0670941Y0079040D01*
X0671010Y0079027D01*
X0671078Y0079009D01*
X0671145Y0078988D01*
X0671210Y0078963D01*
X0671274Y0078934D01*
X0671337Y0078902D01*
X0671397Y0078866D01*
X0671455Y0078827D01*
X0671511Y0078785D01*
X0671565Y0078740D01*
X0671616Y0078692D01*
X0671664Y0078641D01*
X0671709Y0078587D01*
X0671751Y0078531D01*
X0671790Y0078473D01*
X0671826Y0078413D01*
X0671858Y0078350D01*
X0671887Y0078286D01*
X0671912Y0078221D01*
X0671933Y0078154D01*
X0671951Y0078086D01*
X0671964Y0078017D01*
X0671974Y0077948D01*
X0671980Y0077878D01*
X0671982Y0077808D01*
X0671980Y0077738D01*
X0671974Y0077668D01*
X0671964Y0077599D01*
X0671951Y0077530D01*
X0671933Y0077462D01*
X0671912Y0077395D01*
X0671887Y0077330D01*
X0671858Y0077266D01*
X0671826Y0077203D01*
X0671790Y0077143D01*
X0671751Y0077085D01*
X0671709Y0077029D01*
X0671664Y0076975D01*
X0671616Y0076924D01*
X0671565Y0076876D01*
X0671511Y0076831D01*
X0671455Y0076789D01*
X0671397Y0076750D01*
X0671337Y0076714D01*
X0671274Y0076682D01*
X0671210Y0076653D01*
X0671145Y0076628D01*
X0671078Y0076607D01*
X0671010Y0076589D01*
X0670941Y0076576D01*
X0670872Y0076566D01*
X0670802Y0076560D01*
X0670732Y0076558D01*
X0670662Y0076560D01*
X0670592Y0076566D01*
X0670523Y0076576D01*
X0670454Y0076589D01*
X0670386Y0076607D01*
X0670319Y0076628D01*
X0670254Y0076653D01*
X0670190Y0076682D01*
X0670127Y0076714D01*
X0670067Y0076750D01*
X0670009Y0076789D01*
X0669953Y0076831D01*
X0669899Y0076876D01*
X0669848Y0076924D01*
X0669800Y0076975D01*
X0669755Y0077029D01*
X0669713Y0077085D01*
X0669674Y0077143D01*
X0669638Y0077203D01*
X0669606Y0077266D01*
X0669577Y0077330D01*
X0669552Y0077395D01*
X0669531Y0077462D01*
X0669513Y0077530D01*
X0669500Y0077599D01*
X0669490Y0077668D01*
X0669484Y0077738D01*
X0669482Y0077808D01*
X0669482Y0073033D02*
X0669484Y0073103D01*
X0669490Y0073173D01*
X0669500Y0073242D01*
X0669513Y0073311D01*
X0669531Y0073379D01*
X0669552Y0073446D01*
X0669577Y0073511D01*
X0669606Y0073575D01*
X0669638Y0073638D01*
X0669674Y0073698D01*
X0669713Y0073756D01*
X0669755Y0073812D01*
X0669800Y0073866D01*
X0669848Y0073917D01*
X0669899Y0073965D01*
X0669953Y0074010D01*
X0670009Y0074052D01*
X0670067Y0074091D01*
X0670127Y0074127D01*
X0670190Y0074159D01*
X0670254Y0074188D01*
X0670319Y0074213D01*
X0670386Y0074234D01*
X0670454Y0074252D01*
X0670523Y0074265D01*
X0670592Y0074275D01*
X0670662Y0074281D01*
X0670732Y0074283D01*
X0670802Y0074281D01*
X0670872Y0074275D01*
X0670941Y0074265D01*
X0671010Y0074252D01*
X0671078Y0074234D01*
X0671145Y0074213D01*
X0671210Y0074188D01*
X0671274Y0074159D01*
X0671337Y0074127D01*
X0671397Y0074091D01*
X0671455Y0074052D01*
X0671511Y0074010D01*
X0671565Y0073965D01*
X0671616Y0073917D01*
X0671664Y0073866D01*
X0671709Y0073812D01*
X0671751Y0073756D01*
X0671790Y0073698D01*
X0671826Y0073638D01*
X0671858Y0073575D01*
X0671887Y0073511D01*
X0671912Y0073446D01*
X0671933Y0073379D01*
X0671951Y0073311D01*
X0671964Y0073242D01*
X0671974Y0073173D01*
X0671980Y0073103D01*
X0671982Y0073033D01*
X0671980Y0072963D01*
X0671974Y0072893D01*
X0671964Y0072824D01*
X0671951Y0072755D01*
X0671933Y0072687D01*
X0671912Y0072620D01*
X0671887Y0072555D01*
X0671858Y0072491D01*
X0671826Y0072428D01*
X0671790Y0072368D01*
X0671751Y0072310D01*
X0671709Y0072254D01*
X0671664Y0072200D01*
X0671616Y0072149D01*
X0671565Y0072101D01*
X0671511Y0072056D01*
X0671455Y0072014D01*
X0671397Y0071975D01*
X0671337Y0071939D01*
X0671274Y0071907D01*
X0671210Y0071878D01*
X0671145Y0071853D01*
X0671078Y0071832D01*
X0671010Y0071814D01*
X0670941Y0071801D01*
X0670872Y0071791D01*
X0670802Y0071785D01*
X0670732Y0071783D01*
X0670662Y0071785D01*
X0670592Y0071791D01*
X0670523Y0071801D01*
X0670454Y0071814D01*
X0670386Y0071832D01*
X0670319Y0071853D01*
X0670254Y0071878D01*
X0670190Y0071907D01*
X0670127Y0071939D01*
X0670067Y0071975D01*
X0670009Y0072014D01*
X0669953Y0072056D01*
X0669899Y0072101D01*
X0669848Y0072149D01*
X0669800Y0072200D01*
X0669755Y0072254D01*
X0669713Y0072310D01*
X0669674Y0072368D01*
X0669638Y0072428D01*
X0669606Y0072491D01*
X0669577Y0072555D01*
X0669552Y0072620D01*
X0669531Y0072687D01*
X0669513Y0072755D01*
X0669500Y0072824D01*
X0669490Y0072893D01*
X0669484Y0072963D01*
X0669482Y0073033D01*
X0674257Y0073033D02*
X0674259Y0073103D01*
X0674265Y0073173D01*
X0674275Y0073242D01*
X0674288Y0073311D01*
X0674306Y0073379D01*
X0674327Y0073446D01*
X0674352Y0073511D01*
X0674381Y0073575D01*
X0674413Y0073638D01*
X0674449Y0073698D01*
X0674488Y0073756D01*
X0674530Y0073812D01*
X0674575Y0073866D01*
X0674623Y0073917D01*
X0674674Y0073965D01*
X0674728Y0074010D01*
X0674784Y0074052D01*
X0674842Y0074091D01*
X0674902Y0074127D01*
X0674965Y0074159D01*
X0675029Y0074188D01*
X0675094Y0074213D01*
X0675161Y0074234D01*
X0675229Y0074252D01*
X0675298Y0074265D01*
X0675367Y0074275D01*
X0675437Y0074281D01*
X0675507Y0074283D01*
X0675577Y0074281D01*
X0675647Y0074275D01*
X0675716Y0074265D01*
X0675785Y0074252D01*
X0675853Y0074234D01*
X0675920Y0074213D01*
X0675985Y0074188D01*
X0676049Y0074159D01*
X0676112Y0074127D01*
X0676172Y0074091D01*
X0676230Y0074052D01*
X0676286Y0074010D01*
X0676340Y0073965D01*
X0676391Y0073917D01*
X0676439Y0073866D01*
X0676484Y0073812D01*
X0676526Y0073756D01*
X0676565Y0073698D01*
X0676601Y0073638D01*
X0676633Y0073575D01*
X0676662Y0073511D01*
X0676687Y0073446D01*
X0676708Y0073379D01*
X0676726Y0073311D01*
X0676739Y0073242D01*
X0676749Y0073173D01*
X0676755Y0073103D01*
X0676757Y0073033D01*
X0676755Y0072963D01*
X0676749Y0072893D01*
X0676739Y0072824D01*
X0676726Y0072755D01*
X0676708Y0072687D01*
X0676687Y0072620D01*
X0676662Y0072555D01*
X0676633Y0072491D01*
X0676601Y0072428D01*
X0676565Y0072368D01*
X0676526Y0072310D01*
X0676484Y0072254D01*
X0676439Y0072200D01*
X0676391Y0072149D01*
X0676340Y0072101D01*
X0676286Y0072056D01*
X0676230Y0072014D01*
X0676172Y0071975D01*
X0676112Y0071939D01*
X0676049Y0071907D01*
X0675985Y0071878D01*
X0675920Y0071853D01*
X0675853Y0071832D01*
X0675785Y0071814D01*
X0675716Y0071801D01*
X0675647Y0071791D01*
X0675577Y0071785D01*
X0675507Y0071783D01*
X0675437Y0071785D01*
X0675367Y0071791D01*
X0675298Y0071801D01*
X0675229Y0071814D01*
X0675161Y0071832D01*
X0675094Y0071853D01*
X0675029Y0071878D01*
X0674965Y0071907D01*
X0674902Y0071939D01*
X0674842Y0071975D01*
X0674784Y0072014D01*
X0674728Y0072056D01*
X0674674Y0072101D01*
X0674623Y0072149D01*
X0674575Y0072200D01*
X0674530Y0072254D01*
X0674488Y0072310D01*
X0674449Y0072368D01*
X0674413Y0072428D01*
X0674381Y0072491D01*
X0674352Y0072555D01*
X0674327Y0072620D01*
X0674306Y0072687D01*
X0674288Y0072755D01*
X0674275Y0072824D01*
X0674265Y0072893D01*
X0674259Y0072963D01*
X0674257Y0073033D01*
X0674257Y0077808D02*
X0674259Y0077878D01*
X0674265Y0077948D01*
X0674275Y0078017D01*
X0674288Y0078086D01*
X0674306Y0078154D01*
X0674327Y0078221D01*
X0674352Y0078286D01*
X0674381Y0078350D01*
X0674413Y0078413D01*
X0674449Y0078473D01*
X0674488Y0078531D01*
X0674530Y0078587D01*
X0674575Y0078641D01*
X0674623Y0078692D01*
X0674674Y0078740D01*
X0674728Y0078785D01*
X0674784Y0078827D01*
X0674842Y0078866D01*
X0674902Y0078902D01*
X0674965Y0078934D01*
X0675029Y0078963D01*
X0675094Y0078988D01*
X0675161Y0079009D01*
X0675229Y0079027D01*
X0675298Y0079040D01*
X0675367Y0079050D01*
X0675437Y0079056D01*
X0675507Y0079058D01*
X0675577Y0079056D01*
X0675647Y0079050D01*
X0675716Y0079040D01*
X0675785Y0079027D01*
X0675853Y0079009D01*
X0675920Y0078988D01*
X0675985Y0078963D01*
X0676049Y0078934D01*
X0676112Y0078902D01*
X0676172Y0078866D01*
X0676230Y0078827D01*
X0676286Y0078785D01*
X0676340Y0078740D01*
X0676391Y0078692D01*
X0676439Y0078641D01*
X0676484Y0078587D01*
X0676526Y0078531D01*
X0676565Y0078473D01*
X0676601Y0078413D01*
X0676633Y0078350D01*
X0676662Y0078286D01*
X0676687Y0078221D01*
X0676708Y0078154D01*
X0676726Y0078086D01*
X0676739Y0078017D01*
X0676749Y0077948D01*
X0676755Y0077878D01*
X0676757Y0077808D01*
X0676755Y0077738D01*
X0676749Y0077668D01*
X0676739Y0077599D01*
X0676726Y0077530D01*
X0676708Y0077462D01*
X0676687Y0077395D01*
X0676662Y0077330D01*
X0676633Y0077266D01*
X0676601Y0077203D01*
X0676565Y0077143D01*
X0676526Y0077085D01*
X0676484Y0077029D01*
X0676439Y0076975D01*
X0676391Y0076924D01*
X0676340Y0076876D01*
X0676286Y0076831D01*
X0676230Y0076789D01*
X0676172Y0076750D01*
X0676112Y0076714D01*
X0676049Y0076682D01*
X0675985Y0076653D01*
X0675920Y0076628D01*
X0675853Y0076607D01*
X0675785Y0076589D01*
X0675716Y0076576D01*
X0675647Y0076566D01*
X0675577Y0076560D01*
X0675507Y0076558D01*
X0675437Y0076560D01*
X0675367Y0076566D01*
X0675298Y0076576D01*
X0675229Y0076589D01*
X0675161Y0076607D01*
X0675094Y0076628D01*
X0675029Y0076653D01*
X0674965Y0076682D01*
X0674902Y0076714D01*
X0674842Y0076750D01*
X0674784Y0076789D01*
X0674728Y0076831D01*
X0674674Y0076876D01*
X0674623Y0076924D01*
X0674575Y0076975D01*
X0674530Y0077029D01*
X0674488Y0077085D01*
X0674449Y0077143D01*
X0674413Y0077203D01*
X0674381Y0077266D01*
X0674352Y0077330D01*
X0674327Y0077395D01*
X0674306Y0077462D01*
X0674288Y0077530D01*
X0674275Y0077599D01*
X0674265Y0077668D01*
X0674259Y0077738D01*
X0674257Y0077808D01*
X0679032Y0077808D02*
X0679034Y0077878D01*
X0679040Y0077948D01*
X0679050Y0078017D01*
X0679063Y0078086D01*
X0679081Y0078154D01*
X0679102Y0078221D01*
X0679127Y0078286D01*
X0679156Y0078350D01*
X0679188Y0078413D01*
X0679224Y0078473D01*
X0679263Y0078531D01*
X0679305Y0078587D01*
X0679350Y0078641D01*
X0679398Y0078692D01*
X0679449Y0078740D01*
X0679503Y0078785D01*
X0679559Y0078827D01*
X0679617Y0078866D01*
X0679677Y0078902D01*
X0679740Y0078934D01*
X0679804Y0078963D01*
X0679869Y0078988D01*
X0679936Y0079009D01*
X0680004Y0079027D01*
X0680073Y0079040D01*
X0680142Y0079050D01*
X0680212Y0079056D01*
X0680282Y0079058D01*
X0680352Y0079056D01*
X0680422Y0079050D01*
X0680491Y0079040D01*
X0680560Y0079027D01*
X0680628Y0079009D01*
X0680695Y0078988D01*
X0680760Y0078963D01*
X0680824Y0078934D01*
X0680887Y0078902D01*
X0680947Y0078866D01*
X0681005Y0078827D01*
X0681061Y0078785D01*
X0681115Y0078740D01*
X0681166Y0078692D01*
X0681214Y0078641D01*
X0681259Y0078587D01*
X0681301Y0078531D01*
X0681340Y0078473D01*
X0681376Y0078413D01*
X0681408Y0078350D01*
X0681437Y0078286D01*
X0681462Y0078221D01*
X0681483Y0078154D01*
X0681501Y0078086D01*
X0681514Y0078017D01*
X0681524Y0077948D01*
X0681530Y0077878D01*
X0681532Y0077808D01*
X0681530Y0077738D01*
X0681524Y0077668D01*
X0681514Y0077599D01*
X0681501Y0077530D01*
X0681483Y0077462D01*
X0681462Y0077395D01*
X0681437Y0077330D01*
X0681408Y0077266D01*
X0681376Y0077203D01*
X0681340Y0077143D01*
X0681301Y0077085D01*
X0681259Y0077029D01*
X0681214Y0076975D01*
X0681166Y0076924D01*
X0681115Y0076876D01*
X0681061Y0076831D01*
X0681005Y0076789D01*
X0680947Y0076750D01*
X0680887Y0076714D01*
X0680824Y0076682D01*
X0680760Y0076653D01*
X0680695Y0076628D01*
X0680628Y0076607D01*
X0680560Y0076589D01*
X0680491Y0076576D01*
X0680422Y0076566D01*
X0680352Y0076560D01*
X0680282Y0076558D01*
X0680212Y0076560D01*
X0680142Y0076566D01*
X0680073Y0076576D01*
X0680004Y0076589D01*
X0679936Y0076607D01*
X0679869Y0076628D01*
X0679804Y0076653D01*
X0679740Y0076682D01*
X0679677Y0076714D01*
X0679617Y0076750D01*
X0679559Y0076789D01*
X0679503Y0076831D01*
X0679449Y0076876D01*
X0679398Y0076924D01*
X0679350Y0076975D01*
X0679305Y0077029D01*
X0679263Y0077085D01*
X0679224Y0077143D01*
X0679188Y0077203D01*
X0679156Y0077266D01*
X0679127Y0077330D01*
X0679102Y0077395D01*
X0679081Y0077462D01*
X0679063Y0077530D01*
X0679050Y0077599D01*
X0679040Y0077668D01*
X0679034Y0077738D01*
X0679032Y0077808D01*
X0679032Y0073033D02*
X0679034Y0073103D01*
X0679040Y0073173D01*
X0679050Y0073242D01*
X0679063Y0073311D01*
X0679081Y0073379D01*
X0679102Y0073446D01*
X0679127Y0073511D01*
X0679156Y0073575D01*
X0679188Y0073638D01*
X0679224Y0073698D01*
X0679263Y0073756D01*
X0679305Y0073812D01*
X0679350Y0073866D01*
X0679398Y0073917D01*
X0679449Y0073965D01*
X0679503Y0074010D01*
X0679559Y0074052D01*
X0679617Y0074091D01*
X0679677Y0074127D01*
X0679740Y0074159D01*
X0679804Y0074188D01*
X0679869Y0074213D01*
X0679936Y0074234D01*
X0680004Y0074252D01*
X0680073Y0074265D01*
X0680142Y0074275D01*
X0680212Y0074281D01*
X0680282Y0074283D01*
X0680352Y0074281D01*
X0680422Y0074275D01*
X0680491Y0074265D01*
X0680560Y0074252D01*
X0680628Y0074234D01*
X0680695Y0074213D01*
X0680760Y0074188D01*
X0680824Y0074159D01*
X0680887Y0074127D01*
X0680947Y0074091D01*
X0681005Y0074052D01*
X0681061Y0074010D01*
X0681115Y0073965D01*
X0681166Y0073917D01*
X0681214Y0073866D01*
X0681259Y0073812D01*
X0681301Y0073756D01*
X0681340Y0073698D01*
X0681376Y0073638D01*
X0681408Y0073575D01*
X0681437Y0073511D01*
X0681462Y0073446D01*
X0681483Y0073379D01*
X0681501Y0073311D01*
X0681514Y0073242D01*
X0681524Y0073173D01*
X0681530Y0073103D01*
X0681532Y0073033D01*
X0681530Y0072963D01*
X0681524Y0072893D01*
X0681514Y0072824D01*
X0681501Y0072755D01*
X0681483Y0072687D01*
X0681462Y0072620D01*
X0681437Y0072555D01*
X0681408Y0072491D01*
X0681376Y0072428D01*
X0681340Y0072368D01*
X0681301Y0072310D01*
X0681259Y0072254D01*
X0681214Y0072200D01*
X0681166Y0072149D01*
X0681115Y0072101D01*
X0681061Y0072056D01*
X0681005Y0072014D01*
X0680947Y0071975D01*
X0680887Y0071939D01*
X0680824Y0071907D01*
X0680760Y0071878D01*
X0680695Y0071853D01*
X0680628Y0071832D01*
X0680560Y0071814D01*
X0680491Y0071801D01*
X0680422Y0071791D01*
X0680352Y0071785D01*
X0680282Y0071783D01*
X0680212Y0071785D01*
X0680142Y0071791D01*
X0680073Y0071801D01*
X0680004Y0071814D01*
X0679936Y0071832D01*
X0679869Y0071853D01*
X0679804Y0071878D01*
X0679740Y0071907D01*
X0679677Y0071939D01*
X0679617Y0071975D01*
X0679559Y0072014D01*
X0679503Y0072056D01*
X0679449Y0072101D01*
X0679398Y0072149D01*
X0679350Y0072200D01*
X0679305Y0072254D01*
X0679263Y0072310D01*
X0679224Y0072368D01*
X0679188Y0072428D01*
X0679156Y0072491D01*
X0679127Y0072555D01*
X0679102Y0072620D01*
X0679081Y0072687D01*
X0679063Y0072755D01*
X0679050Y0072824D01*
X0679040Y0072893D01*
X0679034Y0072963D01*
X0679032Y0073033D01*
X0690601Y0054787D02*
X0693603Y0054787D01*
X0693603Y0050283D01*
X0690601Y0050283D01*
X0692102Y0052535D02*
X0693603Y0052535D01*
X0695205Y0052535D02*
X0695955Y0051785D01*
X0698207Y0051785D01*
X0698207Y0050283D02*
X0698207Y0054787D01*
X0695955Y0054787D01*
X0695205Y0054037D01*
X0695205Y0052535D01*
X0710465Y0072268D02*
X0712717Y0072268D01*
X0713468Y0073018D01*
X0713468Y0074520D01*
X0712717Y0075270D01*
X0710465Y0075270D01*
X0715069Y0075270D02*
X0717321Y0075270D01*
X0718072Y0074520D01*
X0718072Y0073018D01*
X0717321Y0072268D01*
X0715069Y0072268D01*
X0715069Y0076772D01*
X0719673Y0076772D02*
X0719673Y0073769D01*
X0721174Y0072268D01*
X0722676Y0073769D01*
X0722676Y0076772D01*
X0728881Y0076021D02*
X0728881Y0075270D01*
X0729631Y0074520D01*
X0731133Y0074520D01*
X0731883Y0075270D01*
X0731883Y0076021D01*
X0731133Y0076772D01*
X0729631Y0076772D01*
X0728881Y0076021D01*
X0729631Y0074520D02*
X0728881Y0073769D01*
X0728881Y0073018D01*
X0729631Y0072268D01*
X0731133Y0072268D01*
X0731883Y0073018D01*
X0731883Y0073769D01*
X0731133Y0074520D01*
X0733485Y0074520D02*
X0736487Y0074520D01*
X0734235Y0076772D01*
X0734235Y0072268D01*
X0738089Y0074520D02*
X0741091Y0074520D01*
X0739590Y0076021D02*
X0739590Y0073018D01*
X0401327Y0195026D02*
X0401327Y0218041D01*
X0393587Y0218041D01*
X0393587Y0195026D01*
X0401327Y0195026D01*
X0401327Y0346526D02*
X0393587Y0346526D01*
X0393587Y0369541D01*
X0401327Y0369541D01*
X0401327Y0346526D01*
X0611679Y0378033D02*
X0611679Y0380285D01*
X0612430Y0381036D01*
X0614681Y0381036D01*
X0614681Y0378033D01*
X0616283Y0379535D02*
X0616283Y0380285D01*
X0617033Y0381036D01*
X0618535Y0381036D01*
X0619285Y0380285D01*
X0619285Y0378784D01*
X0618535Y0378033D01*
X0617033Y0378033D01*
X0616283Y0379535D02*
X0619285Y0379535D01*
X0620887Y0380285D02*
X0620887Y0378784D01*
X0621637Y0378033D01*
X0623889Y0378033D01*
X0623889Y0376532D02*
X0623889Y0381036D01*
X0621637Y0381036D01*
X0620887Y0380285D01*
X0625491Y0380285D02*
X0625491Y0378784D01*
X0626241Y0378033D01*
X0627743Y0378033D01*
X0628493Y0378784D01*
X0628493Y0380285D01*
X0627743Y0381036D01*
X0626241Y0381036D01*
X0625491Y0380285D01*
X0630095Y0380285D02*
X0633097Y0380285D01*
X0634699Y0381036D02*
X0637701Y0378033D01*
X0634699Y0378033D01*
X0634699Y0381036D02*
X0637701Y0381036D01*
X0639302Y0380285D02*
X0639302Y0379535D01*
X0642305Y0379535D01*
X0642305Y0380285D02*
X0642305Y0378784D01*
X0641554Y0378033D01*
X0640053Y0378033D01*
X0639302Y0380285D02*
X0640053Y0381036D01*
X0641554Y0381036D01*
X0642305Y0380285D01*
X0643906Y0380285D02*
X0643906Y0379535D01*
X0646909Y0379535D01*
X0646909Y0380285D02*
X0646909Y0378784D01*
X0646158Y0378033D01*
X0644657Y0378033D01*
X0643906Y0380285D02*
X0644657Y0381036D01*
X0646158Y0381036D01*
X0646909Y0380285D01*
X0648510Y0382537D02*
X0651513Y0378033D01*
X0653114Y0378033D02*
X0653114Y0380285D01*
X0653865Y0381036D01*
X0654615Y0380285D01*
X0654615Y0378033D01*
X0656117Y0378033D02*
X0656117Y0381036D01*
X0655366Y0381036D01*
X0654615Y0380285D01*
X0657718Y0380285D02*
X0657718Y0378784D01*
X0658469Y0378033D01*
X0659970Y0378033D01*
X0660721Y0378784D01*
X0660721Y0380285D01*
X0659970Y0381036D01*
X0658469Y0381036D01*
X0657718Y0380285D01*
X0662322Y0381036D02*
X0664574Y0381036D01*
X0665325Y0380285D01*
X0665325Y0378784D01*
X0664574Y0378033D01*
X0662322Y0378033D01*
X0666876Y0378033D02*
X0667627Y0378033D01*
X0667627Y0378784D01*
X0666876Y0378784D01*
X0666876Y0378033D01*
X0669228Y0378784D02*
X0669228Y0380285D01*
X0669979Y0381036D01*
X0672230Y0381036D01*
X0672230Y0382537D02*
X0672230Y0378033D01*
X0669979Y0378033D01*
X0669228Y0378784D01*
X0673832Y0378033D02*
X0673832Y0381036D01*
X0676834Y0381036D02*
X0676834Y0378784D01*
X0676084Y0378033D01*
X0673832Y0378033D01*
X0678436Y0378033D02*
X0678436Y0380285D01*
X0679186Y0381036D01*
X0680688Y0381036D01*
X0681438Y0380285D01*
X0683006Y0381036D02*
X0684508Y0381036D01*
X0683757Y0381787D02*
X0683757Y0378784D01*
X0683006Y0378033D01*
X0681438Y0378033D02*
X0681438Y0382537D01*
X0681488Y0385533D02*
X0682990Y0385533D01*
X0683740Y0386284D01*
X0680738Y0389287D01*
X0680738Y0386284D01*
X0681488Y0385533D01*
X0683740Y0386284D02*
X0683740Y0389287D01*
X0682990Y0390037D01*
X0681488Y0390037D01*
X0680738Y0389287D01*
X0685342Y0389287D02*
X0686092Y0390037D01*
X0687594Y0390037D01*
X0688344Y0389287D01*
X0689946Y0389287D02*
X0692948Y0386284D01*
X0692198Y0385533D01*
X0690696Y0385533D01*
X0689946Y0386284D01*
X0689946Y0389287D01*
X0690696Y0390037D01*
X0692198Y0390037D01*
X0692948Y0389287D01*
X0692948Y0386284D01*
X0694550Y0385533D02*
X0697552Y0385533D01*
X0694550Y0388536D01*
X0694550Y0389287D01*
X0695300Y0390037D01*
X0696801Y0390037D01*
X0697552Y0389287D01*
X0699153Y0390037D02*
X0702156Y0385533D01*
X0703757Y0385533D02*
X0706760Y0385533D01*
X0705259Y0385533D02*
X0705259Y0390037D01*
X0706760Y0388536D01*
X0708361Y0385533D02*
X0711364Y0385533D01*
X0709863Y0385533D02*
X0709863Y0390037D01*
X0711364Y0388536D01*
X0712932Y0390037D02*
X0714433Y0388536D01*
X0714433Y0387035D01*
X0712932Y0385533D01*
X0712148Y0381036D02*
X0712898Y0380285D01*
X0712898Y0378784D01*
X0712148Y0378033D01*
X0710647Y0378033D01*
X0709896Y0378784D01*
X0709896Y0380285D01*
X0710647Y0381036D01*
X0712148Y0381036D01*
X0714500Y0381036D02*
X0716752Y0381036D01*
X0717502Y0380285D01*
X0717502Y0378784D01*
X0716752Y0378033D01*
X0714500Y0378033D01*
X0708295Y0378784D02*
X0708295Y0380285D01*
X0707544Y0381036D01*
X0705292Y0381036D01*
X0705292Y0382537D02*
X0705292Y0378033D01*
X0707544Y0378033D01*
X0708295Y0378784D01*
X0703691Y0378784D02*
X0703691Y0380285D01*
X0702940Y0381036D01*
X0701439Y0381036D01*
X0700688Y0380285D01*
X0700688Y0379535D01*
X0703691Y0379535D01*
X0703691Y0378784D02*
X0702940Y0378033D01*
X0701439Y0378033D01*
X0699087Y0378033D02*
X0699087Y0378784D01*
X0698336Y0378784D01*
X0698336Y0378033D01*
X0699087Y0378033D01*
X0699087Y0380285D02*
X0699087Y0381036D01*
X0698336Y0381036D01*
X0698336Y0380285D01*
X0699087Y0380285D01*
X0692181Y0380285D02*
X0692181Y0378784D01*
X0691430Y0378033D01*
X0689178Y0378033D01*
X0689178Y0377283D02*
X0689178Y0381036D01*
X0691430Y0381036D01*
X0692181Y0380285D01*
X0690680Y0376532D02*
X0689929Y0376532D01*
X0689178Y0377283D01*
X0687577Y0378033D02*
X0686076Y0378033D01*
X0686826Y0378033D02*
X0686826Y0381036D01*
X0687577Y0381036D01*
X0686826Y0382537D02*
X0686826Y0383288D01*
X0685342Y0385533D02*
X0688344Y0385533D01*
X0685342Y0388536D01*
X0685342Y0389287D01*
X0674532Y0388536D02*
X0674532Y0385533D01*
X0674532Y0387035D02*
X0673031Y0388536D01*
X0672281Y0388536D01*
X0670696Y0389287D02*
X0669945Y0390037D01*
X0668444Y0390037D01*
X0667693Y0389287D01*
X0667693Y0388536D01*
X0668444Y0387785D01*
X0667693Y0387035D01*
X0667693Y0386284D01*
X0668444Y0385533D01*
X0669945Y0385533D01*
X0670696Y0386284D01*
X0669195Y0387785D02*
X0668444Y0387785D01*
X0666092Y0387785D02*
X0663840Y0387785D01*
X0663089Y0387035D01*
X0663089Y0386284D01*
X0663840Y0385533D01*
X0666092Y0385533D01*
X0666092Y0390037D01*
X0663840Y0390037D01*
X0663089Y0389287D01*
X0663089Y0388536D01*
X0663840Y0387785D01*
X0661488Y0386284D02*
X0660737Y0385533D01*
X0659236Y0385533D01*
X0658485Y0386284D01*
X0658485Y0387035D01*
X0659236Y0387785D01*
X0659987Y0387785D01*
X0659236Y0387785D02*
X0658485Y0388536D01*
X0658485Y0389287D01*
X0659236Y0390037D01*
X0660737Y0390037D01*
X0661488Y0389287D01*
X0656884Y0390037D02*
X0655383Y0388536D01*
X0655383Y0387035D01*
X0656884Y0385533D01*
X0720638Y0387785D02*
X0723641Y0387785D01*
X0721389Y0390037D01*
X0721389Y0385533D01*
X0725242Y0385533D02*
X0728245Y0385533D01*
X0725242Y0388536D01*
X0725242Y0389287D01*
X0725993Y0390037D01*
X0727494Y0390037D01*
X0728245Y0389287D01*
X0729846Y0389287D02*
X0730597Y0390037D01*
X0732098Y0390037D01*
X0732849Y0389287D01*
X0734450Y0390037D02*
X0734450Y0385533D01*
X0732849Y0385533D02*
X0729846Y0388536D01*
X0729846Y0389287D01*
X0729846Y0385533D02*
X0732849Y0385533D01*
X0735951Y0388536D02*
X0734450Y0390037D01*
X0735951Y0388536D02*
X0737453Y0390037D01*
X0737453Y0385533D01*
X0739054Y0386284D02*
X0739805Y0385533D01*
X0741306Y0385533D01*
X0742057Y0386284D01*
X0742057Y0389287D01*
X0741306Y0390037D01*
X0739805Y0390037D01*
X0739054Y0389287D01*
X0743658Y0389287D02*
X0744409Y0390037D01*
X0746661Y0390037D01*
X0746661Y0385533D01*
X0744409Y0385533D01*
X0743658Y0386284D01*
X0743658Y0389287D01*
X0752866Y0389287D02*
X0752866Y0388536D01*
X0753617Y0387785D01*
X0755868Y0387785D01*
X0753617Y0387785D02*
X0752866Y0387035D01*
X0752866Y0386284D01*
X0753617Y0385533D01*
X0755868Y0385533D01*
X0755868Y0390037D01*
X0753617Y0390037D01*
X0752866Y0389287D01*
X0757436Y0390037D02*
X0758938Y0390037D01*
X0758187Y0390037D02*
X0758187Y0385533D01*
X0758938Y0385533D02*
X0757436Y0385533D01*
X0760539Y0386284D02*
X0760539Y0389287D01*
X0761290Y0390037D01*
X0763542Y0390037D01*
X0763542Y0385533D01*
X0761290Y0385533D01*
X0760539Y0386284D01*
X0760489Y0381036D02*
X0761240Y0380285D01*
X0761240Y0378784D01*
X0760489Y0378033D01*
X0758237Y0378033D01*
X0755885Y0378784D02*
X0755134Y0378033D01*
X0755885Y0378784D02*
X0755885Y0381787D01*
X0756636Y0381036D02*
X0755134Y0381036D01*
X0758237Y0381036D02*
X0760489Y0381036D01*
X0762841Y0380285D02*
X0762841Y0379535D01*
X0765844Y0379535D01*
X0765844Y0380285D02*
X0765844Y0378784D01*
X0765093Y0378033D01*
X0763592Y0378033D01*
X0762841Y0380285D02*
X0763592Y0381036D01*
X0765093Y0381036D01*
X0765844Y0380285D01*
X0767412Y0381036D02*
X0767412Y0377283D01*
X0768162Y0376532D01*
X0768913Y0376532D01*
X0770514Y0378784D02*
X0770514Y0380285D01*
X0771265Y0381036D01*
X0772766Y0381036D01*
X0773517Y0380285D01*
X0773517Y0378784D01*
X0772766Y0378033D01*
X0771265Y0378033D01*
X0770514Y0378784D01*
X0767412Y0382537D02*
X0767412Y0383288D01*
X0769747Y0385533D02*
X0772749Y0385533D01*
X0772749Y0386284D01*
X0769747Y0389287D01*
X0769747Y0390037D01*
X0772749Y0390037D01*
X0774351Y0390037D02*
X0777353Y0390037D01*
X0777353Y0385533D01*
X0774351Y0385533D01*
X0775852Y0387785D02*
X0777353Y0387785D01*
X0778955Y0385533D02*
X0781957Y0385533D01*
X0781957Y0390037D01*
X0778955Y0390037D01*
X0780456Y0387785D02*
X0781957Y0387785D01*
X0781957Y0382537D02*
X0779705Y0382537D01*
X0778955Y0381787D01*
X0778955Y0380285D01*
X0779705Y0379535D01*
X0781957Y0379535D01*
X0781957Y0378033D02*
X0781957Y0382537D01*
X0777353Y0381036D02*
X0777353Y0378033D01*
X0777353Y0379535D02*
X0775852Y0381036D01*
X0775102Y0381036D01*
X0748963Y0380285D02*
X0748212Y0379535D01*
X0746711Y0379535D01*
X0745960Y0378784D01*
X0746711Y0378033D01*
X0748963Y0378033D01*
X0748963Y0380285D02*
X0748212Y0381036D01*
X0745960Y0381036D01*
X0744359Y0380285D02*
X0744359Y0378784D01*
X0743608Y0378033D01*
X0742107Y0378033D01*
X0741356Y0378784D01*
X0741356Y0380285D01*
X0742107Y0381036D01*
X0743608Y0381036D01*
X0744359Y0380285D01*
X0739755Y0381036D02*
X0739755Y0378784D01*
X0739004Y0378033D01*
X0736752Y0378033D01*
X0736752Y0381036D01*
X0735151Y0381036D02*
X0735151Y0378033D01*
X0735151Y0379535D02*
X0733650Y0381036D01*
X0732899Y0381036D01*
X0731314Y0380285D02*
X0731314Y0378784D01*
X0730564Y0378033D01*
X0728312Y0378033D01*
X0726710Y0378784D02*
X0726710Y0380285D01*
X0725960Y0381036D01*
X0724458Y0381036D01*
X0723708Y0380285D01*
X0723708Y0379535D01*
X0726710Y0379535D01*
X0726710Y0378784D02*
X0725960Y0378033D01*
X0724458Y0378033D01*
X0728312Y0381036D02*
X0730564Y0381036D01*
X0731314Y0380285D01*
D11*
X0401647Y0370967D02*
X0401163Y0370483D01*
X0400679Y0370483D01*
X0400196Y0370967D01*
X0400196Y0373386D01*
X0400679Y0373386D02*
X0399712Y0373386D01*
X0398700Y0373386D02*
X0397249Y0373386D01*
X0396765Y0372902D01*
X0396765Y0371935D01*
X0397249Y0371451D01*
X0398700Y0371451D01*
X0398700Y0370483D02*
X0398700Y0373386D01*
X0395754Y0372902D02*
X0395270Y0373386D01*
X0394303Y0373386D01*
X0393819Y0372902D01*
X0393819Y0372418D01*
X0394303Y0371935D01*
X0393819Y0371451D01*
X0393819Y0370967D01*
X0394303Y0370483D01*
X0395270Y0370483D01*
X0395754Y0370967D01*
X0394786Y0371935D02*
X0394303Y0371935D01*
X0393819Y0221636D02*
X0395754Y0221636D01*
X0395754Y0220185D01*
X0394786Y0220668D01*
X0394303Y0220668D01*
X0393819Y0220185D01*
X0393819Y0219217D01*
X0394303Y0218733D01*
X0395270Y0218733D01*
X0395754Y0219217D01*
X0396765Y0220185D02*
X0397249Y0219701D01*
X0398700Y0219701D01*
X0398700Y0218733D02*
X0398700Y0221636D01*
X0397249Y0221636D01*
X0396765Y0221152D01*
X0396765Y0220185D01*
X0399712Y0221636D02*
X0400679Y0221636D01*
X0400196Y0221636D02*
X0400196Y0219217D01*
X0400679Y0218733D01*
X0401163Y0218733D01*
X0401647Y0219217D01*
X0616739Y0101542D02*
X0618674Y0101542D01*
X0617706Y0102509D02*
X0617706Y0100574D01*
X0618190Y0099563D02*
X0619157Y0098595D01*
X0618190Y0097628D01*
X0616255Y0097628D01*
X0617222Y0096616D02*
X0616255Y0095649D01*
X0617222Y0094681D01*
X0619157Y0094681D01*
X0618674Y0093670D02*
X0619157Y0093186D01*
X0619157Y0092218D01*
X0618674Y0091735D01*
X0616255Y0091735D01*
X0616255Y0090723D02*
X0619157Y0088788D01*
X0621055Y0088788D02*
X0621055Y0090723D01*
X0621055Y0089756D02*
X0623957Y0089756D01*
X0625855Y0090239D02*
X0626339Y0090723D01*
X0628274Y0090723D01*
X0628757Y0090239D01*
X0628757Y0089272D01*
X0628274Y0088788D01*
X0626339Y0088788D02*
X0625855Y0089272D01*
X0625855Y0090239D01*
X0625855Y0091735D02*
X0628757Y0091735D01*
X0625855Y0093670D01*
X0628757Y0093670D01*
X0630655Y0093670D02*
X0630655Y0092218D01*
X0631139Y0091735D01*
X0633074Y0091735D01*
X0633557Y0092218D01*
X0633557Y0093670D01*
X0630655Y0093670D01*
X0631139Y0094681D02*
X0630655Y0095165D01*
X0630655Y0096132D01*
X0631139Y0096616D01*
X0631622Y0096616D01*
X0632106Y0096132D01*
X0632106Y0095165D01*
X0632590Y0094681D01*
X0633074Y0094681D01*
X0633557Y0095165D01*
X0633557Y0096132D01*
X0633074Y0096616D01*
X0633074Y0097628D02*
X0633557Y0098111D01*
X0633557Y0099079D01*
X0633074Y0099563D01*
X0632106Y0099079D02*
X0632106Y0098111D01*
X0632590Y0097628D01*
X0633074Y0097628D01*
X0632106Y0099079D02*
X0631622Y0099563D01*
X0631139Y0099563D01*
X0630655Y0099079D01*
X0630655Y0098111D01*
X0631139Y0097628D01*
X0628757Y0098111D02*
X0628757Y0099079D01*
X0628274Y0099563D01*
X0627306Y0099079D02*
X0627306Y0098111D01*
X0627790Y0097628D01*
X0628274Y0097628D01*
X0628757Y0098111D01*
X0627306Y0099079D02*
X0626822Y0099563D01*
X0626339Y0099563D01*
X0625855Y0099079D01*
X0625855Y0098111D01*
X0626339Y0097628D01*
X0626339Y0096616D02*
X0627306Y0095649D01*
X0628757Y0095649D01*
X0627306Y0095649D02*
X0626339Y0094681D01*
X0625855Y0094681D01*
X0625855Y0096616D02*
X0626339Y0096616D01*
X0623957Y0096132D02*
X0623474Y0096616D01*
X0623957Y0096132D02*
X0623957Y0095165D01*
X0623474Y0094681D01*
X0622990Y0094681D01*
X0622506Y0095165D01*
X0622506Y0096132D01*
X0622022Y0096616D01*
X0621539Y0096616D01*
X0621055Y0096132D01*
X0621055Y0095165D01*
X0621539Y0094681D01*
X0621055Y0093670D02*
X0623957Y0093670D01*
X0623957Y0091735D01*
X0622506Y0092702D02*
X0622506Y0093670D01*
X0621055Y0093670D02*
X0621055Y0091735D01*
X0619157Y0090723D02*
X0616255Y0088788D01*
X0616739Y0084830D02*
X0616255Y0084346D01*
X0616255Y0083379D01*
X0616739Y0082895D01*
X0617222Y0082895D01*
X0619157Y0084830D01*
X0619157Y0082895D01*
X0621055Y0083379D02*
X0622506Y0084830D01*
X0622506Y0082895D01*
X0623957Y0083379D02*
X0621055Y0083379D01*
X0625855Y0082895D02*
X0626339Y0083863D01*
X0627306Y0084830D01*
X0627306Y0083379D01*
X0627790Y0082895D01*
X0628274Y0082895D01*
X0628757Y0083379D01*
X0628757Y0084346D01*
X0628274Y0084830D01*
X0627306Y0084830D01*
X0630655Y0084346D02*
X0630655Y0083379D01*
X0631139Y0082895D01*
X0631622Y0082895D01*
X0632106Y0083379D01*
X0632106Y0084346D01*
X0631622Y0084830D01*
X0631139Y0084830D01*
X0630655Y0084346D01*
X0632106Y0084346D02*
X0632590Y0084830D01*
X0633074Y0084830D01*
X0633557Y0084346D01*
X0633557Y0083379D01*
X0633074Y0082895D01*
X0632590Y0082895D01*
X0632106Y0083379D01*
X0635455Y0083379D02*
X0635939Y0082895D01*
X0637874Y0084830D01*
X0638357Y0084346D01*
X0638357Y0083379D01*
X0637874Y0082895D01*
X0635939Y0082895D01*
X0635455Y0083379D02*
X0635455Y0084346D01*
X0635939Y0084830D01*
X0637874Y0084830D01*
X0638357Y0085842D02*
X0638357Y0087777D01*
X0638357Y0086809D02*
X0635455Y0086809D01*
X0636422Y0087777D01*
X0633557Y0088788D02*
X0631622Y0088788D01*
X0630655Y0089756D01*
X0631622Y0090723D01*
X0633557Y0090723D01*
X0632106Y0090723D02*
X0632106Y0088788D01*
X0635455Y0092218D02*
X0635939Y0091735D01*
X0637874Y0091735D01*
X0638357Y0092218D01*
X0638357Y0093186D01*
X0637874Y0093670D01*
X0635939Y0093670D01*
X0635455Y0093186D01*
X0635455Y0092218D01*
X0637390Y0092702D02*
X0638357Y0091735D01*
X0640255Y0092218D02*
X0640255Y0093670D01*
X0643157Y0093670D01*
X0643157Y0092218D01*
X0642674Y0091735D01*
X0642190Y0091735D01*
X0641706Y0092218D01*
X0641706Y0093670D01*
X0642190Y0094681D02*
X0642674Y0094681D01*
X0643157Y0095165D01*
X0643157Y0096132D01*
X0642674Y0096616D01*
X0642674Y0097628D02*
X0643157Y0098111D01*
X0643157Y0099079D01*
X0642674Y0099563D01*
X0640739Y0099563D01*
X0640255Y0099079D01*
X0640255Y0098111D01*
X0640739Y0097628D01*
X0640739Y0096616D02*
X0641222Y0096616D01*
X0641706Y0096132D01*
X0641706Y0095165D01*
X0642190Y0094681D01*
X0640739Y0094681D02*
X0640255Y0095165D01*
X0640255Y0096132D01*
X0640739Y0096616D01*
X0638357Y0096616D02*
X0635455Y0096616D01*
X0635455Y0095165D01*
X0635939Y0094681D01*
X0636906Y0094681D01*
X0637390Y0095165D01*
X0637390Y0096616D01*
X0637390Y0095649D02*
X0638357Y0094681D01*
X0638357Y0097613D02*
X0638357Y0098580D01*
X0638357Y0098097D02*
X0635455Y0098097D01*
X0635455Y0098580D02*
X0635455Y0097613D01*
X0645055Y0097613D02*
X0645055Y0098580D01*
X0645055Y0098097D02*
X0647957Y0098097D01*
X0647957Y0098580D02*
X0647957Y0097613D01*
X0647474Y0096616D02*
X0647957Y0096132D01*
X0647957Y0095165D01*
X0647474Y0094681D01*
X0646990Y0094681D01*
X0646506Y0095165D01*
X0646506Y0096132D01*
X0646022Y0096616D01*
X0645539Y0096616D01*
X0645055Y0096132D01*
X0645055Y0095165D01*
X0645539Y0094681D01*
X0645539Y0093670D02*
X0647474Y0093670D01*
X0647957Y0093186D01*
X0647957Y0092218D01*
X0647474Y0091735D01*
X0645539Y0091735D01*
X0645055Y0092218D01*
X0645055Y0093186D01*
X0645539Y0093670D01*
X0641706Y0092218D02*
X0641222Y0091735D01*
X0640739Y0091735D01*
X0640255Y0092218D01*
X0641222Y0087777D02*
X0640255Y0086809D01*
X0643157Y0086809D01*
X0643157Y0085842D02*
X0643157Y0087777D01*
X0645055Y0086809D02*
X0647957Y0086809D01*
X0647957Y0085842D02*
X0647957Y0087777D01*
X0646022Y0087777D02*
X0645055Y0086809D01*
X0646506Y0084830D02*
X0646506Y0082895D01*
X0645055Y0083379D02*
X0646506Y0084830D01*
X0647957Y0083379D02*
X0645055Y0083379D01*
X0643157Y0082895D02*
X0643157Y0084830D01*
X0641222Y0082895D01*
X0640739Y0082895D01*
X0640255Y0083379D01*
X0640255Y0084346D01*
X0640739Y0084830D01*
X0649855Y0082895D02*
X0650339Y0083863D01*
X0651306Y0084830D01*
X0651306Y0083379D01*
X0651790Y0082895D01*
X0652274Y0082895D01*
X0652757Y0083379D01*
X0652757Y0084346D01*
X0652274Y0084830D01*
X0651306Y0084830D01*
X0652757Y0085842D02*
X0652757Y0087777D01*
X0652757Y0086809D02*
X0649855Y0086809D01*
X0650822Y0087777D01*
X0654655Y0086809D02*
X0657557Y0086809D01*
X0657557Y0085842D02*
X0657557Y0087777D01*
X0655622Y0087777D02*
X0654655Y0086809D01*
X0655139Y0084830D02*
X0655622Y0084830D01*
X0656106Y0084346D01*
X0656106Y0083379D01*
X0656590Y0082895D01*
X0657074Y0082895D01*
X0657557Y0083379D01*
X0657557Y0084346D01*
X0657074Y0084830D01*
X0656590Y0084830D01*
X0656106Y0084346D01*
X0656106Y0083379D02*
X0655622Y0082895D01*
X0655139Y0082895D01*
X0654655Y0083379D01*
X0654655Y0084346D01*
X0655139Y0084830D01*
X0659455Y0084346D02*
X0659455Y0083379D01*
X0659939Y0082895D01*
X0661874Y0084830D01*
X0662357Y0084346D01*
X0662357Y0083379D01*
X0661874Y0082895D01*
X0659939Y0082895D01*
X0659455Y0084346D02*
X0659939Y0084830D01*
X0661874Y0084830D01*
X0662357Y0085842D02*
X0662357Y0087777D01*
X0660422Y0085842D01*
X0659939Y0085842D01*
X0659455Y0086325D01*
X0659455Y0087293D01*
X0659939Y0087777D01*
X0659939Y0091735D02*
X0659455Y0092218D01*
X0659455Y0093670D01*
X0662357Y0093670D01*
X0662357Y0092218D01*
X0661874Y0091735D01*
X0659939Y0091735D01*
X0657557Y0091735D02*
X0657557Y0093670D01*
X0655622Y0091735D01*
X0655139Y0091735D01*
X0654655Y0092218D01*
X0654655Y0093186D01*
X0655139Y0093670D01*
X0655622Y0094681D02*
X0657557Y0094681D01*
X0656106Y0094681D02*
X0656106Y0096616D01*
X0655622Y0096616D02*
X0654655Y0095649D01*
X0655622Y0094681D01*
X0655622Y0096616D02*
X0657557Y0096616D01*
X0659455Y0096616D02*
X0662357Y0094681D01*
X0659455Y0094681D01*
X0659455Y0096616D02*
X0662357Y0096616D01*
X0661874Y0097628D02*
X0660906Y0097628D01*
X0660906Y0098595D01*
X0659939Y0097628D02*
X0659455Y0098111D01*
X0659455Y0099079D01*
X0659939Y0099563D01*
X0661874Y0099563D01*
X0662357Y0099079D01*
X0662357Y0098111D01*
X0661874Y0097628D01*
X0664255Y0098595D02*
X0667157Y0098595D01*
X0667157Y0097628D02*
X0667157Y0099563D01*
X0665706Y0100574D02*
X0665706Y0102509D01*
X0664739Y0101542D02*
X0666674Y0101542D01*
X0665222Y0099563D02*
X0664255Y0098595D01*
X0664739Y0096616D02*
X0664255Y0096132D01*
X0664255Y0095165D01*
X0664739Y0094681D01*
X0665222Y0094681D01*
X0667157Y0096616D01*
X0667157Y0094681D01*
X0666190Y0093670D02*
X0667157Y0092702D01*
X0666190Y0091735D01*
X0664255Y0091735D01*
X0664255Y0093670D02*
X0666190Y0093670D01*
X0669055Y0093670D02*
X0670990Y0093670D01*
X0671957Y0092702D01*
X0670990Y0091735D01*
X0669055Y0091735D01*
X0669055Y0094681D02*
X0669055Y0096616D01*
X0670506Y0096616D01*
X0670022Y0095649D01*
X0670022Y0095165D01*
X0670506Y0094681D01*
X0671474Y0094681D01*
X0671957Y0095165D01*
X0671957Y0096132D01*
X0671474Y0096616D01*
X0670506Y0097628D02*
X0670506Y0099563D01*
X0669539Y0098595D02*
X0671474Y0098595D01*
X0673855Y0098111D02*
X0674339Y0097628D01*
X0676274Y0097628D01*
X0676757Y0098111D01*
X0676757Y0099079D01*
X0676274Y0099563D01*
X0674339Y0099563D01*
X0673855Y0099079D01*
X0673855Y0098111D01*
X0674339Y0096616D02*
X0676274Y0096616D01*
X0676757Y0096132D01*
X0676757Y0095165D01*
X0676274Y0094681D01*
X0674339Y0094681D01*
X0673855Y0095165D01*
X0673855Y0096132D01*
X0674339Y0096616D01*
X0673855Y0093670D02*
X0673855Y0091735D01*
X0673855Y0092702D02*
X0676757Y0092702D01*
X0678655Y0091735D02*
X0681557Y0093670D01*
X0681557Y0091735D02*
X0678655Y0093670D01*
X0678655Y0094681D02*
X0678655Y0096616D01*
X0678655Y0095649D02*
X0681557Y0095649D01*
X0682041Y0097628D02*
X0682041Y0099563D01*
X0681557Y0101542D02*
X0678655Y0101542D01*
X0678655Y0102509D02*
X0678655Y0100574D01*
X0676757Y0101058D02*
X0676757Y0102509D01*
X0673855Y0102509D01*
X0673855Y0101058D01*
X0674339Y0100574D01*
X0674822Y0100574D01*
X0675306Y0101058D01*
X0675306Y0102509D01*
X0675306Y0101058D02*
X0675790Y0100574D01*
X0676274Y0100574D01*
X0676757Y0101058D01*
X0679139Y0103521D02*
X0680106Y0103521D01*
X0680590Y0104004D01*
X0680590Y0105456D01*
X0681557Y0105456D02*
X0678655Y0105456D01*
X0678655Y0104004D01*
X0679139Y0103521D01*
X0680590Y0104488D02*
X0681557Y0103521D01*
X0681557Y0106467D02*
X0679622Y0106467D01*
X0678655Y0107435D01*
X0679622Y0108402D01*
X0681557Y0108402D01*
X0681074Y0109414D02*
X0678655Y0109414D01*
X0680106Y0108402D02*
X0680106Y0106467D01*
X0681074Y0109414D02*
X0681557Y0109897D01*
X0681557Y0110865D01*
X0681074Y0111349D01*
X0678655Y0111349D01*
X0652757Y0099079D02*
X0652757Y0098111D01*
X0652274Y0097628D01*
X0651306Y0097628D01*
X0651306Y0098595D01*
X0650339Y0097628D02*
X0649855Y0098111D01*
X0649855Y0099079D01*
X0650339Y0099563D01*
X0652274Y0099563D01*
X0652757Y0099079D01*
X0652757Y0096616D02*
X0649855Y0096616D01*
X0652757Y0094681D01*
X0649855Y0094681D01*
X0649855Y0093670D02*
X0649855Y0092218D01*
X0650339Y0091735D01*
X0652274Y0091735D01*
X0652757Y0092218D01*
X0652757Y0093670D01*
X0649855Y0093670D01*
X0647957Y0099592D02*
X0645055Y0099592D01*
X0646022Y0100559D01*
X0645055Y0101527D01*
X0647957Y0101527D01*
X0664255Y0087293D02*
X0664739Y0087777D01*
X0664255Y0087293D02*
X0664255Y0086325D01*
X0664739Y0085842D01*
X0665222Y0085842D01*
X0667157Y0087777D01*
X0667157Y0085842D01*
X0667157Y0084830D02*
X0665222Y0082895D01*
X0664739Y0082895D01*
X0664255Y0083379D01*
X0664255Y0084346D01*
X0664739Y0084830D01*
X0667157Y0084830D02*
X0667157Y0082895D01*
X0669055Y0083379D02*
X0670506Y0084830D01*
X0670506Y0082895D01*
X0671957Y0083379D02*
X0669055Y0083379D01*
X0669539Y0085842D02*
X0669055Y0086325D01*
X0669055Y0087293D01*
X0669539Y0087777D01*
X0669539Y0085842D02*
X0670022Y0085842D01*
X0671957Y0087777D01*
X0671957Y0085842D01*
X0673855Y0086325D02*
X0673855Y0087293D01*
X0674339Y0087777D01*
X0673855Y0086325D02*
X0674339Y0085842D01*
X0674822Y0085842D01*
X0676757Y0087777D01*
X0676757Y0085842D01*
X0676274Y0084830D02*
X0676757Y0084346D01*
X0676757Y0083379D01*
X0676274Y0082895D01*
X0675790Y0082895D01*
X0675306Y0083379D01*
X0675306Y0084830D01*
X0676274Y0084830D01*
X0675306Y0084830D02*
X0674339Y0083863D01*
X0673855Y0082895D01*
X0678655Y0083379D02*
X0679139Y0082895D01*
X0679622Y0082895D01*
X0680106Y0083379D01*
X0680106Y0084346D01*
X0679622Y0084830D01*
X0679139Y0084830D01*
X0678655Y0084346D01*
X0678655Y0083379D01*
X0680106Y0083379D02*
X0680590Y0082895D01*
X0681074Y0082895D01*
X0681557Y0083379D01*
X0681557Y0084346D01*
X0681074Y0084830D01*
X0680590Y0084830D01*
X0680106Y0084346D01*
X0679622Y0085842D02*
X0679139Y0085842D01*
X0678655Y0086325D01*
X0678655Y0087293D01*
X0679139Y0087777D01*
X0679622Y0085842D02*
X0681557Y0087777D01*
X0681557Y0085842D01*
X0681557Y0068133D02*
X0679622Y0066198D01*
X0679139Y0066198D01*
X0678655Y0066682D01*
X0678655Y0067650D01*
X0679139Y0068133D01*
X0676757Y0068133D02*
X0674822Y0066198D01*
X0674339Y0066198D01*
X0673855Y0066682D01*
X0673855Y0067650D01*
X0674339Y0068133D01*
X0671957Y0068133D02*
X0670022Y0066198D01*
X0669539Y0066198D01*
X0669055Y0066682D01*
X0669055Y0067650D01*
X0669539Y0068133D01*
X0667157Y0068133D02*
X0665222Y0066198D01*
X0664739Y0066198D01*
X0664255Y0066682D01*
X0664255Y0067650D01*
X0664739Y0068133D01*
X0662357Y0068133D02*
X0662357Y0066198D01*
X0662357Y0067166D02*
X0659455Y0067166D01*
X0660422Y0068133D01*
X0657557Y0068133D02*
X0657557Y0066198D01*
X0657557Y0067166D02*
X0654655Y0067166D01*
X0655622Y0068133D01*
X0652757Y0068133D02*
X0652757Y0066198D01*
X0652757Y0067166D02*
X0649855Y0067166D01*
X0650822Y0068133D01*
X0647957Y0068133D02*
X0647957Y0066198D01*
X0647957Y0067166D02*
X0645055Y0067166D01*
X0646022Y0068133D01*
X0643157Y0068133D02*
X0643157Y0066198D01*
X0643157Y0067166D02*
X0640255Y0067166D01*
X0641222Y0068133D01*
X0638357Y0067650D02*
X0638357Y0066682D01*
X0637874Y0066198D01*
X0635939Y0066198D01*
X0635455Y0066682D01*
X0635455Y0067650D01*
X0635939Y0068133D01*
X0636422Y0068133D01*
X0636906Y0067650D01*
X0636906Y0066198D01*
X0638357Y0067650D02*
X0637874Y0068133D01*
X0633557Y0068133D02*
X0633074Y0068133D01*
X0631139Y0066198D01*
X0630655Y0066198D01*
X0630655Y0068133D01*
X0628757Y0067650D02*
X0628274Y0068133D01*
X0628757Y0067650D02*
X0628757Y0066682D01*
X0628274Y0066198D01*
X0627306Y0066198D01*
X0626822Y0066682D01*
X0626822Y0067166D01*
X0627306Y0068133D01*
X0625855Y0068133D01*
X0625855Y0066198D01*
X0623957Y0066682D02*
X0623474Y0066198D01*
X0622990Y0066198D01*
X0622506Y0066682D01*
X0622506Y0067166D01*
X0622506Y0066682D02*
X0622022Y0066198D01*
X0621539Y0066198D01*
X0621055Y0066682D01*
X0621055Y0067650D01*
X0621539Y0068133D01*
X0623474Y0068133D02*
X0623957Y0067650D01*
X0623957Y0066682D01*
X0623957Y0062240D02*
X0621055Y0062240D01*
X0623957Y0060305D01*
X0621055Y0060305D01*
X0621055Y0059294D02*
X0621055Y0057359D01*
X0622022Y0056347D02*
X0621055Y0055380D01*
X0622022Y0054412D01*
X0623957Y0054412D01*
X0623474Y0053401D02*
X0623957Y0052917D01*
X0623957Y0051950D01*
X0623474Y0051466D01*
X0621055Y0051466D01*
X0621055Y0050454D02*
X0623957Y0050454D01*
X0623957Y0048519D01*
X0623957Y0046540D02*
X0621055Y0046540D01*
X0621055Y0045573D02*
X0621055Y0047508D01*
X0618674Y0051466D02*
X0619157Y0051950D01*
X0619157Y0052917D01*
X0618674Y0053401D01*
X0618190Y0054412D02*
X0616255Y0054412D01*
X0616739Y0053401D02*
X0616255Y0052917D01*
X0616255Y0051950D01*
X0616739Y0051466D01*
X0617222Y0051466D01*
X0617706Y0051950D01*
X0618190Y0051466D01*
X0618674Y0051466D01*
X0617706Y0051950D02*
X0617706Y0052433D01*
X0618190Y0054412D02*
X0619157Y0055380D01*
X0618190Y0056347D01*
X0616255Y0056347D01*
X0616739Y0057359D02*
X0617222Y0057359D01*
X0617706Y0057843D01*
X0618190Y0057359D01*
X0618674Y0057359D01*
X0619157Y0057843D01*
X0619157Y0058810D01*
X0618674Y0059294D01*
X0617706Y0058326D02*
X0617706Y0057843D01*
X0616739Y0057359D02*
X0616255Y0057843D01*
X0616255Y0058810D01*
X0616739Y0059294D01*
X0617706Y0060305D02*
X0617706Y0062240D01*
X0616739Y0061273D02*
X0618674Y0061273D01*
X0621055Y0059294D02*
X0623957Y0059294D01*
X0622506Y0059294D02*
X0622506Y0058326D01*
X0622506Y0056347D02*
X0622506Y0054412D01*
X0623474Y0053401D02*
X0621055Y0053401D01*
X0622022Y0056347D02*
X0623957Y0056347D01*
X0625855Y0055864D02*
X0626339Y0056347D01*
X0628274Y0056347D01*
X0628757Y0055864D01*
X0628757Y0054896D01*
X0628274Y0054412D01*
X0628757Y0053401D02*
X0628757Y0051466D01*
X0628757Y0053401D02*
X0625855Y0053401D01*
X0626339Y0054412D02*
X0625855Y0054896D01*
X0625855Y0055864D01*
X0626339Y0057359D02*
X0625855Y0057843D01*
X0625855Y0058810D01*
X0626339Y0059294D01*
X0626822Y0059294D01*
X0627306Y0058810D01*
X0627306Y0057843D01*
X0627790Y0057359D01*
X0628274Y0057359D01*
X0628757Y0057843D01*
X0628757Y0058810D01*
X0628274Y0059294D01*
X0628274Y0060305D02*
X0628757Y0060789D01*
X0628757Y0061757D01*
X0628274Y0062240D01*
X0627306Y0061757D02*
X0626822Y0062240D01*
X0626339Y0062240D01*
X0625855Y0061757D01*
X0625855Y0060789D01*
X0626339Y0060305D01*
X0627306Y0060789D02*
X0627790Y0060305D01*
X0628274Y0060305D01*
X0627306Y0060789D02*
X0627306Y0061757D01*
X0630655Y0061757D02*
X0631139Y0062240D01*
X0633074Y0062240D01*
X0633557Y0061757D01*
X0633557Y0060789D01*
X0633074Y0060305D01*
X0632106Y0060305D01*
X0632106Y0061273D01*
X0631139Y0060305D02*
X0630655Y0060789D01*
X0630655Y0061757D01*
X0630655Y0059294D02*
X0633557Y0057359D01*
X0630655Y0057359D01*
X0630655Y0056347D02*
X0630655Y0054896D01*
X0631139Y0054412D01*
X0633074Y0054412D01*
X0633557Y0054896D01*
X0633557Y0056347D01*
X0630655Y0056347D01*
X0630655Y0059294D02*
X0633557Y0059294D01*
X0635455Y0058810D02*
X0635939Y0059294D01*
X0636422Y0059294D01*
X0636906Y0058810D01*
X0636906Y0057843D01*
X0637390Y0057359D01*
X0637874Y0057359D01*
X0638357Y0057843D01*
X0638357Y0058810D01*
X0637874Y0059294D01*
X0637874Y0060305D02*
X0638357Y0060789D01*
X0638357Y0061757D01*
X0637874Y0062240D01*
X0635939Y0062240D01*
X0635455Y0061757D01*
X0635455Y0060789D01*
X0635939Y0060305D01*
X0635455Y0058810D02*
X0635455Y0057843D01*
X0635939Y0057359D01*
X0636422Y0056347D02*
X0635455Y0055380D01*
X0636422Y0054412D01*
X0638357Y0054412D01*
X0636906Y0054412D02*
X0636906Y0056347D01*
X0636422Y0056347D02*
X0638357Y0056347D01*
X0640255Y0056347D02*
X0643157Y0054412D01*
X0640255Y0054412D01*
X0640255Y0053401D02*
X0640255Y0051950D01*
X0640739Y0051466D01*
X0642674Y0051466D01*
X0643157Y0051950D01*
X0643157Y0053401D01*
X0640255Y0053401D01*
X0640255Y0056347D02*
X0643157Y0056347D01*
X0642674Y0057359D02*
X0641706Y0057359D01*
X0641706Y0058326D01*
X0640739Y0057359D02*
X0640255Y0057843D01*
X0640255Y0058810D01*
X0640739Y0059294D01*
X0642674Y0059294D01*
X0643157Y0058810D01*
X0643157Y0057843D01*
X0642674Y0057359D01*
X0645055Y0057843D02*
X0645539Y0057359D01*
X0645055Y0057843D02*
X0645055Y0058810D01*
X0645539Y0059294D01*
X0646022Y0059294D01*
X0646506Y0058810D01*
X0646506Y0057843D01*
X0646990Y0057359D01*
X0647474Y0057359D01*
X0647957Y0057843D01*
X0647957Y0058810D01*
X0647474Y0059294D01*
X0649855Y0059294D02*
X0650822Y0058326D01*
X0649855Y0057359D01*
X0652757Y0057359D01*
X0652274Y0056347D02*
X0652757Y0055864D01*
X0652757Y0054896D01*
X0652274Y0054412D01*
X0650339Y0054412D01*
X0649855Y0054896D01*
X0649855Y0055864D01*
X0650339Y0056347D01*
X0652274Y0056347D01*
X0654655Y0055864D02*
X0654655Y0054896D01*
X0655139Y0054412D01*
X0657074Y0056347D01*
X0657557Y0055864D01*
X0657557Y0054896D01*
X0657074Y0054412D01*
X0655139Y0054412D01*
X0654655Y0055864D02*
X0655139Y0056347D01*
X0657074Y0056347D01*
X0657557Y0057359D02*
X0655622Y0057359D01*
X0654655Y0058326D01*
X0655622Y0059294D01*
X0657557Y0059294D01*
X0656106Y0059294D02*
X0656106Y0057359D01*
X0659455Y0058326D02*
X0660422Y0057359D01*
X0662357Y0057359D01*
X0662357Y0056347D02*
X0662357Y0054412D01*
X0662357Y0055380D02*
X0659455Y0055380D01*
X0660422Y0056347D01*
X0660906Y0057359D02*
X0660906Y0059294D01*
X0660422Y0059294D02*
X0659455Y0058326D01*
X0660422Y0059294D02*
X0662357Y0059294D01*
X0664739Y0058326D02*
X0666674Y0058326D01*
X0665706Y0059294D02*
X0665706Y0057359D01*
X0665222Y0056347D02*
X0664255Y0055380D01*
X0667157Y0055380D01*
X0667157Y0056347D02*
X0667157Y0054412D01*
X0667157Y0053401D02*
X0665222Y0051466D01*
X0664739Y0051466D01*
X0664255Y0051950D01*
X0664255Y0052917D01*
X0664739Y0053401D01*
X0667157Y0053401D02*
X0667157Y0051466D01*
X0666190Y0050454D02*
X0667157Y0049487D01*
X0666190Y0048519D01*
X0664255Y0048519D01*
X0664255Y0050454D02*
X0666190Y0050454D01*
X0669055Y0051466D02*
X0670990Y0051466D01*
X0671957Y0052433D01*
X0670990Y0053401D01*
X0669055Y0053401D01*
X0669055Y0054412D02*
X0669055Y0056347D01*
X0670506Y0056347D01*
X0670022Y0055380D01*
X0670022Y0054896D01*
X0670506Y0054412D01*
X0671474Y0054412D01*
X0671957Y0054896D01*
X0671957Y0055864D01*
X0671474Y0056347D01*
X0670506Y0057359D02*
X0670506Y0059294D01*
X0669539Y0058326D02*
X0671474Y0058326D01*
X0673855Y0057843D02*
X0674339Y0057359D01*
X0673855Y0057843D02*
X0673855Y0058810D01*
X0674339Y0059294D01*
X0676274Y0059294D01*
X0676757Y0058810D01*
X0676757Y0057843D01*
X0676274Y0057359D01*
X0675306Y0057359D01*
X0675306Y0058326D01*
X0673855Y0056347D02*
X0676757Y0054412D01*
X0673855Y0054412D01*
X0673855Y0053401D02*
X0673855Y0051950D01*
X0674339Y0051466D01*
X0676274Y0051466D01*
X0676757Y0051950D01*
X0676757Y0053401D01*
X0673855Y0053401D01*
X0673855Y0056347D02*
X0676757Y0056347D01*
X0678655Y0055380D02*
X0679622Y0054412D01*
X0681557Y0054412D01*
X0681557Y0053401D02*
X0678655Y0053401D01*
X0678655Y0051950D01*
X0679139Y0051466D01*
X0680106Y0051466D01*
X0680590Y0051950D01*
X0680590Y0053401D01*
X0680590Y0052433D02*
X0681557Y0051466D01*
X0681557Y0049487D02*
X0678655Y0049487D01*
X0678655Y0050454D02*
X0678655Y0048519D01*
X0682041Y0047508D02*
X0682041Y0045573D01*
X0681557Y0044561D02*
X0678655Y0044561D01*
X0678655Y0043110D01*
X0679139Y0042626D01*
X0680106Y0042626D01*
X0680590Y0043110D01*
X0680590Y0044561D01*
X0680590Y0043594D02*
X0681557Y0042626D01*
X0681557Y0041615D02*
X0678655Y0039680D01*
X0678655Y0041615D02*
X0681557Y0039680D01*
X0680106Y0054412D02*
X0680106Y0056347D01*
X0679622Y0056347D02*
X0678655Y0055380D01*
X0679622Y0056347D02*
X0681557Y0056347D01*
X0681074Y0057359D02*
X0678655Y0057359D01*
X0678655Y0059294D02*
X0681074Y0059294D01*
X0681557Y0058810D01*
X0681557Y0057843D01*
X0681074Y0057359D01*
X0679139Y0063252D02*
X0681074Y0065187D01*
X0681557Y0065187D01*
X0681557Y0066198D02*
X0681557Y0068133D01*
X0678655Y0065187D02*
X0678655Y0063252D01*
X0679139Y0063252D01*
X0676757Y0063736D02*
X0676757Y0064703D01*
X0676274Y0065187D01*
X0675306Y0065187D02*
X0674822Y0064219D01*
X0674822Y0063736D01*
X0675306Y0063252D01*
X0676274Y0063252D01*
X0676757Y0063736D01*
X0675306Y0065187D02*
X0673855Y0065187D01*
X0673855Y0063252D01*
X0671957Y0063736D02*
X0671957Y0064703D01*
X0671474Y0065187D01*
X0671957Y0066198D02*
X0671957Y0068133D01*
X0669539Y0065187D02*
X0669055Y0064703D01*
X0669055Y0063736D01*
X0669539Y0063252D01*
X0670022Y0063252D01*
X0670506Y0063736D01*
X0670990Y0063252D01*
X0671474Y0063252D01*
X0671957Y0063736D01*
X0670506Y0063736D02*
X0670506Y0064219D01*
X0667157Y0064219D02*
X0664255Y0064219D01*
X0665222Y0065187D01*
X0667157Y0065187D02*
X0667157Y0063252D01*
X0667157Y0066198D02*
X0667157Y0068133D01*
X0662357Y0064703D02*
X0662357Y0063736D01*
X0661874Y0063252D01*
X0659939Y0063252D01*
X0659455Y0063736D01*
X0659455Y0064703D01*
X0659939Y0065187D01*
X0660422Y0065187D01*
X0660906Y0064703D01*
X0660906Y0063252D01*
X0662357Y0064703D02*
X0661874Y0065187D01*
X0657557Y0065187D02*
X0657074Y0065187D01*
X0655139Y0063252D01*
X0654655Y0063252D01*
X0654655Y0065187D01*
X0652757Y0064703D02*
X0652274Y0065187D01*
X0652757Y0064703D02*
X0652757Y0063736D01*
X0652274Y0063252D01*
X0651306Y0063252D01*
X0650822Y0063736D01*
X0650822Y0064219D01*
X0651306Y0065187D01*
X0649855Y0065187D01*
X0649855Y0063252D01*
X0647957Y0063736D02*
X0647957Y0064703D01*
X0647474Y0065187D01*
X0646506Y0064219D02*
X0646506Y0063736D01*
X0646990Y0063252D01*
X0647474Y0063252D01*
X0647957Y0063736D01*
X0646506Y0063736D02*
X0646022Y0063252D01*
X0645539Y0063252D01*
X0645055Y0063736D01*
X0645055Y0064703D01*
X0645539Y0065187D01*
X0643157Y0065187D02*
X0643157Y0063252D01*
X0643157Y0064219D02*
X0640255Y0064219D01*
X0641222Y0065187D01*
X0649855Y0059294D02*
X0652757Y0059294D01*
X0647957Y0055864D02*
X0647474Y0056347D01*
X0645539Y0056347D01*
X0645055Y0055864D01*
X0645055Y0054896D01*
X0645539Y0054412D01*
X0645055Y0053401D02*
X0647957Y0053401D01*
X0647957Y0051466D01*
X0647957Y0050454D02*
X0645055Y0050454D01*
X0646506Y0049971D02*
X0647957Y0048519D01*
X0649855Y0049487D02*
X0649855Y0050454D01*
X0649855Y0049971D02*
X0652757Y0049971D01*
X0652757Y0050454D02*
X0652757Y0049487D01*
X0652274Y0051466D02*
X0652757Y0051950D01*
X0652757Y0052917D01*
X0652274Y0053401D01*
X0651306Y0052917D02*
X0650822Y0053401D01*
X0650339Y0053401D01*
X0649855Y0052917D01*
X0649855Y0051950D01*
X0650339Y0051466D01*
X0651306Y0051950D02*
X0651790Y0051466D01*
X0652274Y0051466D01*
X0651306Y0051950D02*
X0651306Y0052917D01*
X0647957Y0054896D02*
X0647474Y0054412D01*
X0647957Y0054896D02*
X0647957Y0055864D01*
X0646990Y0050454D02*
X0645055Y0048519D01*
X0619157Y0066198D02*
X0619157Y0068133D01*
X0619157Y0067166D02*
X0616255Y0067166D01*
X0617222Y0068133D01*
X0611807Y0068379D02*
X0610356Y0068379D01*
X0609872Y0067896D01*
X0610356Y0067412D01*
X0611807Y0067412D01*
X0610356Y0068379D02*
X0609872Y0068863D01*
X0609872Y0069347D01*
X0611807Y0069347D01*
X0611324Y0070359D02*
X0610356Y0070359D01*
X0609872Y0070842D01*
X0609872Y0071810D01*
X0610356Y0072293D01*
X0611324Y0072293D01*
X0611807Y0071810D01*
X0611807Y0070842D01*
X0611324Y0070359D01*
X0611807Y0073290D02*
X0611324Y0073774D01*
X0609389Y0073774D01*
X0609872Y0074258D02*
X0609872Y0073290D01*
X0609872Y0075255D02*
X0609872Y0076222D01*
X0609389Y0075738D02*
X0611324Y0075738D01*
X0611807Y0075255D01*
X0611324Y0077234D02*
X0610356Y0077234D01*
X0609872Y0077717D01*
X0609872Y0078685D01*
X0610356Y0079169D01*
X0611324Y0079169D01*
X0611807Y0078685D01*
X0611807Y0077717D01*
X0611324Y0077234D01*
X0611324Y0080180D02*
X0610356Y0080180D01*
X0609872Y0080664D01*
X0609872Y0082115D01*
X0608905Y0082115D02*
X0611807Y0082115D01*
X0611807Y0080664D01*
X0611324Y0080180D01*
X0611807Y0083112D02*
X0610840Y0084080D01*
X0609872Y0084080D01*
X0608905Y0083112D01*
X0609389Y0088038D02*
X0609872Y0088038D01*
X0610356Y0088521D01*
X0610356Y0089973D01*
X0608905Y0089973D02*
X0608905Y0088521D01*
X0609389Y0088038D01*
X0610356Y0088521D02*
X0610840Y0088038D01*
X0611324Y0088038D01*
X0611807Y0088521D01*
X0611807Y0089973D01*
X0608905Y0089973D01*
X0608905Y0090969D02*
X0608905Y0091937D01*
X0608905Y0091453D02*
X0611807Y0091453D01*
X0611807Y0091937D02*
X0611807Y0090969D01*
X0611324Y0092948D02*
X0609389Y0092948D01*
X0608905Y0093432D01*
X0608905Y0094883D01*
X0611807Y0094883D01*
X0611807Y0093432D01*
X0611324Y0092948D01*
X0616255Y0093670D02*
X0618674Y0093670D01*
X0617706Y0094681D02*
X0617706Y0096616D01*
X0617222Y0096616D02*
X0619157Y0096616D01*
X0621055Y0097628D02*
X0621055Y0099563D01*
X0623957Y0099563D01*
X0623957Y0097628D01*
X0622506Y0098595D02*
X0622506Y0099563D01*
X0622506Y0100574D02*
X0622990Y0101058D01*
X0622990Y0102509D01*
X0623957Y0102509D02*
X0621055Y0102509D01*
X0621055Y0101058D01*
X0621539Y0100574D01*
X0622506Y0100574D01*
X0622990Y0101542D02*
X0623957Y0100574D01*
X0623957Y0103521D02*
X0621055Y0103521D01*
X0621055Y0105456D02*
X0623957Y0103521D01*
X0623957Y0105456D02*
X0621055Y0105456D01*
X0618190Y0099563D02*
X0616255Y0099563D01*
X0676757Y0068133D02*
X0676757Y0066198D01*
X0611807Y0062486D02*
X0609872Y0061519D01*
X0609872Y0060507D02*
X0609872Y0060024D01*
X0611807Y0060024D01*
X0611807Y0060507D02*
X0611807Y0059540D01*
X0611324Y0058543D02*
X0610356Y0058543D01*
X0609872Y0058059D01*
X0609872Y0057092D01*
X0610356Y0056608D01*
X0610840Y0056608D01*
X0610840Y0058543D01*
X0611324Y0058543D02*
X0611807Y0058059D01*
X0611807Y0057092D01*
X0611324Y0055597D02*
X0611807Y0055113D01*
X0611324Y0054629D01*
X0611807Y0054145D01*
X0611324Y0053662D01*
X0609872Y0053662D01*
X0608905Y0052650D02*
X0609872Y0051683D01*
X0610840Y0051683D01*
X0611807Y0052650D01*
X0611324Y0055597D02*
X0609872Y0055597D01*
X0608905Y0060024D02*
X0608421Y0060024D01*
X0609872Y0063454D02*
X0611807Y0062486D01*
D12*
X0765707Y0357933D03*
X0765707Y0358233D03*
X0765707Y0358533D03*
X0765707Y0358833D03*
X0765707Y0359133D03*
D13*
X0765107Y0361233D03*
X0765107Y0361533D03*
X0765107Y0361833D03*
X0765107Y0362133D03*
X0765107Y0362433D03*
X0765107Y0362733D03*
X0765107Y0363033D03*
X0765107Y0363333D03*
X0765107Y0363633D03*
X0765107Y0363933D03*
X0765107Y0364233D03*
X0765107Y0364533D03*
X0765107Y0364833D03*
X0765107Y0366333D03*
X0765107Y0366633D03*
X0765107Y0366933D03*
X0765107Y0367233D03*
X0765107Y0367533D03*
X0765107Y0367833D03*
X0765107Y0368133D03*
X0765107Y0368433D03*
X0765107Y0368733D03*
X0765107Y0369033D03*
X0761207Y0369033D03*
X0761207Y0368733D03*
X0761207Y0368433D03*
X0761207Y0368133D03*
X0761207Y0367833D03*
X0761207Y0367533D03*
X0761207Y0367233D03*
X0761207Y0366933D03*
X0761207Y0366633D03*
X0761207Y0366333D03*
X0761207Y0364833D03*
X0761207Y0364533D03*
X0761207Y0364233D03*
X0761207Y0363933D03*
X0761207Y0363633D03*
X0761207Y0363333D03*
X0761207Y0363033D03*
X0761207Y0362733D03*
X0761207Y0362433D03*
X0761207Y0362133D03*
X0761207Y0361833D03*
X0761207Y0361533D03*
X0761207Y0361233D03*
X0758207Y0361533D03*
X0758207Y0361833D03*
X0758207Y0362133D03*
X0758207Y0362433D03*
X0755207Y0361833D03*
X0755207Y0361533D03*
X0756707Y0366333D03*
X0756707Y0366633D03*
X0756707Y0366933D03*
X0753707Y0367833D03*
X0750107Y0367833D03*
X0750107Y0367533D03*
X0750107Y0367233D03*
X0750107Y0366933D03*
X0750107Y0366633D03*
X0750107Y0366333D03*
X0750107Y0366033D03*
X0750107Y0365733D03*
X0750107Y0365433D03*
X0750107Y0365133D03*
X0750107Y0364833D03*
X0750107Y0364533D03*
X0750107Y0364233D03*
X0750107Y0363933D03*
X0750107Y0363633D03*
X0750107Y0363333D03*
X0750107Y0363033D03*
X0750107Y0362733D03*
X0750107Y0362433D03*
X0750107Y0362133D03*
X0750107Y0361833D03*
X0750107Y0361533D03*
X0750107Y0361233D03*
X0750107Y0360933D03*
X0750107Y0360633D03*
X0750107Y0360333D03*
X0750107Y0360033D03*
X0750107Y0359733D03*
X0750107Y0359433D03*
X0750107Y0368133D03*
X0750107Y0368433D03*
X0750107Y0368733D03*
X0750107Y0369033D03*
X0750107Y0369333D03*
X0750107Y0369633D03*
X0750107Y0369933D03*
X0750107Y0370233D03*
X0750107Y0370533D03*
X0750107Y0370833D03*
X0750107Y0371133D03*
X0750107Y0371433D03*
X0750107Y0371733D03*
X0750107Y0372033D03*
X0750107Y0372333D03*
X0750107Y0372633D03*
X0750107Y0372933D03*
X0752507Y0373533D03*
X0752807Y0372033D03*
X0767507Y0363933D03*
X0767507Y0363633D03*
X0767507Y0363333D03*
X0767507Y0363033D03*
X0767807Y0362433D03*
X0767807Y0364233D03*
X0771407Y0366633D03*
X0771407Y0366933D03*
X0771407Y0367233D03*
X0771407Y0367533D03*
X0773807Y0366633D03*
X0773807Y0366333D03*
X0773807Y0366033D03*
X0773807Y0365733D03*
X0773807Y0365433D03*
X0773807Y0365133D03*
X0773807Y0364833D03*
X0773807Y0364533D03*
X0773807Y0364233D03*
X0773807Y0363933D03*
X0773807Y0363633D03*
X0777707Y0363633D03*
X0777707Y0363933D03*
X0777707Y0364233D03*
X0777707Y0366033D03*
X0777707Y0366333D03*
X0777707Y0366633D03*
X0775907Y0369333D03*
X0774107Y0367533D03*
X0781307Y0367533D03*
X0781307Y0367233D03*
X0781307Y0366933D03*
X0781307Y0366633D03*
X0781307Y0366333D03*
X0781307Y0366033D03*
X0781307Y0365733D03*
X0781307Y0365433D03*
X0781307Y0365133D03*
X0781307Y0364833D03*
X0781307Y0364533D03*
X0781307Y0364233D03*
X0781307Y0363933D03*
X0781307Y0363633D03*
X0781307Y0363333D03*
X0781307Y0363033D03*
X0781307Y0362733D03*
X0781307Y0362433D03*
X0781307Y0362133D03*
X0781307Y0361833D03*
X0781307Y0361533D03*
X0781307Y0361233D03*
X0781307Y0360933D03*
X0781307Y0360633D03*
X0781307Y0360333D03*
X0781307Y0360033D03*
X0781307Y0359733D03*
X0781307Y0359433D03*
X0781307Y0367833D03*
X0781307Y0368133D03*
X0781307Y0368433D03*
X0781307Y0368733D03*
X0781307Y0369033D03*
X0781307Y0369333D03*
X0781307Y0369633D03*
X0781307Y0369933D03*
X0781307Y0370233D03*
X0781307Y0370533D03*
X0781307Y0370833D03*
X0781307Y0371133D03*
X0781307Y0371433D03*
D14*
X0775907Y0361233D03*
D15*
X0769757Y0361233D03*
X0769157Y0369033D03*
X0775757Y0369033D03*
D16*
X0775757Y0368733D03*
X0769757Y0365433D03*
X0769157Y0365133D03*
X0775757Y0361533D03*
D17*
X0775757Y0361833D03*
X0769757Y0361533D03*
X0769457Y0368433D03*
X0775757Y0368433D03*
D18*
X0775757Y0368133D03*
X0769757Y0361833D03*
D19*
X0775907Y0362133D03*
D20*
X0774407Y0362433D03*
X0771107Y0362133D03*
X0768107Y0362133D03*
X0768107Y0364533D03*
X0770807Y0366033D03*
X0758207Y0363933D03*
X0758207Y0363633D03*
X0758207Y0363333D03*
X0756707Y0365133D03*
X0756707Y0365433D03*
X0755207Y0363333D03*
X0755207Y0363033D03*
D21*
X0755057Y0362733D03*
X0755057Y0362433D03*
X0755057Y0362133D03*
X0758057Y0362733D03*
X0758057Y0363033D03*
X0756557Y0365733D03*
X0756557Y0366033D03*
X0770957Y0368133D03*
X0771257Y0366333D03*
X0773957Y0366933D03*
X0773957Y0367233D03*
X0774257Y0367833D03*
X0777257Y0367833D03*
X0777557Y0367533D03*
X0777557Y0367233D03*
X0777557Y0366933D03*
X0777857Y0365733D03*
X0777857Y0365433D03*
X0777857Y0365133D03*
X0777857Y0364833D03*
X0777857Y0364533D03*
X0777557Y0363333D03*
X0777557Y0363033D03*
X0777557Y0362733D03*
X0777257Y0362433D03*
X0774257Y0362733D03*
X0773957Y0363033D03*
X0773957Y0363333D03*
D22*
X0771557Y0362433D03*
X0767657Y0362733D03*
X0767957Y0368133D03*
X0771257Y0367833D03*
X0759257Y0367833D03*
X0759257Y0367533D03*
X0759257Y0367233D03*
X0758957Y0366633D03*
X0758957Y0366333D03*
X0758957Y0366033D03*
X0758957Y0365733D03*
X0758957Y0365433D03*
X0759257Y0368133D03*
X0759257Y0368433D03*
X0759257Y0368733D03*
X0759257Y0369033D03*
X0755957Y0364533D03*
X0755957Y0364233D03*
X0754457Y0364233D03*
X0754457Y0363933D03*
X0754457Y0363633D03*
X0754457Y0364533D03*
X0754457Y0364833D03*
X0754157Y0365133D03*
X0754157Y0365433D03*
X0754157Y0365733D03*
X0754157Y0366033D03*
X0754157Y0366333D03*
X0753857Y0366633D03*
X0753857Y0366933D03*
X0753857Y0367233D03*
X0753857Y0367533D03*
X0753557Y0368133D03*
X0753557Y0368433D03*
X0753557Y0368733D03*
X0753557Y0369033D03*
X0753257Y0369333D03*
X0753257Y0369633D03*
X0753257Y0369933D03*
X0753257Y0370233D03*
X0753257Y0370533D03*
X0752957Y0370833D03*
X0752957Y0371133D03*
X0752957Y0371433D03*
X0752957Y0371733D03*
X0752657Y0372333D03*
X0752657Y0372633D03*
X0752657Y0372933D03*
X0752657Y0373233D03*
X0752357Y0373833D03*
X0752357Y0374133D03*
X0752357Y0374433D03*
X0752357Y0374733D03*
D23*
X0767657Y0367833D03*
X0771857Y0362733D03*
D24*
X0769307Y0369333D03*
X0759107Y0366933D03*
X0758807Y0365133D03*
X0758807Y0364833D03*
X0758807Y0364533D03*
X0757307Y0364533D03*
X0757307Y0364833D03*
X0756107Y0364833D03*
X0755807Y0363933D03*
X0755807Y0363633D03*
D25*
X0758057Y0364233D03*
D26*
X0768707Y0364833D03*
X0770207Y0365733D03*
D27*
X0763157Y0365733D03*
X0763157Y0365433D03*
X0763157Y0365133D03*
X0763157Y0366033D03*
D28*
X0769307Y0368733D03*
D29*
X0768557Y0371733D03*
X0768557Y0372033D03*
X0768557Y0372333D03*
X0768557Y0372633D03*
X0768557Y0372933D03*
D30*
X0768362Y0355987D02*
X0766894Y0355987D01*
X0766160Y0355253D01*
X0769096Y0352317D01*
X0768362Y0351583D01*
X0766894Y0351583D01*
X0766160Y0352317D01*
X0766160Y0355253D01*
X0764492Y0355253D02*
X0763758Y0355987D01*
X0762290Y0355987D01*
X0761556Y0355253D01*
X0764492Y0352317D01*
X0763758Y0351583D01*
X0762290Y0351583D01*
X0761556Y0352317D01*
X0761556Y0355253D01*
X0759888Y0355253D02*
X0759154Y0355987D01*
X0757686Y0355987D01*
X0756952Y0355253D01*
X0759888Y0352317D01*
X0759154Y0351583D01*
X0757686Y0351583D01*
X0756952Y0352317D01*
X0756952Y0355253D01*
X0755284Y0355253D02*
X0754550Y0355987D01*
X0753082Y0355987D01*
X0752348Y0355253D01*
X0755284Y0352317D01*
X0754550Y0351583D01*
X0753082Y0351583D01*
X0752348Y0352317D01*
X0752348Y0355253D01*
X0750680Y0355253D02*
X0749946Y0355987D01*
X0748478Y0355987D01*
X0747744Y0355253D01*
X0747744Y0354519D01*
X0750680Y0351583D01*
X0747744Y0351583D01*
X0755284Y0352317D02*
X0755284Y0355253D01*
X0759888Y0355253D02*
X0759888Y0352317D01*
X0764492Y0352317D02*
X0764492Y0355253D01*
X0768362Y0355987D02*
X0769096Y0355253D01*
X0769096Y0352317D01*
X0770764Y0352317D02*
X0771498Y0351583D01*
X0772966Y0351583D01*
X0773699Y0352317D01*
X0770764Y0355253D01*
X0770764Y0352317D01*
X0773699Y0352317D02*
X0773699Y0355253D01*
X0772966Y0355987D01*
X0771498Y0355987D01*
X0770764Y0355253D01*
X0775368Y0355253D02*
X0775368Y0353785D01*
X0776102Y0353051D01*
X0778303Y0353051D01*
X0776836Y0353051D02*
X0775368Y0351583D01*
X0778303Y0351583D02*
X0778303Y0355987D01*
X0776102Y0355987D01*
X0775368Y0355253D01*
X0779972Y0355987D02*
X0779972Y0351583D01*
X0779972Y0353785D02*
X0782907Y0353785D01*
X0782907Y0351583D02*
X0782907Y0355987D01*
M02*
