G75*
%MOIN*%
%OFA0B0*%
%FSLAX25Y25*%
%IPPOS*%
%LPD*%
%AMOC8*
5,1,8,0,0,1.08239X$1,22.5*
%
%ADD10C,0.00500*%
%ADD11R,0.32700X0.00300*%
%ADD12R,0.01500X0.00300*%
%ADD13R,0.02700X0.00300*%
%ADD14R,0.03000X0.00300*%
%ADD15R,0.03600X0.00300*%
%ADD16R,0.04200X0.00300*%
%ADD17R,0.04800X0.00300*%
%ADD18R,0.04500X0.00300*%
%ADD19R,0.02100X0.00300*%
%ADD20R,0.01800X0.00300*%
%ADD21R,0.01200X0.00300*%
%ADD22R,0.00600X0.00300*%
%ADD23R,0.00900X0.00300*%
%ADD24R,0.02400X0.00300*%
%ADD25R,0.03300X0.00300*%
%ADD26R,0.05400X0.00300*%
%ADD27R,0.03900X0.00300*%
%ADD28R,0.27000X0.00300*%
%ADD29C,0.00600*%
%ADD30C,0.00300*%
D10*
X0316824Y0060285D02*
X0319826Y0060285D01*
X0321394Y0061036D02*
X0322896Y0061036D01*
X0322145Y0061787D02*
X0322145Y0058784D01*
X0321394Y0058033D01*
X0324497Y0058033D02*
X0324497Y0061036D01*
X0327499Y0061036D02*
X0327499Y0058784D01*
X0326749Y0058033D01*
X0324497Y0058033D01*
X0329101Y0058784D02*
X0329101Y0060285D01*
X0329852Y0061036D01*
X0331353Y0061036D01*
X0332103Y0060285D01*
X0332103Y0058784D01*
X0331353Y0058033D01*
X0329852Y0058033D01*
X0329101Y0058784D01*
X0333705Y0059535D02*
X0333705Y0062537D01*
X0333705Y0059535D02*
X0335206Y0058033D01*
X0336707Y0059535D01*
X0336707Y0062537D01*
X0453866Y0061787D02*
X0453866Y0061036D01*
X0454617Y0060285D01*
X0456868Y0060285D01*
X0454617Y0060285D02*
X0453866Y0059535D01*
X0453866Y0058784D01*
X0454617Y0058033D01*
X0456868Y0058033D01*
X0456868Y0062537D01*
X0454617Y0062537D01*
X0453866Y0061787D01*
X0458436Y0062537D02*
X0459938Y0062537D01*
X0459187Y0062537D02*
X0459187Y0058033D01*
X0459938Y0058033D02*
X0458436Y0058033D01*
X0461539Y0058784D02*
X0461539Y0061787D01*
X0462290Y0062537D01*
X0464542Y0062537D01*
X0464542Y0058033D01*
X0462290Y0058033D01*
X0461539Y0058784D01*
X0470747Y0058033D02*
X0473749Y0058033D01*
X0473749Y0058784D01*
X0470747Y0061787D01*
X0470747Y0062537D01*
X0473749Y0062537D01*
X0475351Y0062537D02*
X0478353Y0062537D01*
X0478353Y0058033D01*
X0475351Y0058033D01*
X0476852Y0060285D02*
X0478353Y0060285D01*
X0479955Y0058033D02*
X0482957Y0058033D01*
X0482957Y0062537D01*
X0479955Y0062537D01*
X0481456Y0060285D02*
X0482957Y0060285D01*
X0690601Y0054787D02*
X0693603Y0054787D01*
X0693603Y0050283D01*
X0690601Y0050283D01*
X0692102Y0052535D02*
X0693603Y0052535D01*
X0695205Y0052535D02*
X0695955Y0051785D01*
X0698207Y0051785D01*
X0698207Y0050283D02*
X0698207Y0054787D01*
X0695955Y0054787D01*
X0695205Y0054037D01*
X0695205Y0052535D01*
X0710465Y0072268D02*
X0712717Y0072268D01*
X0713468Y0073018D01*
X0713468Y0074520D01*
X0712717Y0075270D01*
X0710465Y0075270D01*
X0715069Y0075270D02*
X0717321Y0075270D01*
X0718072Y0074520D01*
X0718072Y0073018D01*
X0717321Y0072268D01*
X0715069Y0072268D01*
X0715069Y0076772D01*
X0719673Y0076772D02*
X0719673Y0073769D01*
X0721174Y0072268D01*
X0722676Y0073769D01*
X0722676Y0076772D01*
X0728881Y0076021D02*
X0728881Y0075270D01*
X0729631Y0074520D01*
X0731133Y0074520D01*
X0731883Y0075270D01*
X0731883Y0076021D01*
X0731133Y0076772D01*
X0729631Y0076772D01*
X0728881Y0076021D01*
X0729631Y0074520D02*
X0728881Y0073769D01*
X0728881Y0073018D01*
X0729631Y0072268D01*
X0731133Y0072268D01*
X0731883Y0073018D01*
X0731883Y0073769D01*
X0731133Y0074520D01*
X0733485Y0074520D02*
X0736487Y0074520D01*
X0734235Y0076772D01*
X0734235Y0072268D01*
X0738089Y0074520D02*
X0741091Y0074520D01*
X0739590Y0076021D02*
X0739590Y0073018D01*
X0401327Y0195026D02*
X0401327Y0218041D01*
X0393587Y0218041D01*
X0393587Y0195026D01*
X0401327Y0195026D01*
X0401327Y0346526D02*
X0393587Y0346526D01*
X0393587Y0369541D01*
X0401327Y0369541D01*
X0401327Y0346526D01*
X0611679Y0378033D02*
X0611679Y0380285D01*
X0612430Y0381036D01*
X0614681Y0381036D01*
X0614681Y0378033D01*
X0616283Y0379535D02*
X0616283Y0380285D01*
X0617033Y0381036D01*
X0618535Y0381036D01*
X0619285Y0380285D01*
X0619285Y0378784D01*
X0618535Y0378033D01*
X0617033Y0378033D01*
X0616283Y0379535D02*
X0619285Y0379535D01*
X0620887Y0380285D02*
X0620887Y0378784D01*
X0621637Y0378033D01*
X0623889Y0378033D01*
X0623889Y0376532D02*
X0623889Y0381036D01*
X0621637Y0381036D01*
X0620887Y0380285D01*
X0625491Y0380285D02*
X0625491Y0378784D01*
X0626241Y0378033D01*
X0627743Y0378033D01*
X0628493Y0378784D01*
X0628493Y0380285D01*
X0627743Y0381036D01*
X0626241Y0381036D01*
X0625491Y0380285D01*
X0630095Y0380285D02*
X0633097Y0380285D01*
X0634699Y0381036D02*
X0637701Y0378033D01*
X0634699Y0378033D01*
X0634699Y0381036D02*
X0637701Y0381036D01*
X0639302Y0380285D02*
X0639302Y0379535D01*
X0642305Y0379535D01*
X0642305Y0380285D02*
X0642305Y0378784D01*
X0641554Y0378033D01*
X0640053Y0378033D01*
X0639302Y0380285D02*
X0640053Y0381036D01*
X0641554Y0381036D01*
X0642305Y0380285D01*
X0643906Y0380285D02*
X0643906Y0379535D01*
X0646909Y0379535D01*
X0646909Y0380285D02*
X0646909Y0378784D01*
X0646158Y0378033D01*
X0644657Y0378033D01*
X0643906Y0380285D02*
X0644657Y0381036D01*
X0646158Y0381036D01*
X0646909Y0380285D01*
X0648510Y0382537D02*
X0651513Y0378033D01*
X0653114Y0378033D02*
X0653114Y0380285D01*
X0653865Y0381036D01*
X0654615Y0380285D01*
X0654615Y0378033D01*
X0656117Y0378033D02*
X0656117Y0381036D01*
X0655366Y0381036D01*
X0654615Y0380285D01*
X0657718Y0380285D02*
X0657718Y0378784D01*
X0658469Y0378033D01*
X0659970Y0378033D01*
X0660721Y0378784D01*
X0660721Y0380285D01*
X0659970Y0381036D01*
X0658469Y0381036D01*
X0657718Y0380285D01*
X0662322Y0381036D02*
X0664574Y0381036D01*
X0665325Y0380285D01*
X0665325Y0378784D01*
X0664574Y0378033D01*
X0662322Y0378033D01*
X0666876Y0378033D02*
X0667627Y0378033D01*
X0667627Y0378784D01*
X0666876Y0378784D01*
X0666876Y0378033D01*
X0669228Y0378784D02*
X0669228Y0380285D01*
X0669979Y0381036D01*
X0672230Y0381036D01*
X0672230Y0382537D02*
X0672230Y0378033D01*
X0669979Y0378033D01*
X0669228Y0378784D01*
X0673832Y0378033D02*
X0673832Y0381036D01*
X0676834Y0381036D02*
X0676834Y0378784D01*
X0676084Y0378033D01*
X0673832Y0378033D01*
X0678436Y0378033D02*
X0678436Y0380285D01*
X0679186Y0381036D01*
X0680688Y0381036D01*
X0681438Y0380285D01*
X0683006Y0381036D02*
X0684508Y0381036D01*
X0683757Y0381787D02*
X0683757Y0378784D01*
X0683006Y0378033D01*
X0681438Y0378033D02*
X0681438Y0382537D01*
X0681488Y0385533D02*
X0682990Y0385533D01*
X0683740Y0386284D01*
X0680738Y0389287D01*
X0680738Y0386284D01*
X0681488Y0385533D01*
X0683740Y0386284D02*
X0683740Y0389287D01*
X0682990Y0390037D01*
X0681488Y0390037D01*
X0680738Y0389287D01*
X0685342Y0389287D02*
X0686092Y0390037D01*
X0687594Y0390037D01*
X0688344Y0389287D01*
X0689946Y0389287D02*
X0692948Y0386284D01*
X0692198Y0385533D01*
X0690696Y0385533D01*
X0689946Y0386284D01*
X0689946Y0389287D01*
X0690696Y0390037D01*
X0692198Y0390037D01*
X0692948Y0389287D01*
X0692948Y0386284D01*
X0694550Y0385533D02*
X0697552Y0385533D01*
X0694550Y0388536D01*
X0694550Y0389287D01*
X0695300Y0390037D01*
X0696801Y0390037D01*
X0697552Y0389287D01*
X0699153Y0390037D02*
X0702156Y0385533D01*
X0703757Y0386284D02*
X0704508Y0385533D01*
X0706009Y0385533D01*
X0706760Y0386284D01*
X0706760Y0387035D01*
X0706009Y0387785D01*
X0704508Y0387785D01*
X0703757Y0387035D01*
X0703757Y0386284D01*
X0704508Y0387785D02*
X0703757Y0388536D01*
X0703757Y0389287D01*
X0704508Y0390037D01*
X0706009Y0390037D01*
X0706760Y0389287D01*
X0706760Y0388536D01*
X0706009Y0387785D01*
X0708361Y0386284D02*
X0709112Y0385533D01*
X0710613Y0385533D01*
X0711364Y0386284D01*
X0708361Y0389287D01*
X0708361Y0386284D01*
X0708361Y0389287D02*
X0709112Y0390037D01*
X0710613Y0390037D01*
X0711364Y0389287D01*
X0711364Y0386284D01*
X0712932Y0385533D02*
X0714433Y0387035D01*
X0714433Y0388536D01*
X0712932Y0390037D01*
X0720638Y0387785D02*
X0723641Y0387785D01*
X0721389Y0390037D01*
X0721389Y0385533D01*
X0725242Y0385533D02*
X0728245Y0385533D01*
X0725242Y0388536D01*
X0725242Y0389287D01*
X0725993Y0390037D01*
X0727494Y0390037D01*
X0728245Y0389287D01*
X0729846Y0389287D02*
X0730597Y0390037D01*
X0732098Y0390037D01*
X0732849Y0389287D01*
X0734450Y0390037D02*
X0734450Y0385533D01*
X0732849Y0385533D02*
X0729846Y0388536D01*
X0729846Y0389287D01*
X0729846Y0385533D02*
X0732849Y0385533D01*
X0735951Y0388536D02*
X0734450Y0390037D01*
X0735951Y0388536D02*
X0737453Y0390037D01*
X0737453Y0385533D01*
X0739054Y0386284D02*
X0739805Y0385533D01*
X0741306Y0385533D01*
X0742057Y0386284D01*
X0742057Y0389287D01*
X0741306Y0390037D01*
X0739805Y0390037D01*
X0739054Y0389287D01*
X0743658Y0389287D02*
X0744409Y0390037D01*
X0746661Y0390037D01*
X0746661Y0385533D01*
X0744409Y0385533D01*
X0743658Y0386284D01*
X0743658Y0389287D01*
X0752866Y0389287D02*
X0752866Y0388536D01*
X0753617Y0387785D01*
X0755868Y0387785D01*
X0753617Y0387785D02*
X0752866Y0387035D01*
X0752866Y0386284D01*
X0753617Y0385533D01*
X0755868Y0385533D01*
X0755868Y0390037D01*
X0753617Y0390037D01*
X0752866Y0389287D01*
X0757436Y0390037D02*
X0758938Y0390037D01*
X0758187Y0390037D02*
X0758187Y0385533D01*
X0758938Y0385533D02*
X0757436Y0385533D01*
X0760539Y0386284D02*
X0760539Y0389287D01*
X0761290Y0390037D01*
X0763542Y0390037D01*
X0763542Y0385533D01*
X0761290Y0385533D01*
X0760539Y0386284D01*
X0760489Y0381036D02*
X0761240Y0380285D01*
X0761240Y0378784D01*
X0760489Y0378033D01*
X0758237Y0378033D01*
X0755885Y0378784D02*
X0755134Y0378033D01*
X0755885Y0378784D02*
X0755885Y0381787D01*
X0756636Y0381036D02*
X0755134Y0381036D01*
X0758237Y0381036D02*
X0760489Y0381036D01*
X0762841Y0380285D02*
X0762841Y0379535D01*
X0765844Y0379535D01*
X0765844Y0380285D02*
X0765844Y0378784D01*
X0765093Y0378033D01*
X0763592Y0378033D01*
X0762841Y0380285D02*
X0763592Y0381036D01*
X0765093Y0381036D01*
X0765844Y0380285D01*
X0767412Y0381036D02*
X0767412Y0377283D01*
X0768162Y0376532D01*
X0768913Y0376532D01*
X0770514Y0378784D02*
X0770514Y0380285D01*
X0771265Y0381036D01*
X0772766Y0381036D01*
X0773517Y0380285D01*
X0773517Y0378784D01*
X0772766Y0378033D01*
X0771265Y0378033D01*
X0770514Y0378784D01*
X0767412Y0382537D02*
X0767412Y0383288D01*
X0769747Y0385533D02*
X0772749Y0385533D01*
X0772749Y0386284D01*
X0769747Y0389287D01*
X0769747Y0390037D01*
X0772749Y0390037D01*
X0774351Y0390037D02*
X0777353Y0390037D01*
X0777353Y0385533D01*
X0774351Y0385533D01*
X0775852Y0387785D02*
X0777353Y0387785D01*
X0778955Y0385533D02*
X0781957Y0385533D01*
X0781957Y0390037D01*
X0778955Y0390037D01*
X0780456Y0387785D02*
X0781957Y0387785D01*
X0781957Y0382537D02*
X0779705Y0382537D01*
X0778955Y0381787D01*
X0778955Y0380285D01*
X0779705Y0379535D01*
X0781957Y0379535D01*
X0781957Y0378033D02*
X0781957Y0382537D01*
X0777353Y0381036D02*
X0777353Y0378033D01*
X0777353Y0379535D02*
X0775852Y0381036D01*
X0775102Y0381036D01*
X0748963Y0380285D02*
X0748212Y0379535D01*
X0746711Y0379535D01*
X0745960Y0378784D01*
X0746711Y0378033D01*
X0748963Y0378033D01*
X0748963Y0380285D02*
X0748212Y0381036D01*
X0745960Y0381036D01*
X0744359Y0380285D02*
X0744359Y0378784D01*
X0743608Y0378033D01*
X0742107Y0378033D01*
X0741356Y0378784D01*
X0741356Y0380285D01*
X0742107Y0381036D01*
X0743608Y0381036D01*
X0744359Y0380285D01*
X0739755Y0381036D02*
X0739755Y0378784D01*
X0739004Y0378033D01*
X0736752Y0378033D01*
X0736752Y0381036D01*
X0735151Y0381036D02*
X0735151Y0378033D01*
X0735151Y0379535D02*
X0733650Y0381036D01*
X0732899Y0381036D01*
X0731314Y0380285D02*
X0731314Y0378784D01*
X0730564Y0378033D01*
X0728312Y0378033D01*
X0726710Y0378784D02*
X0726710Y0380285D01*
X0725960Y0381036D01*
X0724458Y0381036D01*
X0723708Y0380285D01*
X0723708Y0379535D01*
X0726710Y0379535D01*
X0726710Y0378784D02*
X0725960Y0378033D01*
X0724458Y0378033D01*
X0728312Y0381036D02*
X0730564Y0381036D01*
X0731314Y0380285D01*
X0717502Y0380285D02*
X0717502Y0378784D01*
X0716752Y0378033D01*
X0714500Y0378033D01*
X0712898Y0378784D02*
X0712898Y0380285D01*
X0712148Y0381036D01*
X0710647Y0381036D01*
X0709896Y0380285D01*
X0709896Y0378784D01*
X0710647Y0378033D01*
X0712148Y0378033D01*
X0712898Y0378784D01*
X0714500Y0381036D02*
X0716752Y0381036D01*
X0717502Y0380285D01*
X0708295Y0380285D02*
X0708295Y0378784D01*
X0707544Y0378033D01*
X0705292Y0378033D01*
X0705292Y0382537D01*
X0705292Y0381036D02*
X0707544Y0381036D01*
X0708295Y0380285D01*
X0703691Y0380285D02*
X0703691Y0378784D01*
X0702940Y0378033D01*
X0701439Y0378033D01*
X0700688Y0379535D02*
X0703691Y0379535D01*
X0703691Y0380285D02*
X0702940Y0381036D01*
X0701439Y0381036D01*
X0700688Y0380285D01*
X0700688Y0379535D01*
X0699087Y0380285D02*
X0699087Y0381036D01*
X0698336Y0381036D01*
X0698336Y0380285D01*
X0699087Y0380285D01*
X0699087Y0378784D02*
X0699087Y0378033D01*
X0698336Y0378033D01*
X0698336Y0378784D01*
X0699087Y0378784D01*
X0692181Y0378784D02*
X0692181Y0380285D01*
X0691430Y0381036D01*
X0689178Y0381036D01*
X0689178Y0377283D01*
X0689929Y0376532D01*
X0690680Y0376532D01*
X0691430Y0378033D02*
X0689178Y0378033D01*
X0687577Y0378033D02*
X0686076Y0378033D01*
X0686826Y0378033D02*
X0686826Y0381036D01*
X0687577Y0381036D01*
X0686826Y0382537D02*
X0686826Y0383288D01*
X0685342Y0385533D02*
X0688344Y0385533D01*
X0685342Y0388536D01*
X0685342Y0389287D01*
X0674532Y0388536D02*
X0674532Y0385533D01*
X0674532Y0387035D02*
X0673031Y0388536D01*
X0672281Y0388536D01*
X0670696Y0389287D02*
X0669945Y0390037D01*
X0668444Y0390037D01*
X0667693Y0389287D01*
X0667693Y0388536D01*
X0668444Y0387785D01*
X0667693Y0387035D01*
X0667693Y0386284D01*
X0668444Y0385533D01*
X0669945Y0385533D01*
X0670696Y0386284D01*
X0669195Y0387785D02*
X0668444Y0387785D01*
X0666092Y0387785D02*
X0663840Y0387785D01*
X0663089Y0387035D01*
X0663089Y0386284D01*
X0663840Y0385533D01*
X0666092Y0385533D01*
X0666092Y0390037D01*
X0663840Y0390037D01*
X0663089Y0389287D01*
X0663089Y0388536D01*
X0663840Y0387785D01*
X0661488Y0386284D02*
X0660737Y0385533D01*
X0659236Y0385533D01*
X0658485Y0386284D01*
X0658485Y0387035D01*
X0659236Y0387785D01*
X0659987Y0387785D01*
X0659236Y0387785D02*
X0658485Y0388536D01*
X0658485Y0389287D01*
X0659236Y0390037D01*
X0660737Y0390037D01*
X0661488Y0389287D01*
X0656884Y0390037D02*
X0655383Y0388536D01*
X0655383Y0387035D01*
X0656884Y0385533D01*
X0691430Y0378033D02*
X0692181Y0378784D01*
D11*
X0765707Y0359133D03*
X0765707Y0358833D03*
X0765707Y0358533D03*
X0765707Y0358233D03*
X0765707Y0357933D03*
D12*
X0765107Y0361233D03*
X0765107Y0361533D03*
X0765107Y0361833D03*
X0765107Y0362133D03*
X0765107Y0362433D03*
X0765107Y0362733D03*
X0765107Y0363033D03*
X0765107Y0363333D03*
X0765107Y0363633D03*
X0765107Y0363933D03*
X0765107Y0364233D03*
X0765107Y0364533D03*
X0765107Y0364833D03*
X0765107Y0366333D03*
X0765107Y0366633D03*
X0765107Y0366933D03*
X0765107Y0367233D03*
X0765107Y0367533D03*
X0765107Y0367833D03*
X0765107Y0368133D03*
X0765107Y0368433D03*
X0765107Y0368733D03*
X0765107Y0369033D03*
X0761207Y0369033D03*
X0761207Y0368733D03*
X0761207Y0368433D03*
X0761207Y0368133D03*
X0761207Y0367833D03*
X0761207Y0367533D03*
X0761207Y0367233D03*
X0761207Y0366933D03*
X0761207Y0366633D03*
X0761207Y0366333D03*
X0761207Y0364833D03*
X0761207Y0364533D03*
X0761207Y0364233D03*
X0761207Y0363933D03*
X0761207Y0363633D03*
X0761207Y0363333D03*
X0761207Y0363033D03*
X0761207Y0362733D03*
X0761207Y0362433D03*
X0761207Y0362133D03*
X0761207Y0361833D03*
X0761207Y0361533D03*
X0761207Y0361233D03*
X0758207Y0361533D03*
X0758207Y0361833D03*
X0758207Y0362133D03*
X0758207Y0362433D03*
X0755207Y0361833D03*
X0755207Y0361533D03*
X0756707Y0366333D03*
X0756707Y0366633D03*
X0756707Y0366933D03*
X0753707Y0367833D03*
X0750107Y0367833D03*
X0750107Y0367533D03*
X0750107Y0367233D03*
X0750107Y0366933D03*
X0750107Y0366633D03*
X0750107Y0366333D03*
X0750107Y0366033D03*
X0750107Y0365733D03*
X0750107Y0365433D03*
X0750107Y0365133D03*
X0750107Y0364833D03*
X0750107Y0364533D03*
X0750107Y0364233D03*
X0750107Y0363933D03*
X0750107Y0363633D03*
X0750107Y0363333D03*
X0750107Y0363033D03*
X0750107Y0362733D03*
X0750107Y0362433D03*
X0750107Y0362133D03*
X0750107Y0361833D03*
X0750107Y0361533D03*
X0750107Y0361233D03*
X0750107Y0360933D03*
X0750107Y0360633D03*
X0750107Y0360333D03*
X0750107Y0360033D03*
X0750107Y0359733D03*
X0750107Y0359433D03*
X0750107Y0368133D03*
X0750107Y0368433D03*
X0750107Y0368733D03*
X0750107Y0369033D03*
X0750107Y0369333D03*
X0750107Y0369633D03*
X0750107Y0369933D03*
X0750107Y0370233D03*
X0750107Y0370533D03*
X0750107Y0370833D03*
X0750107Y0371133D03*
X0750107Y0371433D03*
X0750107Y0371733D03*
X0750107Y0372033D03*
X0750107Y0372333D03*
X0750107Y0372633D03*
X0750107Y0372933D03*
X0752507Y0373533D03*
X0752807Y0372033D03*
X0767507Y0363933D03*
X0767507Y0363633D03*
X0767507Y0363333D03*
X0767507Y0363033D03*
X0767807Y0362433D03*
X0767807Y0364233D03*
X0771407Y0366633D03*
X0771407Y0366933D03*
X0771407Y0367233D03*
X0771407Y0367533D03*
X0773807Y0366633D03*
X0773807Y0366333D03*
X0773807Y0366033D03*
X0773807Y0365733D03*
X0773807Y0365433D03*
X0773807Y0365133D03*
X0773807Y0364833D03*
X0773807Y0364533D03*
X0773807Y0364233D03*
X0773807Y0363933D03*
X0773807Y0363633D03*
X0777707Y0363633D03*
X0777707Y0363933D03*
X0777707Y0364233D03*
X0777707Y0366033D03*
X0777707Y0366333D03*
X0777707Y0366633D03*
X0775907Y0369333D03*
X0774107Y0367533D03*
X0781307Y0367533D03*
X0781307Y0367233D03*
X0781307Y0366933D03*
X0781307Y0366633D03*
X0781307Y0366333D03*
X0781307Y0366033D03*
X0781307Y0365733D03*
X0781307Y0365433D03*
X0781307Y0365133D03*
X0781307Y0364833D03*
X0781307Y0364533D03*
X0781307Y0364233D03*
X0781307Y0363933D03*
X0781307Y0363633D03*
X0781307Y0363333D03*
X0781307Y0363033D03*
X0781307Y0362733D03*
X0781307Y0362433D03*
X0781307Y0362133D03*
X0781307Y0361833D03*
X0781307Y0361533D03*
X0781307Y0361233D03*
X0781307Y0360933D03*
X0781307Y0360633D03*
X0781307Y0360333D03*
X0781307Y0360033D03*
X0781307Y0359733D03*
X0781307Y0359433D03*
X0781307Y0367833D03*
X0781307Y0368133D03*
X0781307Y0368433D03*
X0781307Y0368733D03*
X0781307Y0369033D03*
X0781307Y0369333D03*
X0781307Y0369633D03*
X0781307Y0369933D03*
X0781307Y0370233D03*
X0781307Y0370533D03*
X0781307Y0370833D03*
X0781307Y0371133D03*
X0781307Y0371433D03*
D13*
X0775907Y0361233D03*
D14*
X0769757Y0361233D03*
X0769157Y0369033D03*
X0775757Y0369033D03*
D15*
X0775757Y0368733D03*
X0769757Y0365433D03*
X0769157Y0365133D03*
X0775757Y0361533D03*
D16*
X0775757Y0361833D03*
X0769757Y0361533D03*
X0769457Y0368433D03*
X0775757Y0368433D03*
D17*
X0775757Y0368133D03*
X0769757Y0361833D03*
D18*
X0775907Y0362133D03*
D19*
X0774407Y0362433D03*
X0771107Y0362133D03*
X0768107Y0362133D03*
X0768107Y0364533D03*
X0770807Y0366033D03*
X0758207Y0363933D03*
X0758207Y0363633D03*
X0758207Y0363333D03*
X0756707Y0365133D03*
X0756707Y0365433D03*
X0755207Y0363333D03*
X0755207Y0363033D03*
D20*
X0755057Y0362733D03*
X0755057Y0362433D03*
X0755057Y0362133D03*
X0758057Y0362733D03*
X0758057Y0363033D03*
X0756557Y0365733D03*
X0756557Y0366033D03*
X0770957Y0368133D03*
X0771257Y0366333D03*
X0773957Y0366933D03*
X0773957Y0367233D03*
X0774257Y0367833D03*
X0777257Y0367833D03*
X0777557Y0367533D03*
X0777557Y0367233D03*
X0777557Y0366933D03*
X0777857Y0365733D03*
X0777857Y0365433D03*
X0777857Y0365133D03*
X0777857Y0364833D03*
X0777857Y0364533D03*
X0777557Y0363333D03*
X0777557Y0363033D03*
X0777557Y0362733D03*
X0777257Y0362433D03*
X0774257Y0362733D03*
X0773957Y0363033D03*
X0773957Y0363333D03*
D21*
X0771557Y0362433D03*
X0767657Y0362733D03*
X0767957Y0368133D03*
X0771257Y0367833D03*
X0759257Y0367833D03*
X0759257Y0367533D03*
X0759257Y0367233D03*
X0758957Y0366633D03*
X0758957Y0366333D03*
X0758957Y0366033D03*
X0758957Y0365733D03*
X0758957Y0365433D03*
X0759257Y0368133D03*
X0759257Y0368433D03*
X0759257Y0368733D03*
X0759257Y0369033D03*
X0755957Y0364533D03*
X0755957Y0364233D03*
X0754457Y0364233D03*
X0754457Y0363933D03*
X0754457Y0363633D03*
X0754457Y0364533D03*
X0754457Y0364833D03*
X0754157Y0365133D03*
X0754157Y0365433D03*
X0754157Y0365733D03*
X0754157Y0366033D03*
X0754157Y0366333D03*
X0753857Y0366633D03*
X0753857Y0366933D03*
X0753857Y0367233D03*
X0753857Y0367533D03*
X0753557Y0368133D03*
X0753557Y0368433D03*
X0753557Y0368733D03*
X0753557Y0369033D03*
X0753257Y0369333D03*
X0753257Y0369633D03*
X0753257Y0369933D03*
X0753257Y0370233D03*
X0753257Y0370533D03*
X0752957Y0370833D03*
X0752957Y0371133D03*
X0752957Y0371433D03*
X0752957Y0371733D03*
X0752657Y0372333D03*
X0752657Y0372633D03*
X0752657Y0372933D03*
X0752657Y0373233D03*
X0752357Y0373833D03*
X0752357Y0374133D03*
X0752357Y0374433D03*
X0752357Y0374733D03*
D22*
X0767657Y0367833D03*
X0771857Y0362733D03*
D23*
X0769307Y0369333D03*
X0759107Y0366933D03*
X0758807Y0365133D03*
X0758807Y0364833D03*
X0758807Y0364533D03*
X0757307Y0364533D03*
X0757307Y0364833D03*
X0756107Y0364833D03*
X0755807Y0363933D03*
X0755807Y0363633D03*
D24*
X0758057Y0364233D03*
D25*
X0768707Y0364833D03*
X0770207Y0365733D03*
D26*
X0763157Y0365733D03*
X0763157Y0365433D03*
X0763157Y0365133D03*
X0763157Y0366033D03*
D27*
X0769307Y0368733D03*
D28*
X0768557Y0371733D03*
X0768557Y0372033D03*
X0768557Y0372333D03*
X0768557Y0372633D03*
X0768557Y0372933D03*
D29*
X0768362Y0355987D02*
X0766894Y0355987D01*
X0766160Y0355253D01*
X0769096Y0352317D01*
X0768362Y0351583D01*
X0766894Y0351583D01*
X0766160Y0352317D01*
X0766160Y0355253D01*
X0764492Y0355253D02*
X0763758Y0355987D01*
X0762290Y0355987D01*
X0761556Y0355253D01*
X0764492Y0352317D01*
X0763758Y0351583D01*
X0762290Y0351583D01*
X0761556Y0352317D01*
X0761556Y0355253D01*
X0759888Y0355253D02*
X0759154Y0355987D01*
X0757686Y0355987D01*
X0756952Y0355253D01*
X0759888Y0352317D01*
X0759154Y0351583D01*
X0757686Y0351583D01*
X0756952Y0352317D01*
X0756952Y0355253D01*
X0755284Y0355253D02*
X0754550Y0355987D01*
X0753082Y0355987D01*
X0752348Y0355253D01*
X0755284Y0352317D01*
X0754550Y0351583D01*
X0753082Y0351583D01*
X0752348Y0352317D01*
X0752348Y0355253D01*
X0750680Y0355253D02*
X0749946Y0355987D01*
X0748478Y0355987D01*
X0747744Y0355253D01*
X0747744Y0354519D01*
X0750680Y0351583D01*
X0747744Y0351583D01*
X0755284Y0352317D02*
X0755284Y0355253D01*
X0759888Y0355253D02*
X0759888Y0352317D01*
X0764492Y0352317D02*
X0764492Y0355253D01*
X0768362Y0355987D02*
X0769096Y0355253D01*
X0769096Y0352317D01*
X0770764Y0352317D02*
X0771498Y0351583D01*
X0772966Y0351583D01*
X0773699Y0352317D01*
X0770764Y0355253D01*
X0770764Y0352317D01*
X0773699Y0352317D02*
X0773699Y0355253D01*
X0772966Y0355987D01*
X0771498Y0355987D01*
X0770764Y0355253D01*
X0775368Y0355253D02*
X0775368Y0353785D01*
X0776102Y0353051D01*
X0778303Y0353051D01*
X0776836Y0353051D02*
X0775368Y0351583D01*
X0778303Y0351583D02*
X0778303Y0355987D01*
X0776102Y0355987D01*
X0775368Y0355253D01*
X0779972Y0355987D02*
X0779972Y0351583D01*
X0779972Y0353785D02*
X0782907Y0353785D01*
X0782907Y0351583D02*
X0782907Y0355987D01*
D30*
X0401647Y0370967D02*
X0401163Y0370483D01*
X0400679Y0370483D01*
X0400196Y0370967D01*
X0400196Y0373386D01*
X0400679Y0373386D02*
X0399712Y0373386D01*
X0398700Y0373386D02*
X0397249Y0373386D01*
X0396765Y0372902D01*
X0396765Y0371935D01*
X0397249Y0371451D01*
X0398700Y0371451D01*
X0398700Y0370483D02*
X0398700Y0373386D01*
X0395754Y0372902D02*
X0395270Y0373386D01*
X0394303Y0373386D01*
X0393819Y0372902D01*
X0393819Y0372418D01*
X0394303Y0371935D01*
X0393819Y0371451D01*
X0393819Y0370967D01*
X0394303Y0370483D01*
X0395270Y0370483D01*
X0395754Y0370967D01*
X0394786Y0371935D02*
X0394303Y0371935D01*
X0393819Y0221636D02*
X0395754Y0221636D01*
X0395754Y0220185D01*
X0394786Y0220668D01*
X0394303Y0220668D01*
X0393819Y0220185D01*
X0393819Y0219217D01*
X0394303Y0218733D01*
X0395270Y0218733D01*
X0395754Y0219217D01*
X0396765Y0220185D02*
X0397249Y0219701D01*
X0398700Y0219701D01*
X0398700Y0218733D02*
X0398700Y0221636D01*
X0397249Y0221636D01*
X0396765Y0221152D01*
X0396765Y0220185D01*
X0399712Y0221636D02*
X0400679Y0221636D01*
X0400196Y0221636D02*
X0400196Y0219217D01*
X0400679Y0218733D01*
X0401163Y0218733D01*
X0401647Y0219217D01*
M02*
