%
M48
M72
T01C0.01575
T02C0.02362
T03C0.03543
T04C0.03937
T05C0.04000
T06C0.04331
T07C0.04724
T08C0.05512
T09C0.06693
T10C0.07638
T11C0.11811
T12C0.12598
%
T01
X232707Y130533
X232707Y155533
X285957Y163033
X289457Y163033
X292957Y163033
X296457Y163033
X299957Y163033
X311707Y162033
X314707Y162033
X317707Y162033
X317707Y155533
X314707Y155533
X311707Y155533
X316207Y144283
X299957Y136533
X296457Y136533
X292957Y136533
X289457Y136533
X285957Y136533
X286217Y118274
X290457Y118283
X306707Y107283
X315457Y120783
X318957Y128283
X347707Y161783
X359207Y161783
X394457Y160783
X394457Y158033
X398207Y151783
X398207Y148283
X398207Y144783
X398207Y141283
X398207Y137783
X398207Y134283
X398207Y130783
X398207Y127283
X416207Y123283
X416207Y120283
X429707Y137783
X433207Y137783
X433207Y141283
X429707Y141283
X429707Y144783
X433207Y144783
X431207Y154533
X432207Y159783
X432207Y163283
X432207Y166783
X432207Y170283
X432207Y173783
X432207Y177283
X432207Y180783
X422707Y173283
X408957Y170283
X408957Y166783
X408957Y163283
X400457Y163283
X400457Y166783
X400457Y170283
X394457Y169283
X394457Y172283
X394457Y175283
X389207Y183783
X369457Y187533
X366457Y187533
X363457Y187533
X366457Y195283
X369457Y195283
X387707Y198533
X392957Y197533
X387957Y207283
X375707Y215033
X381207Y222783
X391957Y228783
X399707Y228533
X407707Y228533
X418957Y225283
X422207Y222033
X418957Y218783
X422207Y215533
X418957Y212283
X415707Y209033
X422207Y209033
X425457Y205783
X422207Y202533
X418957Y199283
X415707Y202533
X425457Y199283
X428707Y209033
X425457Y212283
X428707Y215533
X425457Y218783
X428707Y222033
X425457Y225283
X438207Y224033
X438707Y219783
X438957Y212783
X438957Y205783
X438707Y201533
X438707Y197283
X437957Y186033
X432207Y187033
X445207Y180783
X448707Y187533
X459707Y187533
X459707Y190533
X459957Y200533
X459207Y211033
X458207Y218783
X464457Y220783
X442207Y227533
X446207Y239783
X453957Y239783
X475707Y241033
X489957Y233283
X511957Y229283
X529457Y225283
X529457Y222283
X529457Y219283
X529457Y216283
X529457Y213283
X529457Y210283
X529457Y207283
X540957Y210283
X540957Y213283
X540957Y216283
X540957Y219283
X540957Y222283
X553707Y233533
X555957Y243033
X559207Y246283
X569207Y243783
X575457Y236783
X595207Y240283
X602957Y233533
X612457Y228783
X615457Y232283
X615707Y236533
X628707Y237533
X628707Y245783
X626457Y252783
X626457Y257033
X624457Y261033
X626207Y266533
X610457Y276533
X595207Y271533
X581457Y271533
X604207Y257783
X607207Y251033
X643957Y256033
X654707Y248033
X649707Y234783
X667957Y228033
X672207Y227783
X673207Y223533
X679957Y228033
X684707Y235283
X688207Y242033
X695457Y235283
X696957Y224533
X696957Y221533
X696207Y215033
X694457Y203283
X687457Y203283
X683207Y201033
X683707Y191283
X686457Y181533
X672707Y180283
X675957Y174283
X684207Y174783
X691707Y174533
X662957Y170033
X659207Y177783
X652807Y179183
X641457Y179533
X641207Y186283
X649957Y193533
X655707Y190283
X660207Y190283
X664957Y190033
X657957Y197783
X664957Y202033
X664707Y206783
X666957Y210783
X671957Y211283
X658207Y212033
X651707Y207533
X649957Y212033
X643707Y219283
X640207Y215283
X638957Y209283
X631207Y211283
X631207Y218033
X627207Y226033
X614457Y212033
X605457Y223283
X586457Y210533
X586457Y204033
X573957Y203533
X569707Y203533
X563707Y219533
X605457Y201033
X614457Y195283
X614457Y181033
X614457Y165533
X601457Y155033
X622207Y150283
X628457Y149533
X633457Y156033
X640957Y159533
X641457Y172033
X656957Y156283
X675457Y148533
X678707Y151783
X685207Y153533
X669457Y141533
X673707Y140033
X663207Y139533
X645207Y139033
X640457Y141533
X592957Y121033
X560457Y125033
X545207Y124783
X539707Y125283
X504207Y126783
X471207Y126533
X471207Y123033
X467707Y123033
X464207Y123033
X460707Y123033
X457207Y123033
X453707Y123033
X450207Y123033
X450207Y126533
X453707Y126533
X457207Y126533
X460707Y126533
X464207Y126533
X467707Y126533
X469957Y98533
X487707Y99783
X497957Y96283
X519457Y90033
X539457Y95033
X545207Y93033
X545207Y99783
X570457Y95033
X590457Y95283
X589457Y87533
X584207Y79533
X576957Y74533
X581707Y69533
X560957Y72533
X549707Y68033
X608707Y66783
X614207Y90283
X619707Y43533
X706457Y68533
X706457Y71533
X706457Y74533
X728457Y74283
X728457Y71283
X728457Y68283
X728707Y83283
X708707Y84783
X769207Y160033
X769207Y163033
X769207Y166033
X781457Y166033
X781457Y163033
X781457Y160033
X744457Y186033
X744457Y189033
X744457Y192033
X735707Y177533
X735707Y174533
X710707Y202783
X679957Y218033
X671957Y199033
X740957Y230533
X755957Y236033
X758957Y236033
X758957Y239033
X755957Y239033
X763457Y247533
X740957Y248283
X721707Y266283
X718707Y266283
X731707Y272033
X753207Y272033
X734957Y299533
X731957Y299533
X717957Y299783
X714957Y299783
X716957Y312533
X718457Y323533
X733707Y331283
X736707Y331283
X747957Y329783
X747957Y326783
X752707Y319783
X751957Y302033
X748957Y302033
X696707Y306283
X671457Y306283
X672207Y314033
X671457Y321033
X658207Y314783
X642457Y313783
X634957Y313783
X643957Y328783
X671207Y328783
X652957Y296283
X611707Y288533
X595207Y290533
X570457Y292283
X552457Y301533
X544207Y297283
X529957Y301033
X566957Y325533
X537207Y344283
X514207Y352283
X503707Y341283
X503707Y338283
X503707Y335283
X503707Y332533
X503707Y330033
X500707Y330033
X500707Y332533
X500707Y335283
X500707Y338283
X500707Y341283
X489707Y349783
X496207Y353533
X529457Y359783
X529457Y362783
X529457Y365783
X529457Y368783
X529457Y371783
X529457Y374783
X529457Y377783
X540957Y374783
X540957Y371783
X540957Y368783
X540957Y365783
X540957Y362783
X553957Y361283
X512207Y381533
X480957Y381783
X475707Y390033
X453957Y391783
X446207Y391783
X438707Y375783
X441457Y372533
X428707Y374033
X425457Y370783
X422207Y367533
X418957Y364283
X415707Y361033
X418957Y357783
X415707Y354533
X418957Y351283
X422207Y354533
X425457Y351283
X425457Y357783
X422207Y361033
X425457Y364283
X428707Y361033
X438957Y357783
X438707Y353533
X438707Y349283
X448707Y345033
X453957Y345783
X456957Y345783
X459957Y352533
X458207Y363033
X458457Y370783
X438957Y364533
X428707Y367533
X422207Y374033
X418957Y370783
X418957Y377283
X425457Y377283
X407707Y380533
X399707Y380533
X391957Y381283
X378707Y385533
X365457Y377283
X365457Y374283
X359957Y374283
X359957Y377283
X343457Y373533
X375707Y367033
X381207Y374783
X387957Y359283
X386207Y350283
X393207Y350283
X405457Y354283
X404957Y358533
X405957Y364783
X405957Y347033
X415707Y341033
X410707Y339033
X394457Y327283
X394457Y324283
X394457Y321283
X394457Y315783
X394457Y312783
X394457Y310033
X400457Y315283
X400457Y318783
X400457Y322283
X408957Y322283
X408957Y318783
X408957Y315283
X422707Y325283
X432207Y325783
X432207Y322283
X432207Y318783
X432207Y315283
X432207Y311783
X431207Y306533
X429707Y296533
X429707Y293033
X429707Y289533
X433207Y289533
X433207Y293033
X433207Y296533
X450207Y308533
X453707Y308533
X457207Y308533
X460707Y308533
X464207Y308533
X467707Y308533
X471207Y308533
X479707Y318533
X483707Y321533
X486707Y321533
X489707Y321533
X486707Y328533
X483707Y328533
X444707Y332783
X437707Y337783
X432707Y339033
X432207Y332783
X432207Y329283
X389957Y335283
X369457Y339533
X366457Y339533
X363457Y339533
X366457Y347033
X369457Y347033
X359207Y313783
X347707Y313783
X317707Y311283
X314707Y311283
X311707Y311283
X311707Y304783
X314707Y304783
X317707Y304783
X316207Y294033
X318457Y277533
X314207Y266283
X300457Y262533
X296707Y253533
X283207Y252783
X291207Y272283
X274207Y292033
X270707Y292033
X270707Y295533
X274207Y295533
X274207Y299033
X270707Y299033
X270707Y302533
X274207Y302533
X274207Y306033
X270707Y306033
X232707Y304783
X232707Y280033
X343457Y221283
X359957Y222283
X359957Y225283
X365457Y225283
X365457Y222283
X378207Y232033
X378207Y236533
X391957Y244533
X407457Y243283
X415207Y243783
X416207Y272283
X416207Y275283
X398207Y279283
X398207Y282783
X398207Y286283
X398207Y289783
X398207Y293283
X398207Y296783
X398207Y300283
X398207Y303783
X404457Y304033
X450207Y278533
X450207Y275033
X453707Y275033
X457207Y275033
X460707Y275033
X464207Y275033
X467707Y275033
X471207Y275033
X471207Y278533
X467707Y278533
X464207Y278533
X460707Y278533
X457207Y278533
X453707Y278533
X479457Y263283
X476707Y260033
X514457Y267783
X529957Y271283
X537207Y269783
X546707Y273033
X554457Y272533
X546957Y255533
X512957Y200783
X503707Y188283
X503707Y185283
X503707Y182283
X503707Y179283
X503707Y176283
X500707Y176283
X500707Y179283
X500707Y182283
X500707Y185283
X500707Y188283
X492707Y176533
X489707Y176533
X486707Y176533
X486707Y169533
X489707Y169533
X492707Y169533
X471207Y156533
X467707Y156533
X464207Y156533
X460707Y156533
X457207Y156533
X453707Y156533
X450207Y156533
X404457Y152033
X394457Y163783
X410707Y187033
X415707Y189033
X405957Y195033
X403457Y202533
X405457Y206533
X405957Y212783
X314707Y191033
X408957Y97283
X396207Y84533
X445707Y98533
X395957Y43533
X551207Y146783
X533457Y189283
X664207Y261533
X674707Y252783
X608207Y308783
X602457Y310033
X553707Y385533
X415207Y395783
X407457Y396283
X391957Y396283
X314707Y340533
T02
X258957Y279783
X258957Y130533
T03
X225987Y142988
X218487Y142988
X210987Y142988
X210987Y292594
X218487Y292594
X225987Y292594
X583957Y393533
X689957Y326533
X700957Y326533
X760957Y310783
T04
X708207Y192783
X708207Y182783
X708207Y172783
X708207Y162783
X708207Y152783
X708207Y142783
X531853Y79996
X521853Y79996
X511853Y79996
X501853Y79996
X491853Y79996
X481853Y79996
X471853Y79996
X461853Y79996
X451853Y79996
X441853Y79996
X431853Y79996
X421853Y79996
X411853Y79996
X401853Y79996
X401853Y69996
X411853Y69996
X421853Y69996
X431853Y69996
X441853Y69996
X451853Y69996
X461853Y69996
X471853Y69996
X481853Y69996
X491853Y69996
X501853Y69996
X511853Y69996
X521853Y69996
X531853Y69996
T05
X346656Y69996
X336656Y69996
X326656Y69996
X316656Y69996
X306656Y69996
X306656Y79996
X316656Y79996
X326656Y79996
X336656Y79996
X346656Y79996
T06
X258957Y150533
X258957Y299783
T07
X735772Y163061
X775142Y163061
X775142Y104006
X735772Y104006
T08
X748861Y74091
X768546Y74091
T09
X727207Y52437
X705554Y52437
X200987Y142988
X200987Y292594
T10
X195869Y105587
X256105Y105587
X256105Y180587
X195869Y180587
X195869Y255193
X256105Y255193
X256105Y330193
X195869Y330193
T11
X755948Y52437
T12
X230514Y52437
X230514Y52437
X230514Y383146
X230514Y383146
M30
